%TF.GenerationSoftware,KiCad,Pcbnew,9.0.5*%
%TF.CreationDate,2025-12-06T02:43:12+13:00*%
%TF.ProjectId,Logger_Dev_001,4c6f6767-6572-45f4-9465-765f3030312e,rev?*%
%TF.SameCoordinates,Original*%
%TF.FileFunction,Copper,L2,Inr*%
%TF.FilePolarity,Positive*%
%FSLAX46Y46*%
G04 Gerber Fmt 4.6, Leading zero omitted, Abs format (unit mm)*
G04 Created by KiCad (PCBNEW 9.0.5) date 2025-12-06 02:43:12*
%MOMM*%
%LPD*%
G01*
G04 APERTURE LIST*
%ADD10C,0.100000*%
%ADD11C,0.150000*%
%ADD12C,0.300000*%
%ADD13C,0.400000*%
%TA.AperFunction,HeatsinkPad*%
%ADD14C,0.700000*%
%TD*%
%TA.AperFunction,ComponentPad*%
%ADD15O,1.300000X2.300000*%
%TD*%
%TA.AperFunction,ComponentPad*%
%ADD16O,1.300000X2.100000*%
%TD*%
%TA.AperFunction,ComponentPad*%
%ADD17C,0.500000*%
%TD*%
%TA.AperFunction,ComponentPad*%
%ADD18C,2.500000*%
%TD*%
%TA.AperFunction,ViaPad*%
%ADD19C,0.800000*%
%TD*%
%TA.AperFunction,ViaPad*%
%ADD20C,0.700000*%
%TD*%
G04 APERTURE END LIST*
D10*
D11*
X177002200Y-166007200D02*
X285002200Y-166007200D01*
X285002200Y-198007200D01*
X177002200Y-198007200D01*
X177002200Y-166007200D01*
D10*
D11*
X10000000Y-10000000D02*
X287002200Y-10000000D01*
X287002200Y-200007200D01*
X10000000Y-200007200D01*
X10000000Y-10000000D01*
D10*
D11*
X12000000Y-12000000D02*
X285002200Y-12000000D01*
X285002200Y-198007200D01*
X12000000Y-198007200D01*
X12000000Y-12000000D01*
D10*
D11*
X60000000Y-12000000D02*
X60000000Y-10000000D01*
D10*
D11*
X110000000Y-12000000D02*
X110000000Y-10000000D01*
D10*
D11*
X160000000Y-12000000D02*
X160000000Y-10000000D01*
D10*
D11*
X210000000Y-12000000D02*
X210000000Y-10000000D01*
D10*
D11*
X260000000Y-12000000D02*
X260000000Y-10000000D01*
D10*
D11*
X36089160Y-11593604D02*
X35346303Y-11593604D01*
X35717731Y-11593604D02*
X35717731Y-10293604D01*
X35717731Y-10293604D02*
X35593922Y-10479319D01*
X35593922Y-10479319D02*
X35470112Y-10603128D01*
X35470112Y-10603128D02*
X35346303Y-10665033D01*
D10*
D11*
X85346303Y-10417414D02*
X85408207Y-10355509D01*
X85408207Y-10355509D02*
X85532017Y-10293604D01*
X85532017Y-10293604D02*
X85841541Y-10293604D01*
X85841541Y-10293604D02*
X85965350Y-10355509D01*
X85965350Y-10355509D02*
X86027255Y-10417414D01*
X86027255Y-10417414D02*
X86089160Y-10541223D01*
X86089160Y-10541223D02*
X86089160Y-10665033D01*
X86089160Y-10665033D02*
X86027255Y-10850747D01*
X86027255Y-10850747D02*
X85284398Y-11593604D01*
X85284398Y-11593604D02*
X86089160Y-11593604D01*
D10*
D11*
X135284398Y-10293604D02*
X136089160Y-10293604D01*
X136089160Y-10293604D02*
X135655826Y-10788842D01*
X135655826Y-10788842D02*
X135841541Y-10788842D01*
X135841541Y-10788842D02*
X135965350Y-10850747D01*
X135965350Y-10850747D02*
X136027255Y-10912652D01*
X136027255Y-10912652D02*
X136089160Y-11036461D01*
X136089160Y-11036461D02*
X136089160Y-11345985D01*
X136089160Y-11345985D02*
X136027255Y-11469795D01*
X136027255Y-11469795D02*
X135965350Y-11531700D01*
X135965350Y-11531700D02*
X135841541Y-11593604D01*
X135841541Y-11593604D02*
X135470112Y-11593604D01*
X135470112Y-11593604D02*
X135346303Y-11531700D01*
X135346303Y-11531700D02*
X135284398Y-11469795D01*
D10*
D11*
X185965350Y-10726938D02*
X185965350Y-11593604D01*
X185655826Y-10231700D02*
X185346303Y-11160271D01*
X185346303Y-11160271D02*
X186151064Y-11160271D01*
D10*
D11*
X236027255Y-10293604D02*
X235408207Y-10293604D01*
X235408207Y-10293604D02*
X235346303Y-10912652D01*
X235346303Y-10912652D02*
X235408207Y-10850747D01*
X235408207Y-10850747D02*
X235532017Y-10788842D01*
X235532017Y-10788842D02*
X235841541Y-10788842D01*
X235841541Y-10788842D02*
X235965350Y-10850747D01*
X235965350Y-10850747D02*
X236027255Y-10912652D01*
X236027255Y-10912652D02*
X236089160Y-11036461D01*
X236089160Y-11036461D02*
X236089160Y-11345985D01*
X236089160Y-11345985D02*
X236027255Y-11469795D01*
X236027255Y-11469795D02*
X235965350Y-11531700D01*
X235965350Y-11531700D02*
X235841541Y-11593604D01*
X235841541Y-11593604D02*
X235532017Y-11593604D01*
X235532017Y-11593604D02*
X235408207Y-11531700D01*
X235408207Y-11531700D02*
X235346303Y-11469795D01*
D10*
D11*
X285965350Y-10293604D02*
X285717731Y-10293604D01*
X285717731Y-10293604D02*
X285593922Y-10355509D01*
X285593922Y-10355509D02*
X285532017Y-10417414D01*
X285532017Y-10417414D02*
X285408207Y-10603128D01*
X285408207Y-10603128D02*
X285346303Y-10850747D01*
X285346303Y-10850747D02*
X285346303Y-11345985D01*
X285346303Y-11345985D02*
X285408207Y-11469795D01*
X285408207Y-11469795D02*
X285470112Y-11531700D01*
X285470112Y-11531700D02*
X285593922Y-11593604D01*
X285593922Y-11593604D02*
X285841541Y-11593604D01*
X285841541Y-11593604D02*
X285965350Y-11531700D01*
X285965350Y-11531700D02*
X286027255Y-11469795D01*
X286027255Y-11469795D02*
X286089160Y-11345985D01*
X286089160Y-11345985D02*
X286089160Y-11036461D01*
X286089160Y-11036461D02*
X286027255Y-10912652D01*
X286027255Y-10912652D02*
X285965350Y-10850747D01*
X285965350Y-10850747D02*
X285841541Y-10788842D01*
X285841541Y-10788842D02*
X285593922Y-10788842D01*
X285593922Y-10788842D02*
X285470112Y-10850747D01*
X285470112Y-10850747D02*
X285408207Y-10912652D01*
X285408207Y-10912652D02*
X285346303Y-11036461D01*
D10*
D11*
X60000000Y-198007200D02*
X60000000Y-200007200D01*
D10*
D11*
X110000000Y-198007200D02*
X110000000Y-200007200D01*
D10*
D11*
X160000000Y-198007200D02*
X160000000Y-200007200D01*
D10*
D11*
X210000000Y-198007200D02*
X210000000Y-200007200D01*
D10*
D11*
X260000000Y-198007200D02*
X260000000Y-200007200D01*
D10*
D11*
X36089160Y-199600804D02*
X35346303Y-199600804D01*
X35717731Y-199600804D02*
X35717731Y-198300804D01*
X35717731Y-198300804D02*
X35593922Y-198486519D01*
X35593922Y-198486519D02*
X35470112Y-198610328D01*
X35470112Y-198610328D02*
X35346303Y-198672233D01*
D10*
D11*
X85346303Y-198424614D02*
X85408207Y-198362709D01*
X85408207Y-198362709D02*
X85532017Y-198300804D01*
X85532017Y-198300804D02*
X85841541Y-198300804D01*
X85841541Y-198300804D02*
X85965350Y-198362709D01*
X85965350Y-198362709D02*
X86027255Y-198424614D01*
X86027255Y-198424614D02*
X86089160Y-198548423D01*
X86089160Y-198548423D02*
X86089160Y-198672233D01*
X86089160Y-198672233D02*
X86027255Y-198857947D01*
X86027255Y-198857947D02*
X85284398Y-199600804D01*
X85284398Y-199600804D02*
X86089160Y-199600804D01*
D10*
D11*
X135284398Y-198300804D02*
X136089160Y-198300804D01*
X136089160Y-198300804D02*
X135655826Y-198796042D01*
X135655826Y-198796042D02*
X135841541Y-198796042D01*
X135841541Y-198796042D02*
X135965350Y-198857947D01*
X135965350Y-198857947D02*
X136027255Y-198919852D01*
X136027255Y-198919852D02*
X136089160Y-199043661D01*
X136089160Y-199043661D02*
X136089160Y-199353185D01*
X136089160Y-199353185D02*
X136027255Y-199476995D01*
X136027255Y-199476995D02*
X135965350Y-199538900D01*
X135965350Y-199538900D02*
X135841541Y-199600804D01*
X135841541Y-199600804D02*
X135470112Y-199600804D01*
X135470112Y-199600804D02*
X135346303Y-199538900D01*
X135346303Y-199538900D02*
X135284398Y-199476995D01*
D10*
D11*
X185965350Y-198734138D02*
X185965350Y-199600804D01*
X185655826Y-198238900D02*
X185346303Y-199167471D01*
X185346303Y-199167471D02*
X186151064Y-199167471D01*
D10*
D11*
X236027255Y-198300804D02*
X235408207Y-198300804D01*
X235408207Y-198300804D02*
X235346303Y-198919852D01*
X235346303Y-198919852D02*
X235408207Y-198857947D01*
X235408207Y-198857947D02*
X235532017Y-198796042D01*
X235532017Y-198796042D02*
X235841541Y-198796042D01*
X235841541Y-198796042D02*
X235965350Y-198857947D01*
X235965350Y-198857947D02*
X236027255Y-198919852D01*
X236027255Y-198919852D02*
X236089160Y-199043661D01*
X236089160Y-199043661D02*
X236089160Y-199353185D01*
X236089160Y-199353185D02*
X236027255Y-199476995D01*
X236027255Y-199476995D02*
X235965350Y-199538900D01*
X235965350Y-199538900D02*
X235841541Y-199600804D01*
X235841541Y-199600804D02*
X235532017Y-199600804D01*
X235532017Y-199600804D02*
X235408207Y-199538900D01*
X235408207Y-199538900D02*
X235346303Y-199476995D01*
D10*
D11*
X285965350Y-198300804D02*
X285717731Y-198300804D01*
X285717731Y-198300804D02*
X285593922Y-198362709D01*
X285593922Y-198362709D02*
X285532017Y-198424614D01*
X285532017Y-198424614D02*
X285408207Y-198610328D01*
X285408207Y-198610328D02*
X285346303Y-198857947D01*
X285346303Y-198857947D02*
X285346303Y-199353185D01*
X285346303Y-199353185D02*
X285408207Y-199476995D01*
X285408207Y-199476995D02*
X285470112Y-199538900D01*
X285470112Y-199538900D02*
X285593922Y-199600804D01*
X285593922Y-199600804D02*
X285841541Y-199600804D01*
X285841541Y-199600804D02*
X285965350Y-199538900D01*
X285965350Y-199538900D02*
X286027255Y-199476995D01*
X286027255Y-199476995D02*
X286089160Y-199353185D01*
X286089160Y-199353185D02*
X286089160Y-199043661D01*
X286089160Y-199043661D02*
X286027255Y-198919852D01*
X286027255Y-198919852D02*
X285965350Y-198857947D01*
X285965350Y-198857947D02*
X285841541Y-198796042D01*
X285841541Y-198796042D02*
X285593922Y-198796042D01*
X285593922Y-198796042D02*
X285470112Y-198857947D01*
X285470112Y-198857947D02*
X285408207Y-198919852D01*
X285408207Y-198919852D02*
X285346303Y-199043661D01*
D10*
D11*
X10000000Y-60000000D02*
X12000000Y-60000000D01*
D10*
D11*
X10000000Y-110000000D02*
X12000000Y-110000000D01*
D10*
D11*
X10000000Y-160000000D02*
X12000000Y-160000000D01*
D10*
D11*
X10690476Y-35222176D02*
X11309523Y-35222176D01*
X10566666Y-35593604D02*
X10999999Y-34293604D01*
X10999999Y-34293604D02*
X11433333Y-35593604D01*
D10*
D11*
X11092857Y-84912652D02*
X11278571Y-84974557D01*
X11278571Y-84974557D02*
X11340476Y-85036461D01*
X11340476Y-85036461D02*
X11402380Y-85160271D01*
X11402380Y-85160271D02*
X11402380Y-85345985D01*
X11402380Y-85345985D02*
X11340476Y-85469795D01*
X11340476Y-85469795D02*
X11278571Y-85531700D01*
X11278571Y-85531700D02*
X11154761Y-85593604D01*
X11154761Y-85593604D02*
X10659523Y-85593604D01*
X10659523Y-85593604D02*
X10659523Y-84293604D01*
X10659523Y-84293604D02*
X11092857Y-84293604D01*
X11092857Y-84293604D02*
X11216666Y-84355509D01*
X11216666Y-84355509D02*
X11278571Y-84417414D01*
X11278571Y-84417414D02*
X11340476Y-84541223D01*
X11340476Y-84541223D02*
X11340476Y-84665033D01*
X11340476Y-84665033D02*
X11278571Y-84788842D01*
X11278571Y-84788842D02*
X11216666Y-84850747D01*
X11216666Y-84850747D02*
X11092857Y-84912652D01*
X11092857Y-84912652D02*
X10659523Y-84912652D01*
D10*
D11*
X11402380Y-135469795D02*
X11340476Y-135531700D01*
X11340476Y-135531700D02*
X11154761Y-135593604D01*
X11154761Y-135593604D02*
X11030952Y-135593604D01*
X11030952Y-135593604D02*
X10845238Y-135531700D01*
X10845238Y-135531700D02*
X10721428Y-135407890D01*
X10721428Y-135407890D02*
X10659523Y-135284080D01*
X10659523Y-135284080D02*
X10597619Y-135036461D01*
X10597619Y-135036461D02*
X10597619Y-134850747D01*
X10597619Y-134850747D02*
X10659523Y-134603128D01*
X10659523Y-134603128D02*
X10721428Y-134479319D01*
X10721428Y-134479319D02*
X10845238Y-134355509D01*
X10845238Y-134355509D02*
X11030952Y-134293604D01*
X11030952Y-134293604D02*
X11154761Y-134293604D01*
X11154761Y-134293604D02*
X11340476Y-134355509D01*
X11340476Y-134355509D02*
X11402380Y-134417414D01*
D10*
D11*
X10659523Y-185593604D02*
X10659523Y-184293604D01*
X10659523Y-184293604D02*
X10969047Y-184293604D01*
X10969047Y-184293604D02*
X11154761Y-184355509D01*
X11154761Y-184355509D02*
X11278571Y-184479319D01*
X11278571Y-184479319D02*
X11340476Y-184603128D01*
X11340476Y-184603128D02*
X11402380Y-184850747D01*
X11402380Y-184850747D02*
X11402380Y-185036461D01*
X11402380Y-185036461D02*
X11340476Y-185284080D01*
X11340476Y-185284080D02*
X11278571Y-185407890D01*
X11278571Y-185407890D02*
X11154761Y-185531700D01*
X11154761Y-185531700D02*
X10969047Y-185593604D01*
X10969047Y-185593604D02*
X10659523Y-185593604D01*
D10*
D11*
X287002200Y-60000000D02*
X285002200Y-60000000D01*
D10*
D11*
X287002200Y-110000000D02*
X285002200Y-110000000D01*
D10*
D11*
X287002200Y-160000000D02*
X285002200Y-160000000D01*
D10*
D11*
X285692676Y-35222176D02*
X286311723Y-35222176D01*
X285568866Y-35593604D02*
X286002199Y-34293604D01*
X286002199Y-34293604D02*
X286435533Y-35593604D01*
D10*
D11*
X286095057Y-84912652D02*
X286280771Y-84974557D01*
X286280771Y-84974557D02*
X286342676Y-85036461D01*
X286342676Y-85036461D02*
X286404580Y-85160271D01*
X286404580Y-85160271D02*
X286404580Y-85345985D01*
X286404580Y-85345985D02*
X286342676Y-85469795D01*
X286342676Y-85469795D02*
X286280771Y-85531700D01*
X286280771Y-85531700D02*
X286156961Y-85593604D01*
X286156961Y-85593604D02*
X285661723Y-85593604D01*
X285661723Y-85593604D02*
X285661723Y-84293604D01*
X285661723Y-84293604D02*
X286095057Y-84293604D01*
X286095057Y-84293604D02*
X286218866Y-84355509D01*
X286218866Y-84355509D02*
X286280771Y-84417414D01*
X286280771Y-84417414D02*
X286342676Y-84541223D01*
X286342676Y-84541223D02*
X286342676Y-84665033D01*
X286342676Y-84665033D02*
X286280771Y-84788842D01*
X286280771Y-84788842D02*
X286218866Y-84850747D01*
X286218866Y-84850747D02*
X286095057Y-84912652D01*
X286095057Y-84912652D02*
X285661723Y-84912652D01*
D10*
D11*
X286404580Y-135469795D02*
X286342676Y-135531700D01*
X286342676Y-135531700D02*
X286156961Y-135593604D01*
X286156961Y-135593604D02*
X286033152Y-135593604D01*
X286033152Y-135593604D02*
X285847438Y-135531700D01*
X285847438Y-135531700D02*
X285723628Y-135407890D01*
X285723628Y-135407890D02*
X285661723Y-135284080D01*
X285661723Y-135284080D02*
X285599819Y-135036461D01*
X285599819Y-135036461D02*
X285599819Y-134850747D01*
X285599819Y-134850747D02*
X285661723Y-134603128D01*
X285661723Y-134603128D02*
X285723628Y-134479319D01*
X285723628Y-134479319D02*
X285847438Y-134355509D01*
X285847438Y-134355509D02*
X286033152Y-134293604D01*
X286033152Y-134293604D02*
X286156961Y-134293604D01*
X286156961Y-134293604D02*
X286342676Y-134355509D01*
X286342676Y-134355509D02*
X286404580Y-134417414D01*
D10*
D11*
X285661723Y-185593604D02*
X285661723Y-184293604D01*
X285661723Y-184293604D02*
X285971247Y-184293604D01*
X285971247Y-184293604D02*
X286156961Y-184355509D01*
X286156961Y-184355509D02*
X286280771Y-184479319D01*
X286280771Y-184479319D02*
X286342676Y-184603128D01*
X286342676Y-184603128D02*
X286404580Y-184850747D01*
X286404580Y-184850747D02*
X286404580Y-185036461D01*
X286404580Y-185036461D02*
X286342676Y-185284080D01*
X286342676Y-185284080D02*
X286280771Y-185407890D01*
X286280771Y-185407890D02*
X286156961Y-185531700D01*
X286156961Y-185531700D02*
X285971247Y-185593604D01*
X285971247Y-185593604D02*
X285661723Y-185593604D01*
D10*
D11*
X200458026Y-193793328D02*
X200458026Y-192293328D01*
X200458026Y-192293328D02*
X200815169Y-192293328D01*
X200815169Y-192293328D02*
X201029455Y-192364757D01*
X201029455Y-192364757D02*
X201172312Y-192507614D01*
X201172312Y-192507614D02*
X201243741Y-192650471D01*
X201243741Y-192650471D02*
X201315169Y-192936185D01*
X201315169Y-192936185D02*
X201315169Y-193150471D01*
X201315169Y-193150471D02*
X201243741Y-193436185D01*
X201243741Y-193436185D02*
X201172312Y-193579042D01*
X201172312Y-193579042D02*
X201029455Y-193721900D01*
X201029455Y-193721900D02*
X200815169Y-193793328D01*
X200815169Y-193793328D02*
X200458026Y-193793328D01*
X202600884Y-193793328D02*
X202600884Y-193007614D01*
X202600884Y-193007614D02*
X202529455Y-192864757D01*
X202529455Y-192864757D02*
X202386598Y-192793328D01*
X202386598Y-192793328D02*
X202100884Y-192793328D01*
X202100884Y-192793328D02*
X201958026Y-192864757D01*
X202600884Y-193721900D02*
X202458026Y-193793328D01*
X202458026Y-193793328D02*
X202100884Y-193793328D01*
X202100884Y-193793328D02*
X201958026Y-193721900D01*
X201958026Y-193721900D02*
X201886598Y-193579042D01*
X201886598Y-193579042D02*
X201886598Y-193436185D01*
X201886598Y-193436185D02*
X201958026Y-193293328D01*
X201958026Y-193293328D02*
X202100884Y-193221900D01*
X202100884Y-193221900D02*
X202458026Y-193221900D01*
X202458026Y-193221900D02*
X202600884Y-193150471D01*
X203100884Y-192793328D02*
X203672312Y-192793328D01*
X203315169Y-192293328D02*
X203315169Y-193579042D01*
X203315169Y-193579042D02*
X203386598Y-193721900D01*
X203386598Y-193721900D02*
X203529455Y-193793328D01*
X203529455Y-193793328D02*
X203672312Y-193793328D01*
X204743741Y-193721900D02*
X204600884Y-193793328D01*
X204600884Y-193793328D02*
X204315170Y-193793328D01*
X204315170Y-193793328D02*
X204172312Y-193721900D01*
X204172312Y-193721900D02*
X204100884Y-193579042D01*
X204100884Y-193579042D02*
X204100884Y-193007614D01*
X204100884Y-193007614D02*
X204172312Y-192864757D01*
X204172312Y-192864757D02*
X204315170Y-192793328D01*
X204315170Y-192793328D02*
X204600884Y-192793328D01*
X204600884Y-192793328D02*
X204743741Y-192864757D01*
X204743741Y-192864757D02*
X204815170Y-193007614D01*
X204815170Y-193007614D02*
X204815170Y-193150471D01*
X204815170Y-193150471D02*
X204100884Y-193293328D01*
X205458026Y-193650471D02*
X205529455Y-193721900D01*
X205529455Y-193721900D02*
X205458026Y-193793328D01*
X205458026Y-193793328D02*
X205386598Y-193721900D01*
X205386598Y-193721900D02*
X205458026Y-193650471D01*
X205458026Y-193650471D02*
X205458026Y-193793328D01*
X205458026Y-192864757D02*
X205529455Y-192936185D01*
X205529455Y-192936185D02*
X205458026Y-193007614D01*
X205458026Y-193007614D02*
X205386598Y-192936185D01*
X205386598Y-192936185D02*
X205458026Y-192864757D01*
X205458026Y-192864757D02*
X205458026Y-193007614D01*
D10*
D11*
X177002200Y-194507200D02*
X285002200Y-194507200D01*
D10*
D11*
X178458026Y-196593328D02*
X178458026Y-195093328D01*
X179315169Y-196593328D02*
X178672312Y-195736185D01*
X179315169Y-195093328D02*
X178458026Y-195950471D01*
X179958026Y-196593328D02*
X179958026Y-195593328D01*
X179958026Y-195093328D02*
X179886598Y-195164757D01*
X179886598Y-195164757D02*
X179958026Y-195236185D01*
X179958026Y-195236185D02*
X180029455Y-195164757D01*
X180029455Y-195164757D02*
X179958026Y-195093328D01*
X179958026Y-195093328D02*
X179958026Y-195236185D01*
X181529455Y-196450471D02*
X181458027Y-196521900D01*
X181458027Y-196521900D02*
X181243741Y-196593328D01*
X181243741Y-196593328D02*
X181100884Y-196593328D01*
X181100884Y-196593328D02*
X180886598Y-196521900D01*
X180886598Y-196521900D02*
X180743741Y-196379042D01*
X180743741Y-196379042D02*
X180672312Y-196236185D01*
X180672312Y-196236185D02*
X180600884Y-195950471D01*
X180600884Y-195950471D02*
X180600884Y-195736185D01*
X180600884Y-195736185D02*
X180672312Y-195450471D01*
X180672312Y-195450471D02*
X180743741Y-195307614D01*
X180743741Y-195307614D02*
X180886598Y-195164757D01*
X180886598Y-195164757D02*
X181100884Y-195093328D01*
X181100884Y-195093328D02*
X181243741Y-195093328D01*
X181243741Y-195093328D02*
X181458027Y-195164757D01*
X181458027Y-195164757D02*
X181529455Y-195236185D01*
X182815170Y-196593328D02*
X182815170Y-195807614D01*
X182815170Y-195807614D02*
X182743741Y-195664757D01*
X182743741Y-195664757D02*
X182600884Y-195593328D01*
X182600884Y-195593328D02*
X182315170Y-195593328D01*
X182315170Y-195593328D02*
X182172312Y-195664757D01*
X182815170Y-196521900D02*
X182672312Y-196593328D01*
X182672312Y-196593328D02*
X182315170Y-196593328D01*
X182315170Y-196593328D02*
X182172312Y-196521900D01*
X182172312Y-196521900D02*
X182100884Y-196379042D01*
X182100884Y-196379042D02*
X182100884Y-196236185D01*
X182100884Y-196236185D02*
X182172312Y-196093328D01*
X182172312Y-196093328D02*
X182315170Y-196021900D01*
X182315170Y-196021900D02*
X182672312Y-196021900D01*
X182672312Y-196021900D02*
X182815170Y-195950471D01*
X184172313Y-196593328D02*
X184172313Y-195093328D01*
X184172313Y-196521900D02*
X184029455Y-196593328D01*
X184029455Y-196593328D02*
X183743741Y-196593328D01*
X183743741Y-196593328D02*
X183600884Y-196521900D01*
X183600884Y-196521900D02*
X183529455Y-196450471D01*
X183529455Y-196450471D02*
X183458027Y-196307614D01*
X183458027Y-196307614D02*
X183458027Y-195879042D01*
X183458027Y-195879042D02*
X183529455Y-195736185D01*
X183529455Y-195736185D02*
X183600884Y-195664757D01*
X183600884Y-195664757D02*
X183743741Y-195593328D01*
X183743741Y-195593328D02*
X184029455Y-195593328D01*
X184029455Y-195593328D02*
X184172313Y-195664757D01*
X186029455Y-195807614D02*
X186529455Y-195807614D01*
X186743741Y-196593328D02*
X186029455Y-196593328D01*
X186029455Y-196593328D02*
X186029455Y-195093328D01*
X186029455Y-195093328D02*
X186743741Y-195093328D01*
X187386598Y-196450471D02*
X187458027Y-196521900D01*
X187458027Y-196521900D02*
X187386598Y-196593328D01*
X187386598Y-196593328D02*
X187315170Y-196521900D01*
X187315170Y-196521900D02*
X187386598Y-196450471D01*
X187386598Y-196450471D02*
X187386598Y-196593328D01*
X188100884Y-196593328D02*
X188100884Y-195093328D01*
X188100884Y-195093328D02*
X188458027Y-195093328D01*
X188458027Y-195093328D02*
X188672313Y-195164757D01*
X188672313Y-195164757D02*
X188815170Y-195307614D01*
X188815170Y-195307614D02*
X188886599Y-195450471D01*
X188886599Y-195450471D02*
X188958027Y-195736185D01*
X188958027Y-195736185D02*
X188958027Y-195950471D01*
X188958027Y-195950471D02*
X188886599Y-196236185D01*
X188886599Y-196236185D02*
X188815170Y-196379042D01*
X188815170Y-196379042D02*
X188672313Y-196521900D01*
X188672313Y-196521900D02*
X188458027Y-196593328D01*
X188458027Y-196593328D02*
X188100884Y-196593328D01*
X189600884Y-196450471D02*
X189672313Y-196521900D01*
X189672313Y-196521900D02*
X189600884Y-196593328D01*
X189600884Y-196593328D02*
X189529456Y-196521900D01*
X189529456Y-196521900D02*
X189600884Y-196450471D01*
X189600884Y-196450471D02*
X189600884Y-196593328D01*
X190243742Y-196164757D02*
X190958028Y-196164757D01*
X190100885Y-196593328D02*
X190600885Y-195093328D01*
X190600885Y-195093328D02*
X191100885Y-196593328D01*
X191600884Y-196450471D02*
X191672313Y-196521900D01*
X191672313Y-196521900D02*
X191600884Y-196593328D01*
X191600884Y-196593328D02*
X191529456Y-196521900D01*
X191529456Y-196521900D02*
X191600884Y-196450471D01*
X191600884Y-196450471D02*
X191600884Y-196593328D01*
X193529456Y-196593328D02*
X193815170Y-196593328D01*
X193815170Y-196593328D02*
X193958027Y-196521900D01*
X193958027Y-196521900D02*
X194029456Y-196450471D01*
X194029456Y-196450471D02*
X194172313Y-196236185D01*
X194172313Y-196236185D02*
X194243742Y-195950471D01*
X194243742Y-195950471D02*
X194243742Y-195379042D01*
X194243742Y-195379042D02*
X194172313Y-195236185D01*
X194172313Y-195236185D02*
X194100885Y-195164757D01*
X194100885Y-195164757D02*
X193958027Y-195093328D01*
X193958027Y-195093328D02*
X193672313Y-195093328D01*
X193672313Y-195093328D02*
X193529456Y-195164757D01*
X193529456Y-195164757D02*
X193458027Y-195236185D01*
X193458027Y-195236185D02*
X193386599Y-195379042D01*
X193386599Y-195379042D02*
X193386599Y-195736185D01*
X193386599Y-195736185D02*
X193458027Y-195879042D01*
X193458027Y-195879042D02*
X193529456Y-195950471D01*
X193529456Y-195950471D02*
X193672313Y-196021900D01*
X193672313Y-196021900D02*
X193958027Y-196021900D01*
X193958027Y-196021900D02*
X194100885Y-195950471D01*
X194100885Y-195950471D02*
X194172313Y-195879042D01*
X194172313Y-195879042D02*
X194243742Y-195736185D01*
X194886598Y-196450471D02*
X194958027Y-196521900D01*
X194958027Y-196521900D02*
X194886598Y-196593328D01*
X194886598Y-196593328D02*
X194815170Y-196521900D01*
X194815170Y-196521900D02*
X194886598Y-196450471D01*
X194886598Y-196450471D02*
X194886598Y-196593328D01*
X195886599Y-195093328D02*
X196029456Y-195093328D01*
X196029456Y-195093328D02*
X196172313Y-195164757D01*
X196172313Y-195164757D02*
X196243742Y-195236185D01*
X196243742Y-195236185D02*
X196315170Y-195379042D01*
X196315170Y-195379042D02*
X196386599Y-195664757D01*
X196386599Y-195664757D02*
X196386599Y-196021900D01*
X196386599Y-196021900D02*
X196315170Y-196307614D01*
X196315170Y-196307614D02*
X196243742Y-196450471D01*
X196243742Y-196450471D02*
X196172313Y-196521900D01*
X196172313Y-196521900D02*
X196029456Y-196593328D01*
X196029456Y-196593328D02*
X195886599Y-196593328D01*
X195886599Y-196593328D02*
X195743742Y-196521900D01*
X195743742Y-196521900D02*
X195672313Y-196450471D01*
X195672313Y-196450471D02*
X195600884Y-196307614D01*
X195600884Y-196307614D02*
X195529456Y-196021900D01*
X195529456Y-196021900D02*
X195529456Y-195664757D01*
X195529456Y-195664757D02*
X195600884Y-195379042D01*
X195600884Y-195379042D02*
X195672313Y-195236185D01*
X195672313Y-195236185D02*
X195743742Y-195164757D01*
X195743742Y-195164757D02*
X195886599Y-195093328D01*
X197029455Y-196450471D02*
X197100884Y-196521900D01*
X197100884Y-196521900D02*
X197029455Y-196593328D01*
X197029455Y-196593328D02*
X196958027Y-196521900D01*
X196958027Y-196521900D02*
X197029455Y-196450471D01*
X197029455Y-196450471D02*
X197029455Y-196593328D01*
X198458027Y-195093328D02*
X197743741Y-195093328D01*
X197743741Y-195093328D02*
X197672313Y-195807614D01*
X197672313Y-195807614D02*
X197743741Y-195736185D01*
X197743741Y-195736185D02*
X197886599Y-195664757D01*
X197886599Y-195664757D02*
X198243741Y-195664757D01*
X198243741Y-195664757D02*
X198386599Y-195736185D01*
X198386599Y-195736185D02*
X198458027Y-195807614D01*
X198458027Y-195807614D02*
X198529456Y-195950471D01*
X198529456Y-195950471D02*
X198529456Y-196307614D01*
X198529456Y-196307614D02*
X198458027Y-196450471D01*
X198458027Y-196450471D02*
X198386599Y-196521900D01*
X198386599Y-196521900D02*
X198243741Y-196593328D01*
X198243741Y-196593328D02*
X197886599Y-196593328D01*
X197886599Y-196593328D02*
X197743741Y-196521900D01*
X197743741Y-196521900D02*
X197672313Y-196450471D01*
D10*
D11*
X177002200Y-191507200D02*
X285002200Y-191507200D01*
D10*
D12*
X264413853Y-193785528D02*
X263913853Y-193071242D01*
X263556710Y-193785528D02*
X263556710Y-192285528D01*
X263556710Y-192285528D02*
X264128139Y-192285528D01*
X264128139Y-192285528D02*
X264270996Y-192356957D01*
X264270996Y-192356957D02*
X264342425Y-192428385D01*
X264342425Y-192428385D02*
X264413853Y-192571242D01*
X264413853Y-192571242D02*
X264413853Y-192785528D01*
X264413853Y-192785528D02*
X264342425Y-192928385D01*
X264342425Y-192928385D02*
X264270996Y-192999814D01*
X264270996Y-192999814D02*
X264128139Y-193071242D01*
X264128139Y-193071242D02*
X263556710Y-193071242D01*
X265628139Y-193714100D02*
X265485282Y-193785528D01*
X265485282Y-193785528D02*
X265199568Y-193785528D01*
X265199568Y-193785528D02*
X265056710Y-193714100D01*
X265056710Y-193714100D02*
X264985282Y-193571242D01*
X264985282Y-193571242D02*
X264985282Y-192999814D01*
X264985282Y-192999814D02*
X265056710Y-192856957D01*
X265056710Y-192856957D02*
X265199568Y-192785528D01*
X265199568Y-192785528D02*
X265485282Y-192785528D01*
X265485282Y-192785528D02*
X265628139Y-192856957D01*
X265628139Y-192856957D02*
X265699568Y-192999814D01*
X265699568Y-192999814D02*
X265699568Y-193142671D01*
X265699568Y-193142671D02*
X264985282Y-193285528D01*
X266199567Y-192785528D02*
X266556710Y-193785528D01*
X266556710Y-193785528D02*
X266913853Y-192785528D01*
X267485281Y-193642671D02*
X267556710Y-193714100D01*
X267556710Y-193714100D02*
X267485281Y-193785528D01*
X267485281Y-193785528D02*
X267413853Y-193714100D01*
X267413853Y-193714100D02*
X267485281Y-193642671D01*
X267485281Y-193642671D02*
X267485281Y-193785528D01*
X267485281Y-192856957D02*
X267556710Y-192928385D01*
X267556710Y-192928385D02*
X267485281Y-192999814D01*
X267485281Y-192999814D02*
X267413853Y-192928385D01*
X267413853Y-192928385D02*
X267485281Y-192856957D01*
X267485281Y-192856957D02*
X267485281Y-192999814D01*
D10*
D11*
X178386598Y-193721900D02*
X178600884Y-193793328D01*
X178600884Y-193793328D02*
X178958026Y-193793328D01*
X178958026Y-193793328D02*
X179100884Y-193721900D01*
X179100884Y-193721900D02*
X179172312Y-193650471D01*
X179172312Y-193650471D02*
X179243741Y-193507614D01*
X179243741Y-193507614D02*
X179243741Y-193364757D01*
X179243741Y-193364757D02*
X179172312Y-193221900D01*
X179172312Y-193221900D02*
X179100884Y-193150471D01*
X179100884Y-193150471D02*
X178958026Y-193079042D01*
X178958026Y-193079042D02*
X178672312Y-193007614D01*
X178672312Y-193007614D02*
X178529455Y-192936185D01*
X178529455Y-192936185D02*
X178458026Y-192864757D01*
X178458026Y-192864757D02*
X178386598Y-192721900D01*
X178386598Y-192721900D02*
X178386598Y-192579042D01*
X178386598Y-192579042D02*
X178458026Y-192436185D01*
X178458026Y-192436185D02*
X178529455Y-192364757D01*
X178529455Y-192364757D02*
X178672312Y-192293328D01*
X178672312Y-192293328D02*
X179029455Y-192293328D01*
X179029455Y-192293328D02*
X179243741Y-192364757D01*
X179886597Y-193793328D02*
X179886597Y-192793328D01*
X179886597Y-192293328D02*
X179815169Y-192364757D01*
X179815169Y-192364757D02*
X179886597Y-192436185D01*
X179886597Y-192436185D02*
X179958026Y-192364757D01*
X179958026Y-192364757D02*
X179886597Y-192293328D01*
X179886597Y-192293328D02*
X179886597Y-192436185D01*
X180458026Y-192793328D02*
X181243741Y-192793328D01*
X181243741Y-192793328D02*
X180458026Y-193793328D01*
X180458026Y-193793328D02*
X181243741Y-193793328D01*
X182386598Y-193721900D02*
X182243741Y-193793328D01*
X182243741Y-193793328D02*
X181958027Y-193793328D01*
X181958027Y-193793328D02*
X181815169Y-193721900D01*
X181815169Y-193721900D02*
X181743741Y-193579042D01*
X181743741Y-193579042D02*
X181743741Y-193007614D01*
X181743741Y-193007614D02*
X181815169Y-192864757D01*
X181815169Y-192864757D02*
X181958027Y-192793328D01*
X181958027Y-192793328D02*
X182243741Y-192793328D01*
X182243741Y-192793328D02*
X182386598Y-192864757D01*
X182386598Y-192864757D02*
X182458027Y-193007614D01*
X182458027Y-193007614D02*
X182458027Y-193150471D01*
X182458027Y-193150471D02*
X181743741Y-193293328D01*
X183100883Y-193650471D02*
X183172312Y-193721900D01*
X183172312Y-193721900D02*
X183100883Y-193793328D01*
X183100883Y-193793328D02*
X183029455Y-193721900D01*
X183029455Y-193721900D02*
X183100883Y-193650471D01*
X183100883Y-193650471D02*
X183100883Y-193793328D01*
X183100883Y-192864757D02*
X183172312Y-192936185D01*
X183172312Y-192936185D02*
X183100883Y-193007614D01*
X183100883Y-193007614D02*
X183029455Y-192936185D01*
X183029455Y-192936185D02*
X183100883Y-192864757D01*
X183100883Y-192864757D02*
X183100883Y-193007614D01*
X184886598Y-193364757D02*
X185600884Y-193364757D01*
X184743741Y-193793328D02*
X185243741Y-192293328D01*
X185243741Y-192293328D02*
X185743741Y-193793328D01*
X186886598Y-192793328D02*
X186886598Y-193793328D01*
X186529455Y-192221900D02*
X186172312Y-193293328D01*
X186172312Y-193293328D02*
X187100883Y-193293328D01*
D10*
D11*
X263458026Y-196593328D02*
X263458026Y-195093328D01*
X264815170Y-196593328D02*
X264815170Y-195093328D01*
X264815170Y-196521900D02*
X264672312Y-196593328D01*
X264672312Y-196593328D02*
X264386598Y-196593328D01*
X264386598Y-196593328D02*
X264243741Y-196521900D01*
X264243741Y-196521900D02*
X264172312Y-196450471D01*
X264172312Y-196450471D02*
X264100884Y-196307614D01*
X264100884Y-196307614D02*
X264100884Y-195879042D01*
X264100884Y-195879042D02*
X264172312Y-195736185D01*
X264172312Y-195736185D02*
X264243741Y-195664757D01*
X264243741Y-195664757D02*
X264386598Y-195593328D01*
X264386598Y-195593328D02*
X264672312Y-195593328D01*
X264672312Y-195593328D02*
X264815170Y-195664757D01*
X265529455Y-196450471D02*
X265600884Y-196521900D01*
X265600884Y-196521900D02*
X265529455Y-196593328D01*
X265529455Y-196593328D02*
X265458027Y-196521900D01*
X265458027Y-196521900D02*
X265529455Y-196450471D01*
X265529455Y-196450471D02*
X265529455Y-196593328D01*
X265529455Y-195664757D02*
X265600884Y-195736185D01*
X265600884Y-195736185D02*
X265529455Y-195807614D01*
X265529455Y-195807614D02*
X265458027Y-195736185D01*
X265458027Y-195736185D02*
X265529455Y-195664757D01*
X265529455Y-195664757D02*
X265529455Y-195807614D01*
X267315170Y-195236185D02*
X267386598Y-195164757D01*
X267386598Y-195164757D02*
X267529456Y-195093328D01*
X267529456Y-195093328D02*
X267886598Y-195093328D01*
X267886598Y-195093328D02*
X268029456Y-195164757D01*
X268029456Y-195164757D02*
X268100884Y-195236185D01*
X268100884Y-195236185D02*
X268172313Y-195379042D01*
X268172313Y-195379042D02*
X268172313Y-195521900D01*
X268172313Y-195521900D02*
X268100884Y-195736185D01*
X268100884Y-195736185D02*
X267243741Y-196593328D01*
X267243741Y-196593328D02*
X268172313Y-196593328D01*
X269886598Y-195021900D02*
X268600884Y-196950471D01*
X271172313Y-196593328D02*
X270315170Y-196593328D01*
X270743741Y-196593328D02*
X270743741Y-195093328D01*
X270743741Y-195093328D02*
X270600884Y-195307614D01*
X270600884Y-195307614D02*
X270458027Y-195450471D01*
X270458027Y-195450471D02*
X270315170Y-195521900D01*
X272600884Y-196593328D02*
X271743741Y-196593328D01*
X272172312Y-196593328D02*
X272172312Y-195093328D01*
X272172312Y-195093328D02*
X272029455Y-195307614D01*
X272029455Y-195307614D02*
X271886598Y-195450471D01*
X271886598Y-195450471D02*
X271743741Y-195521900D01*
D10*
D11*
X177002200Y-187507200D02*
X285002200Y-187507200D01*
D10*
D13*
X178693928Y-188211638D02*
X179836785Y-188211638D01*
X179015357Y-190211638D02*
X179265357Y-188211638D01*
X180253452Y-190211638D02*
X180420119Y-188878304D01*
X180503452Y-188211638D02*
X180396309Y-188306876D01*
X180396309Y-188306876D02*
X180479643Y-188402114D01*
X180479643Y-188402114D02*
X180586786Y-188306876D01*
X180586786Y-188306876D02*
X180503452Y-188211638D01*
X180503452Y-188211638D02*
X180479643Y-188402114D01*
X181086786Y-188878304D02*
X181848690Y-188878304D01*
X181455833Y-188211638D02*
X181241548Y-189925923D01*
X181241548Y-189925923D02*
X181312976Y-190116400D01*
X181312976Y-190116400D02*
X181491548Y-190211638D01*
X181491548Y-190211638D02*
X181682024Y-190211638D01*
X182634405Y-190211638D02*
X182455833Y-190116400D01*
X182455833Y-190116400D02*
X182384405Y-189925923D01*
X182384405Y-189925923D02*
X182598690Y-188211638D01*
X184170119Y-190116400D02*
X183967738Y-190211638D01*
X183967738Y-190211638D02*
X183586785Y-190211638D01*
X183586785Y-190211638D02*
X183408214Y-190116400D01*
X183408214Y-190116400D02*
X183336785Y-189925923D01*
X183336785Y-189925923D02*
X183432024Y-189164019D01*
X183432024Y-189164019D02*
X183551071Y-188973542D01*
X183551071Y-188973542D02*
X183753452Y-188878304D01*
X183753452Y-188878304D02*
X184134404Y-188878304D01*
X184134404Y-188878304D02*
X184312976Y-188973542D01*
X184312976Y-188973542D02*
X184384404Y-189164019D01*
X184384404Y-189164019D02*
X184360595Y-189354495D01*
X184360595Y-189354495D02*
X183384404Y-189544971D01*
X185134405Y-190021161D02*
X185217738Y-190116400D01*
X185217738Y-190116400D02*
X185110595Y-190211638D01*
X185110595Y-190211638D02*
X185027262Y-190116400D01*
X185027262Y-190116400D02*
X185134405Y-190021161D01*
X185134405Y-190021161D02*
X185110595Y-190211638D01*
X185265357Y-188973542D02*
X185348690Y-189068780D01*
X185348690Y-189068780D02*
X185241548Y-189164019D01*
X185241548Y-189164019D02*
X185158214Y-189068780D01*
X185158214Y-189068780D02*
X185265357Y-188973542D01*
X185265357Y-188973542D02*
X185241548Y-189164019D01*
D10*
D11*
X178958026Y-185607614D02*
X178458026Y-185607614D01*
X178458026Y-186393328D02*
X178458026Y-184893328D01*
X178458026Y-184893328D02*
X179172312Y-184893328D01*
X179743740Y-186393328D02*
X179743740Y-185393328D01*
X179743740Y-184893328D02*
X179672312Y-184964757D01*
X179672312Y-184964757D02*
X179743740Y-185036185D01*
X179743740Y-185036185D02*
X179815169Y-184964757D01*
X179815169Y-184964757D02*
X179743740Y-184893328D01*
X179743740Y-184893328D02*
X179743740Y-185036185D01*
X180672312Y-186393328D02*
X180529455Y-186321900D01*
X180529455Y-186321900D02*
X180458026Y-186179042D01*
X180458026Y-186179042D02*
X180458026Y-184893328D01*
X181815169Y-186321900D02*
X181672312Y-186393328D01*
X181672312Y-186393328D02*
X181386598Y-186393328D01*
X181386598Y-186393328D02*
X181243740Y-186321900D01*
X181243740Y-186321900D02*
X181172312Y-186179042D01*
X181172312Y-186179042D02*
X181172312Y-185607614D01*
X181172312Y-185607614D02*
X181243740Y-185464757D01*
X181243740Y-185464757D02*
X181386598Y-185393328D01*
X181386598Y-185393328D02*
X181672312Y-185393328D01*
X181672312Y-185393328D02*
X181815169Y-185464757D01*
X181815169Y-185464757D02*
X181886598Y-185607614D01*
X181886598Y-185607614D02*
X181886598Y-185750471D01*
X181886598Y-185750471D02*
X181172312Y-185893328D01*
X182529454Y-186250471D02*
X182600883Y-186321900D01*
X182600883Y-186321900D02*
X182529454Y-186393328D01*
X182529454Y-186393328D02*
X182458026Y-186321900D01*
X182458026Y-186321900D02*
X182529454Y-186250471D01*
X182529454Y-186250471D02*
X182529454Y-186393328D01*
X182529454Y-185464757D02*
X182600883Y-185536185D01*
X182600883Y-185536185D02*
X182529454Y-185607614D01*
X182529454Y-185607614D02*
X182458026Y-185536185D01*
X182458026Y-185536185D02*
X182529454Y-185464757D01*
X182529454Y-185464757D02*
X182529454Y-185607614D01*
X185100883Y-186393328D02*
X184386597Y-186393328D01*
X184386597Y-186393328D02*
X184386597Y-184893328D01*
X185815169Y-186393328D02*
X185672312Y-186321900D01*
X185672312Y-186321900D02*
X185600883Y-186250471D01*
X185600883Y-186250471D02*
X185529455Y-186107614D01*
X185529455Y-186107614D02*
X185529455Y-185679042D01*
X185529455Y-185679042D02*
X185600883Y-185536185D01*
X185600883Y-185536185D02*
X185672312Y-185464757D01*
X185672312Y-185464757D02*
X185815169Y-185393328D01*
X185815169Y-185393328D02*
X186029455Y-185393328D01*
X186029455Y-185393328D02*
X186172312Y-185464757D01*
X186172312Y-185464757D02*
X186243741Y-185536185D01*
X186243741Y-185536185D02*
X186315169Y-185679042D01*
X186315169Y-185679042D02*
X186315169Y-186107614D01*
X186315169Y-186107614D02*
X186243741Y-186250471D01*
X186243741Y-186250471D02*
X186172312Y-186321900D01*
X186172312Y-186321900D02*
X186029455Y-186393328D01*
X186029455Y-186393328D02*
X185815169Y-186393328D01*
X187600884Y-185393328D02*
X187600884Y-186607614D01*
X187600884Y-186607614D02*
X187529455Y-186750471D01*
X187529455Y-186750471D02*
X187458026Y-186821900D01*
X187458026Y-186821900D02*
X187315169Y-186893328D01*
X187315169Y-186893328D02*
X187100884Y-186893328D01*
X187100884Y-186893328D02*
X186958026Y-186821900D01*
X187600884Y-186321900D02*
X187458026Y-186393328D01*
X187458026Y-186393328D02*
X187172312Y-186393328D01*
X187172312Y-186393328D02*
X187029455Y-186321900D01*
X187029455Y-186321900D02*
X186958026Y-186250471D01*
X186958026Y-186250471D02*
X186886598Y-186107614D01*
X186886598Y-186107614D02*
X186886598Y-185679042D01*
X186886598Y-185679042D02*
X186958026Y-185536185D01*
X186958026Y-185536185D02*
X187029455Y-185464757D01*
X187029455Y-185464757D02*
X187172312Y-185393328D01*
X187172312Y-185393328D02*
X187458026Y-185393328D01*
X187458026Y-185393328D02*
X187600884Y-185464757D01*
X188958027Y-185393328D02*
X188958027Y-186607614D01*
X188958027Y-186607614D02*
X188886598Y-186750471D01*
X188886598Y-186750471D02*
X188815169Y-186821900D01*
X188815169Y-186821900D02*
X188672312Y-186893328D01*
X188672312Y-186893328D02*
X188458027Y-186893328D01*
X188458027Y-186893328D02*
X188315169Y-186821900D01*
X188958027Y-186321900D02*
X188815169Y-186393328D01*
X188815169Y-186393328D02*
X188529455Y-186393328D01*
X188529455Y-186393328D02*
X188386598Y-186321900D01*
X188386598Y-186321900D02*
X188315169Y-186250471D01*
X188315169Y-186250471D02*
X188243741Y-186107614D01*
X188243741Y-186107614D02*
X188243741Y-185679042D01*
X188243741Y-185679042D02*
X188315169Y-185536185D01*
X188315169Y-185536185D02*
X188386598Y-185464757D01*
X188386598Y-185464757D02*
X188529455Y-185393328D01*
X188529455Y-185393328D02*
X188815169Y-185393328D01*
X188815169Y-185393328D02*
X188958027Y-185464757D01*
X190243741Y-186321900D02*
X190100884Y-186393328D01*
X190100884Y-186393328D02*
X189815170Y-186393328D01*
X189815170Y-186393328D02*
X189672312Y-186321900D01*
X189672312Y-186321900D02*
X189600884Y-186179042D01*
X189600884Y-186179042D02*
X189600884Y-185607614D01*
X189600884Y-185607614D02*
X189672312Y-185464757D01*
X189672312Y-185464757D02*
X189815170Y-185393328D01*
X189815170Y-185393328D02*
X190100884Y-185393328D01*
X190100884Y-185393328D02*
X190243741Y-185464757D01*
X190243741Y-185464757D02*
X190315170Y-185607614D01*
X190315170Y-185607614D02*
X190315170Y-185750471D01*
X190315170Y-185750471D02*
X189600884Y-185893328D01*
X190958026Y-186393328D02*
X190958026Y-185393328D01*
X190958026Y-185679042D02*
X191029455Y-185536185D01*
X191029455Y-185536185D02*
X191100884Y-185464757D01*
X191100884Y-185464757D02*
X191243741Y-185393328D01*
X191243741Y-185393328D02*
X191386598Y-185393328D01*
X191529455Y-186536185D02*
X192672312Y-186536185D01*
X193029454Y-186393328D02*
X193029454Y-184893328D01*
X193029454Y-184893328D02*
X193386597Y-184893328D01*
X193386597Y-184893328D02*
X193600883Y-184964757D01*
X193600883Y-184964757D02*
X193743740Y-185107614D01*
X193743740Y-185107614D02*
X193815169Y-185250471D01*
X193815169Y-185250471D02*
X193886597Y-185536185D01*
X193886597Y-185536185D02*
X193886597Y-185750471D01*
X193886597Y-185750471D02*
X193815169Y-186036185D01*
X193815169Y-186036185D02*
X193743740Y-186179042D01*
X193743740Y-186179042D02*
X193600883Y-186321900D01*
X193600883Y-186321900D02*
X193386597Y-186393328D01*
X193386597Y-186393328D02*
X193029454Y-186393328D01*
X195100883Y-186321900D02*
X194958026Y-186393328D01*
X194958026Y-186393328D02*
X194672312Y-186393328D01*
X194672312Y-186393328D02*
X194529454Y-186321900D01*
X194529454Y-186321900D02*
X194458026Y-186179042D01*
X194458026Y-186179042D02*
X194458026Y-185607614D01*
X194458026Y-185607614D02*
X194529454Y-185464757D01*
X194529454Y-185464757D02*
X194672312Y-185393328D01*
X194672312Y-185393328D02*
X194958026Y-185393328D01*
X194958026Y-185393328D02*
X195100883Y-185464757D01*
X195100883Y-185464757D02*
X195172312Y-185607614D01*
X195172312Y-185607614D02*
X195172312Y-185750471D01*
X195172312Y-185750471D02*
X194458026Y-185893328D01*
X195672311Y-185393328D02*
X196029454Y-186393328D01*
X196029454Y-186393328D02*
X196386597Y-185393328D01*
X196600883Y-186536185D02*
X197743740Y-186536185D01*
X198386597Y-184893328D02*
X198529454Y-184893328D01*
X198529454Y-184893328D02*
X198672311Y-184964757D01*
X198672311Y-184964757D02*
X198743740Y-185036185D01*
X198743740Y-185036185D02*
X198815168Y-185179042D01*
X198815168Y-185179042D02*
X198886597Y-185464757D01*
X198886597Y-185464757D02*
X198886597Y-185821900D01*
X198886597Y-185821900D02*
X198815168Y-186107614D01*
X198815168Y-186107614D02*
X198743740Y-186250471D01*
X198743740Y-186250471D02*
X198672311Y-186321900D01*
X198672311Y-186321900D02*
X198529454Y-186393328D01*
X198529454Y-186393328D02*
X198386597Y-186393328D01*
X198386597Y-186393328D02*
X198243740Y-186321900D01*
X198243740Y-186321900D02*
X198172311Y-186250471D01*
X198172311Y-186250471D02*
X198100882Y-186107614D01*
X198100882Y-186107614D02*
X198029454Y-185821900D01*
X198029454Y-185821900D02*
X198029454Y-185464757D01*
X198029454Y-185464757D02*
X198100882Y-185179042D01*
X198100882Y-185179042D02*
X198172311Y-185036185D01*
X198172311Y-185036185D02*
X198243740Y-184964757D01*
X198243740Y-184964757D02*
X198386597Y-184893328D01*
X199815168Y-184893328D02*
X199958025Y-184893328D01*
X199958025Y-184893328D02*
X200100882Y-184964757D01*
X200100882Y-184964757D02*
X200172311Y-185036185D01*
X200172311Y-185036185D02*
X200243739Y-185179042D01*
X200243739Y-185179042D02*
X200315168Y-185464757D01*
X200315168Y-185464757D02*
X200315168Y-185821900D01*
X200315168Y-185821900D02*
X200243739Y-186107614D01*
X200243739Y-186107614D02*
X200172311Y-186250471D01*
X200172311Y-186250471D02*
X200100882Y-186321900D01*
X200100882Y-186321900D02*
X199958025Y-186393328D01*
X199958025Y-186393328D02*
X199815168Y-186393328D01*
X199815168Y-186393328D02*
X199672311Y-186321900D01*
X199672311Y-186321900D02*
X199600882Y-186250471D01*
X199600882Y-186250471D02*
X199529453Y-186107614D01*
X199529453Y-186107614D02*
X199458025Y-185821900D01*
X199458025Y-185821900D02*
X199458025Y-185464757D01*
X199458025Y-185464757D02*
X199529453Y-185179042D01*
X199529453Y-185179042D02*
X199600882Y-185036185D01*
X199600882Y-185036185D02*
X199672311Y-184964757D01*
X199672311Y-184964757D02*
X199815168Y-184893328D01*
X201743739Y-186393328D02*
X200886596Y-186393328D01*
X201315167Y-186393328D02*
X201315167Y-184893328D01*
X201315167Y-184893328D02*
X201172310Y-185107614D01*
X201172310Y-185107614D02*
X201029453Y-185250471D01*
X201029453Y-185250471D02*
X200886596Y-185321900D01*
X202386595Y-186250471D02*
X202458024Y-186321900D01*
X202458024Y-186321900D02*
X202386595Y-186393328D01*
X202386595Y-186393328D02*
X202315167Y-186321900D01*
X202315167Y-186321900D02*
X202386595Y-186250471D01*
X202386595Y-186250471D02*
X202386595Y-186393328D01*
X203100881Y-186393328D02*
X203100881Y-184893328D01*
X203243739Y-185821900D02*
X203672310Y-186393328D01*
X203672310Y-185393328D02*
X203100881Y-185964757D01*
X204315167Y-186393328D02*
X204315167Y-185393328D01*
X204315167Y-184893328D02*
X204243739Y-184964757D01*
X204243739Y-184964757D02*
X204315167Y-185036185D01*
X204315167Y-185036185D02*
X204386596Y-184964757D01*
X204386596Y-184964757D02*
X204315167Y-184893328D01*
X204315167Y-184893328D02*
X204315167Y-185036185D01*
X205672311Y-186321900D02*
X205529453Y-186393328D01*
X205529453Y-186393328D02*
X205243739Y-186393328D01*
X205243739Y-186393328D02*
X205100882Y-186321900D01*
X205100882Y-186321900D02*
X205029453Y-186250471D01*
X205029453Y-186250471D02*
X204958025Y-186107614D01*
X204958025Y-186107614D02*
X204958025Y-185679042D01*
X204958025Y-185679042D02*
X205029453Y-185536185D01*
X205029453Y-185536185D02*
X205100882Y-185464757D01*
X205100882Y-185464757D02*
X205243739Y-185393328D01*
X205243739Y-185393328D02*
X205529453Y-185393328D01*
X205529453Y-185393328D02*
X205672311Y-185464757D01*
X206958025Y-186393328D02*
X206958025Y-185607614D01*
X206958025Y-185607614D02*
X206886596Y-185464757D01*
X206886596Y-185464757D02*
X206743739Y-185393328D01*
X206743739Y-185393328D02*
X206458025Y-185393328D01*
X206458025Y-185393328D02*
X206315167Y-185464757D01*
X206958025Y-186321900D02*
X206815167Y-186393328D01*
X206815167Y-186393328D02*
X206458025Y-186393328D01*
X206458025Y-186393328D02*
X206315167Y-186321900D01*
X206315167Y-186321900D02*
X206243739Y-186179042D01*
X206243739Y-186179042D02*
X206243739Y-186036185D01*
X206243739Y-186036185D02*
X206315167Y-185893328D01*
X206315167Y-185893328D02*
X206458025Y-185821900D01*
X206458025Y-185821900D02*
X206815167Y-185821900D01*
X206815167Y-185821900D02*
X206958025Y-185750471D01*
X208315168Y-186393328D02*
X208315168Y-184893328D01*
X208315168Y-186321900D02*
X208172310Y-186393328D01*
X208172310Y-186393328D02*
X207886596Y-186393328D01*
X207886596Y-186393328D02*
X207743739Y-186321900D01*
X207743739Y-186321900D02*
X207672310Y-186250471D01*
X207672310Y-186250471D02*
X207600882Y-186107614D01*
X207600882Y-186107614D02*
X207600882Y-185679042D01*
X207600882Y-185679042D02*
X207672310Y-185536185D01*
X207672310Y-185536185D02*
X207743739Y-185464757D01*
X207743739Y-185464757D02*
X207886596Y-185393328D01*
X207886596Y-185393328D02*
X208172310Y-185393328D01*
X208172310Y-185393328D02*
X208315168Y-185464757D01*
X208672311Y-186536185D02*
X209815168Y-186536185D01*
X210172310Y-185393328D02*
X210172310Y-186893328D01*
X210172310Y-185464757D02*
X210315168Y-185393328D01*
X210315168Y-185393328D02*
X210600882Y-185393328D01*
X210600882Y-185393328D02*
X210743739Y-185464757D01*
X210743739Y-185464757D02*
X210815168Y-185536185D01*
X210815168Y-185536185D02*
X210886596Y-185679042D01*
X210886596Y-185679042D02*
X210886596Y-186107614D01*
X210886596Y-186107614D02*
X210815168Y-186250471D01*
X210815168Y-186250471D02*
X210743739Y-186321900D01*
X210743739Y-186321900D02*
X210600882Y-186393328D01*
X210600882Y-186393328D02*
X210315168Y-186393328D01*
X210315168Y-186393328D02*
X210172310Y-186321900D01*
X212172311Y-186321900D02*
X212029453Y-186393328D01*
X212029453Y-186393328D02*
X211743739Y-186393328D01*
X211743739Y-186393328D02*
X211600882Y-186321900D01*
X211600882Y-186321900D02*
X211529453Y-186250471D01*
X211529453Y-186250471D02*
X211458025Y-186107614D01*
X211458025Y-186107614D02*
X211458025Y-185679042D01*
X211458025Y-185679042D02*
X211529453Y-185536185D01*
X211529453Y-185536185D02*
X211600882Y-185464757D01*
X211600882Y-185464757D02*
X211743739Y-185393328D01*
X211743739Y-185393328D02*
X212029453Y-185393328D01*
X212029453Y-185393328D02*
X212172311Y-185464757D01*
X212815167Y-186393328D02*
X212815167Y-184893328D01*
X212815167Y-185464757D02*
X212958025Y-185393328D01*
X212958025Y-185393328D02*
X213243739Y-185393328D01*
X213243739Y-185393328D02*
X213386596Y-185464757D01*
X213386596Y-185464757D02*
X213458025Y-185536185D01*
X213458025Y-185536185D02*
X213529453Y-185679042D01*
X213529453Y-185679042D02*
X213529453Y-186107614D01*
X213529453Y-186107614D02*
X213458025Y-186250471D01*
X213458025Y-186250471D02*
X213386596Y-186321900D01*
X213386596Y-186321900D02*
X213243739Y-186393328D01*
X213243739Y-186393328D02*
X212958025Y-186393328D01*
X212958025Y-186393328D02*
X212815167Y-186321900D01*
D10*
D11*
X177002200Y-181507200D02*
X285002200Y-181507200D01*
D10*
D11*
X178386598Y-183621900D02*
X178600884Y-183693328D01*
X178600884Y-183693328D02*
X178958026Y-183693328D01*
X178958026Y-183693328D02*
X179100884Y-183621900D01*
X179100884Y-183621900D02*
X179172312Y-183550471D01*
X179172312Y-183550471D02*
X179243741Y-183407614D01*
X179243741Y-183407614D02*
X179243741Y-183264757D01*
X179243741Y-183264757D02*
X179172312Y-183121900D01*
X179172312Y-183121900D02*
X179100884Y-183050471D01*
X179100884Y-183050471D02*
X178958026Y-182979042D01*
X178958026Y-182979042D02*
X178672312Y-182907614D01*
X178672312Y-182907614D02*
X178529455Y-182836185D01*
X178529455Y-182836185D02*
X178458026Y-182764757D01*
X178458026Y-182764757D02*
X178386598Y-182621900D01*
X178386598Y-182621900D02*
X178386598Y-182479042D01*
X178386598Y-182479042D02*
X178458026Y-182336185D01*
X178458026Y-182336185D02*
X178529455Y-182264757D01*
X178529455Y-182264757D02*
X178672312Y-182193328D01*
X178672312Y-182193328D02*
X179029455Y-182193328D01*
X179029455Y-182193328D02*
X179243741Y-182264757D01*
X179886597Y-183693328D02*
X179886597Y-182193328D01*
X180529455Y-183693328D02*
X180529455Y-182907614D01*
X180529455Y-182907614D02*
X180458026Y-182764757D01*
X180458026Y-182764757D02*
X180315169Y-182693328D01*
X180315169Y-182693328D02*
X180100883Y-182693328D01*
X180100883Y-182693328D02*
X179958026Y-182764757D01*
X179958026Y-182764757D02*
X179886597Y-182836185D01*
X181815169Y-183621900D02*
X181672312Y-183693328D01*
X181672312Y-183693328D02*
X181386598Y-183693328D01*
X181386598Y-183693328D02*
X181243740Y-183621900D01*
X181243740Y-183621900D02*
X181172312Y-183479042D01*
X181172312Y-183479042D02*
X181172312Y-182907614D01*
X181172312Y-182907614D02*
X181243740Y-182764757D01*
X181243740Y-182764757D02*
X181386598Y-182693328D01*
X181386598Y-182693328D02*
X181672312Y-182693328D01*
X181672312Y-182693328D02*
X181815169Y-182764757D01*
X181815169Y-182764757D02*
X181886598Y-182907614D01*
X181886598Y-182907614D02*
X181886598Y-183050471D01*
X181886598Y-183050471D02*
X181172312Y-183193328D01*
X183100883Y-183621900D02*
X182958026Y-183693328D01*
X182958026Y-183693328D02*
X182672312Y-183693328D01*
X182672312Y-183693328D02*
X182529454Y-183621900D01*
X182529454Y-183621900D02*
X182458026Y-183479042D01*
X182458026Y-183479042D02*
X182458026Y-182907614D01*
X182458026Y-182907614D02*
X182529454Y-182764757D01*
X182529454Y-182764757D02*
X182672312Y-182693328D01*
X182672312Y-182693328D02*
X182958026Y-182693328D01*
X182958026Y-182693328D02*
X183100883Y-182764757D01*
X183100883Y-182764757D02*
X183172312Y-182907614D01*
X183172312Y-182907614D02*
X183172312Y-183050471D01*
X183172312Y-183050471D02*
X182458026Y-183193328D01*
X183600883Y-182693328D02*
X184172311Y-182693328D01*
X183815168Y-182193328D02*
X183815168Y-183479042D01*
X183815168Y-183479042D02*
X183886597Y-183621900D01*
X183886597Y-183621900D02*
X184029454Y-183693328D01*
X184029454Y-183693328D02*
X184172311Y-183693328D01*
X184672311Y-183550471D02*
X184743740Y-183621900D01*
X184743740Y-183621900D02*
X184672311Y-183693328D01*
X184672311Y-183693328D02*
X184600883Y-183621900D01*
X184600883Y-183621900D02*
X184672311Y-183550471D01*
X184672311Y-183550471D02*
X184672311Y-183693328D01*
X184672311Y-182764757D02*
X184743740Y-182836185D01*
X184743740Y-182836185D02*
X184672311Y-182907614D01*
X184672311Y-182907614D02*
X184600883Y-182836185D01*
X184600883Y-182836185D02*
X184672311Y-182764757D01*
X184672311Y-182764757D02*
X184672311Y-182907614D01*
D10*
D11*
X197002200Y-191507200D02*
X197002200Y-194507200D01*
D10*
D11*
X261002200Y-191507200D02*
X261002200Y-198007200D01*
D14*
%TO.N,GND*%
%TO.C,U6*%
X145500000Y-120800000D03*
X145500000Y-121800000D03*
X145500000Y-122800000D03*
X146500000Y-120800000D03*
X146500000Y-121800000D03*
X146500000Y-122800000D03*
X147500000Y-120800000D03*
X147500000Y-121800000D03*
X147500000Y-122800000D03*
%TD*%
D15*
%TO.N,RF_GND*%
%TO.C,J4*%
X142020000Y-132830000D03*
D16*
X142020000Y-137030000D03*
D17*
X144350000Y-135650000D03*
X144350000Y-137650000D03*
X148350000Y-135650000D03*
X148350000Y-137650000D03*
D15*
X150680000Y-132830000D03*
D16*
X150680000Y-137030000D03*
%TD*%
D18*
%TO.N,GND*%
%TO.C,J1*%
X157235000Y-73860000D03*
X157235000Y-78940000D03*
X162315000Y-73860000D03*
X162315000Y-78940000D03*
%TD*%
D17*
%TO.N,Net-(C1-Pad1)*%
%TO.C,U5*%
X131700000Y-124815000D03*
X130700000Y-124815000D03*
X129700000Y-124815000D03*
%TD*%
D19*
%TO.N,GND*%
X151263955Y-122921314D03*
X150725000Y-124075000D03*
X149700000Y-125100000D03*
X146200000Y-116225000D03*
X144745922Y-117140000D03*
X147750000Y-117750000D03*
X149001201Y-118001233D03*
X149603092Y-118646908D03*
X143850000Y-124125000D03*
D20*
%TO.N,/USB C COMs 3v3 Power Input Module/USB_D-*%
X145806329Y-117256349D03*
%TO.N,/USB C COMs 3v3 Power Input Module/USB_D+*%
X146826416Y-125261728D03*
%TO.N,/USB C COMs 3v3 Power Input Module/USB_D-*%
X145881089Y-125256785D03*
D19*
%TO.N,GND*%
X159780000Y-85600000D03*
X160850000Y-85600000D03*
X158640000Y-85600000D03*
X157530000Y-85600000D03*
X156440000Y-85600000D03*
X155370000Y-85600000D03*
X153120000Y-85600000D03*
X154230000Y-85600000D03*
X151900000Y-85600000D03*
X166330000Y-129410000D03*
X162300000Y-83700000D03*
X149800000Y-129400000D03*
X150890000Y-83640000D03*
X153900000Y-80500000D03*
X148300000Y-125350000D03*
X160500000Y-80200000D03*
X147600000Y-127630000D03*
X161880000Y-85060000D03*
X147580000Y-126200000D03*
X148020000Y-128410000D03*
X126070000Y-99720000D03*
X137710000Y-101140000D03*
X149080000Y-79430000D03*
X135100000Y-118700000D03*
X131140000Y-119650000D03*
X144800000Y-125400000D03*
X123520000Y-117040000D03*
X144890000Y-79910000D03*
X147900000Y-99400000D03*
X150240000Y-131320000D03*
X147600000Y-130600000D03*
X160600000Y-82100000D03*
X159380000Y-129620000D03*
X158000000Y-75800000D03*
X151380000Y-82630000D03*
X126200000Y-79790000D03*
X161600000Y-76900000D03*
X145170000Y-126310000D03*
X160300000Y-74600000D03*
X144820000Y-128410000D03*
X150900000Y-84800000D03*
X145180000Y-127630000D03*
X161600000Y-75870000D03*
X160500000Y-81100000D03*
X159000000Y-78300000D03*
X149260000Y-107070000D03*
X143230000Y-128820000D03*
X126850000Y-132070000D03*
X138030000Y-129750000D03*
X137760000Y-82970000D03*
X126270000Y-131490000D03*
X152490000Y-82570000D03*
X154900000Y-80200000D03*
X159053051Y-82588630D03*
X145300000Y-130540000D03*
X160500000Y-79200000D03*
X135320000Y-82970000D03*
X155160000Y-95630000D03*
X153600000Y-81500000D03*
X159000000Y-80200000D03*
X166120000Y-83760000D03*
X153830000Y-82480000D03*
X160500000Y-78300000D03*
X142775912Y-130554088D03*
X162000000Y-82500000D03*
X136560000Y-82970000D03*
X159000000Y-79200000D03*
X151880000Y-91500000D03*
X131300000Y-79970000D03*
X159200000Y-74600000D03*
X149300000Y-128400000D03*
X149120000Y-112420000D03*
X142600000Y-117490000D03*
X158000000Y-76900000D03*
X134930000Y-129160000D03*
%TO.N,VUSB*%
X135830000Y-133140000D03*
X141650000Y-124670000D03*
X136040000Y-135000000D03*
D20*
%TO.N,/EN*%
X141260000Y-116350000D03*
X124280000Y-85760000D03*
%TO.N,/GPIO9_BOOT*%
X145190000Y-96520000D03*
X126230000Y-90450000D03*
%TO.N,/BTN_FUNCTION*%
X143270000Y-87280000D03*
D19*
%TO.N,VUSB_UNFILTERD*%
X148020000Y-133530000D03*
X140900000Y-130600000D03*
X143960000Y-130810000D03*
X139800000Y-130600000D03*
X144500000Y-133800000D03*
D20*
%TO.N,/SDIO_DATA2*%
X132650000Y-96000000D03*
X131000000Y-110100000D03*
%TO.N,/SDIO_CLK*%
X130730000Y-98290000D03*
X130000000Y-102975000D03*
%TO.N,/SDIO_DATA0*%
X138170000Y-105760000D03*
X148732169Y-95092831D03*
%TO.N,/SDIO_DATA1*%
X134150000Y-103200000D03*
X133960000Y-96760000D03*
%TO.N,/SDIO_DATA3*%
X133310000Y-111640000D03*
X131620000Y-95090000D03*
%TO.N,/SDIO_CMD*%
X150010000Y-98640000D03*
X133750000Y-110300000D03*
%TO.N,/USB C COMs 3v3 Power Input Module/DTR*%
X151040000Y-118340000D03*
X126610000Y-85760000D03*
%TO.N,/USB C COMs 3v3 Power Input Module/RTS*%
X152290000Y-120770000D03*
X122450000Y-87750000D03*
%TO.N,Net-(U6-RST#)*%
X141047482Y-121483229D03*
X143060000Y-120910000D03*
%TO.N,/USBC_TX*%
X153100000Y-117570000D03*
%TO.N,/USBC_RX*%
X154230000Y-117720000D03*
%TO.N,/GPS_TX*%
X153110000Y-91400000D03*
X131010000Y-83865000D03*
%TO.N,/GPS_RX*%
X133100000Y-85750000D03*
X154250000Y-91390000D03*
D19*
%TO.N,3v3_VCC*%
X163700000Y-90200000D03*
X136160000Y-120190000D03*
X140660000Y-101550000D03*
X123540000Y-81490000D03*
X134390000Y-120190000D03*
D20*
%TO.N,/USB C COMs 3v3 Power Input Module/USB_D+*%
X146706329Y-117256349D03*
%TD*%
%TA.AperFunction,Conductor*%
%TO.N,GND*%
G36*
X161224730Y-72420185D02*
G01*
X161245372Y-72436819D01*
X161914438Y-73105885D01*
X161912374Y-73106740D01*
X161773156Y-73199762D01*
X161654762Y-73318156D01*
X161561740Y-73457374D01*
X161560884Y-73459438D01*
X160913380Y-72811934D01*
X160856810Y-72885659D01*
X160856801Y-72885673D01*
X160742106Y-73084330D01*
X160742102Y-73084340D01*
X160654318Y-73296269D01*
X160594942Y-73517862D01*
X160565001Y-73745289D01*
X160565000Y-73745305D01*
X160565000Y-73974694D01*
X160565001Y-73974710D01*
X160594942Y-74202137D01*
X160654318Y-74423730D01*
X160742102Y-74635659D01*
X160742106Y-74635669D01*
X160856799Y-74834324D01*
X160856805Y-74834331D01*
X160913381Y-74908064D01*
X161560884Y-74260560D01*
X161561740Y-74262626D01*
X161654762Y-74401844D01*
X161773156Y-74520238D01*
X161912374Y-74613260D01*
X161914437Y-74614114D01*
X161266934Y-75261617D01*
X161266934Y-75261618D01*
X161340666Y-75318194D01*
X161539330Y-75432893D01*
X161539340Y-75432897D01*
X161751269Y-75520681D01*
X161972862Y-75580057D01*
X162200289Y-75609998D01*
X162200306Y-75610000D01*
X162429694Y-75610000D01*
X162429710Y-75609998D01*
X162657137Y-75580057D01*
X162878730Y-75520681D01*
X163090659Y-75432897D01*
X163090668Y-75432893D01*
X163289327Y-75318197D01*
X163289334Y-75318192D01*
X163363064Y-75261617D01*
X162715561Y-74614114D01*
X162717626Y-74613260D01*
X162856844Y-74520238D01*
X162975238Y-74401844D01*
X163068260Y-74262626D01*
X163069114Y-74260561D01*
X163716617Y-74908064D01*
X163773192Y-74834334D01*
X163773197Y-74834327D01*
X163887893Y-74635668D01*
X163887897Y-74635659D01*
X163975681Y-74423730D01*
X164035057Y-74202137D01*
X164064998Y-73974710D01*
X164065000Y-73974694D01*
X164065000Y-73745305D01*
X164064998Y-73745289D01*
X164035057Y-73517862D01*
X163975681Y-73296269D01*
X163887897Y-73084340D01*
X163887893Y-73084330D01*
X163773194Y-72885666D01*
X163716618Y-72811934D01*
X163716617Y-72811934D01*
X163069114Y-73459437D01*
X163068260Y-73457374D01*
X162975238Y-73318156D01*
X162856844Y-73199762D01*
X162717626Y-73106740D01*
X162715560Y-73105884D01*
X163384627Y-72436819D01*
X163445950Y-72403334D01*
X163472308Y-72400500D01*
X164009108Y-72400500D01*
X172209108Y-72400500D01*
X172268038Y-72400500D01*
X172281922Y-72401280D01*
X172372266Y-72411459D01*
X172399331Y-72417636D01*
X172478540Y-72445352D01*
X172503553Y-72457398D01*
X172574606Y-72502043D01*
X172596313Y-72519355D01*
X172655644Y-72578686D01*
X172672957Y-72600395D01*
X172717600Y-72671444D01*
X172729648Y-72696462D01*
X172757362Y-72775666D01*
X172763540Y-72802735D01*
X172773720Y-72893076D01*
X172774500Y-72906961D01*
X172774500Y-137893038D01*
X172773720Y-137906922D01*
X172773720Y-137906923D01*
X172763540Y-137997264D01*
X172757362Y-138024333D01*
X172729648Y-138103537D01*
X172717599Y-138128556D01*
X172683279Y-138183175D01*
X172630944Y-138229466D01*
X172578538Y-138241202D01*
X151250888Y-138284599D01*
X151183809Y-138265051D01*
X151137947Y-138212340D01*
X151127862Y-138143202D01*
X151156758Y-138079587D01*
X151181746Y-138057497D01*
X151190289Y-138051789D01*
X151301789Y-137940289D01*
X151389394Y-137809179D01*
X151391297Y-137804586D01*
X151403067Y-137776166D01*
X151449737Y-137663497D01*
X151480500Y-137508842D01*
X151480500Y-136551158D01*
X151480500Y-136551155D01*
X151480499Y-136551153D01*
X151450532Y-136400500D01*
X151449737Y-136396503D01*
X151412480Y-136306556D01*
X151389397Y-136250827D01*
X151389390Y-136250814D01*
X151301789Y-136119711D01*
X151301786Y-136119707D01*
X151190292Y-136008213D01*
X151190288Y-136008210D01*
X151059185Y-135920609D01*
X151059172Y-135920602D01*
X150913501Y-135860264D01*
X150913489Y-135860261D01*
X150758845Y-135829500D01*
X150758842Y-135829500D01*
X150601158Y-135829500D01*
X150601155Y-135829500D01*
X150446510Y-135860261D01*
X150446498Y-135860264D01*
X150300827Y-135920602D01*
X150300814Y-135920609D01*
X150169711Y-136008210D01*
X150169707Y-136008213D01*
X150058213Y-136119707D01*
X150058210Y-136119711D01*
X149970609Y-136250814D01*
X149970602Y-136250827D01*
X149910264Y-136396498D01*
X149910261Y-136396510D01*
X149879500Y-136551153D01*
X149879500Y-137508846D01*
X149910261Y-137663489D01*
X149910264Y-137663501D01*
X149970602Y-137809172D01*
X149970609Y-137809185D01*
X150058210Y-137940288D01*
X150058213Y-137940292D01*
X150169708Y-138051787D01*
X150181717Y-138059811D01*
X150226523Y-138113423D01*
X150235230Y-138182748D01*
X150205076Y-138245776D01*
X150145633Y-138282496D01*
X150113079Y-138286914D01*
X148449909Y-138290298D01*
X148382830Y-138270750D01*
X148350708Y-138233831D01*
X148321348Y-138269391D01*
X148254796Y-138290666D01*
X148252096Y-138290701D01*
X142564436Y-138302274D01*
X142497357Y-138282726D01*
X142451495Y-138230015D01*
X142441410Y-138160877D01*
X142470306Y-138097262D01*
X142495295Y-138075171D01*
X142518283Y-138059811D01*
X142530289Y-138051789D01*
X142641789Y-137940289D01*
X142729394Y-137809179D01*
X142731297Y-137804586D01*
X142743067Y-137776166D01*
X142789737Y-137663497D01*
X142795667Y-137633685D01*
X142802910Y-137597273D01*
X143949500Y-137597273D01*
X143949500Y-137702727D01*
X143976793Y-137804587D01*
X144029520Y-137895913D01*
X144104087Y-137970480D01*
X144195413Y-138023207D01*
X144297273Y-138050500D01*
X144297275Y-138050500D01*
X144402725Y-138050500D01*
X144402727Y-138050500D01*
X144504587Y-138023207D01*
X144595913Y-137970480D01*
X144670480Y-137895913D01*
X144723207Y-137804587D01*
X144750500Y-137702727D01*
X144750500Y-137597273D01*
X147949500Y-137597273D01*
X147949500Y-137702727D01*
X147976793Y-137804587D01*
X148029520Y-137895913D01*
X148104087Y-137970480D01*
X148195413Y-138023207D01*
X148283938Y-138046927D01*
X148343597Y-138083291D01*
X148350360Y-138097214D01*
X148355779Y-138085286D01*
X148414480Y-138047392D01*
X148417476Y-138046547D01*
X148504587Y-138023207D01*
X148595913Y-137970480D01*
X148670480Y-137895913D01*
X148723207Y-137804587D01*
X148750500Y-137702727D01*
X148750500Y-137597273D01*
X148723207Y-137495413D01*
X148670480Y-137404087D01*
X148595913Y-137329520D01*
X148504587Y-137276793D01*
X148402727Y-137249500D01*
X148297273Y-137249500D01*
X148195413Y-137276793D01*
X148195410Y-137276794D01*
X148104085Y-137329521D01*
X148029521Y-137404085D01*
X147976794Y-137495410D01*
X147976793Y-137495413D01*
X147949500Y-137597273D01*
X144750500Y-137597273D01*
X144723207Y-137495413D01*
X144670480Y-137404087D01*
X144595913Y-137329520D01*
X144504587Y-137276793D01*
X144402727Y-137249500D01*
X144297273Y-137249500D01*
X144195413Y-137276793D01*
X144195410Y-137276794D01*
X144104085Y-137329521D01*
X144029521Y-137404085D01*
X143976794Y-137495410D01*
X143976793Y-137495413D01*
X143949500Y-137597273D01*
X142802910Y-137597273D01*
X142809339Y-137564954D01*
X142809339Y-137564953D01*
X142820499Y-137508846D01*
X142820500Y-137508844D01*
X142820500Y-136551155D01*
X142820499Y-136551153D01*
X142790532Y-136400500D01*
X142789737Y-136396503D01*
X142752480Y-136306556D01*
X142729397Y-136250827D01*
X142729390Y-136250814D01*
X142641789Y-136119711D01*
X142641786Y-136119707D01*
X142530292Y-136008213D01*
X142530288Y-136008210D01*
X142399185Y-135920609D01*
X142399172Y-135920602D01*
X142253501Y-135860264D01*
X142253489Y-135860261D01*
X142098845Y-135829500D01*
X142098842Y-135829500D01*
X141941158Y-135829500D01*
X141941155Y-135829500D01*
X141786510Y-135860261D01*
X141786498Y-135860264D01*
X141640827Y-135920602D01*
X141640814Y-135920609D01*
X141509711Y-136008210D01*
X141509707Y-136008213D01*
X141398213Y-136119707D01*
X141398210Y-136119711D01*
X141310609Y-136250814D01*
X141310602Y-136250827D01*
X141250264Y-136396498D01*
X141250261Y-136396510D01*
X141219500Y-136551153D01*
X141219500Y-137508846D01*
X141250261Y-137663489D01*
X141250264Y-137663501D01*
X141310602Y-137809172D01*
X141310609Y-137809185D01*
X141398210Y-137940288D01*
X141398213Y-137940292D01*
X141509707Y-138051786D01*
X141509711Y-138051789D01*
X141548010Y-138077380D01*
X141592815Y-138130992D01*
X141601522Y-138200317D01*
X141571367Y-138263345D01*
X141511924Y-138300064D01*
X141479371Y-138304482D01*
X119592632Y-138349017D01*
X119575742Y-138344169D01*
X119558660Y-138344344D01*
X119526410Y-138330011D01*
X119475393Y-138297956D01*
X119453687Y-138280645D01*
X119394355Y-138221313D01*
X119377042Y-138199604D01*
X119352708Y-138160877D01*
X119332398Y-138128553D01*
X119320351Y-138103537D01*
X119318155Y-138097262D01*
X119292636Y-138024331D01*
X119286459Y-137997263D01*
X119283441Y-137970480D01*
X119276280Y-137906922D01*
X119275500Y-137893038D01*
X119275500Y-133759568D01*
X121274500Y-133759568D01*
X121274500Y-134040431D01*
X121305942Y-134319494D01*
X121305945Y-134319512D01*
X121368439Y-134593317D01*
X121368443Y-134593329D01*
X121461200Y-134858411D01*
X121583053Y-135111442D01*
X121583055Y-135111445D01*
X121732477Y-135349248D01*
X121907584Y-135568825D01*
X122106175Y-135767416D01*
X122325752Y-135942523D01*
X122563555Y-136091945D01*
X122816592Y-136213801D01*
X123015680Y-136283465D01*
X123081670Y-136306556D01*
X123081682Y-136306560D01*
X123355491Y-136369055D01*
X123355497Y-136369055D01*
X123355505Y-136369057D01*
X123541547Y-136390018D01*
X123634569Y-136400499D01*
X123634572Y-136400500D01*
X123634575Y-136400500D01*
X123915428Y-136400500D01*
X123915429Y-136400499D01*
X124058055Y-136384429D01*
X124194494Y-136369057D01*
X124194499Y-136369056D01*
X124194509Y-136369055D01*
X124468318Y-136306560D01*
X124733408Y-136213801D01*
X124986445Y-136091945D01*
X125224248Y-135942523D01*
X125443825Y-135767416D01*
X125642416Y-135568825D01*
X125817523Y-135349248D01*
X125966945Y-135111445D01*
X126058585Y-134921153D01*
X135239500Y-134921153D01*
X135239500Y-135078846D01*
X135270261Y-135233489D01*
X135270264Y-135233501D01*
X135330602Y-135379172D01*
X135330609Y-135379185D01*
X135418210Y-135510288D01*
X135418213Y-135510292D01*
X135529707Y-135621786D01*
X135529711Y-135621789D01*
X135660814Y-135709390D01*
X135660827Y-135709397D01*
X135806498Y-135769735D01*
X135806503Y-135769737D01*
X135961153Y-135800499D01*
X135961156Y-135800500D01*
X135961158Y-135800500D01*
X136118844Y-135800500D01*
X136118845Y-135800499D01*
X136273497Y-135769737D01*
X136419179Y-135709394D01*
X136550289Y-135621789D01*
X136574805Y-135597273D01*
X143949500Y-135597273D01*
X143949500Y-135702727D01*
X143976793Y-135804587D01*
X144029520Y-135895913D01*
X144104087Y-135970480D01*
X144195413Y-136023207D01*
X144297273Y-136050500D01*
X144297275Y-136050500D01*
X144402725Y-136050500D01*
X144402727Y-136050500D01*
X144504587Y-136023207D01*
X144595913Y-135970480D01*
X144670480Y-135895913D01*
X144723207Y-135804587D01*
X144750500Y-135702727D01*
X144750500Y-135597273D01*
X147949500Y-135597273D01*
X147949500Y-135702727D01*
X147976793Y-135804587D01*
X148029520Y-135895913D01*
X148104087Y-135970480D01*
X148195413Y-136023207D01*
X148297273Y-136050500D01*
X148297275Y-136050500D01*
X148402725Y-136050500D01*
X148402727Y-136050500D01*
X148504587Y-136023207D01*
X148595913Y-135970480D01*
X148670480Y-135895913D01*
X148723207Y-135804587D01*
X148750500Y-135702727D01*
X148750500Y-135597273D01*
X148723207Y-135495413D01*
X148670480Y-135404087D01*
X148595913Y-135329520D01*
X148504587Y-135276793D01*
X148402727Y-135249500D01*
X148297273Y-135249500D01*
X148195413Y-135276793D01*
X148195410Y-135276794D01*
X148104085Y-135329521D01*
X148029521Y-135404085D01*
X147976794Y-135495410D01*
X147976793Y-135495413D01*
X147949500Y-135597273D01*
X144750500Y-135597273D01*
X144723207Y-135495413D01*
X144670480Y-135404087D01*
X144595913Y-135329520D01*
X144504587Y-135276793D01*
X144402727Y-135249500D01*
X144297273Y-135249500D01*
X144195413Y-135276793D01*
X144195410Y-135276794D01*
X144104085Y-135329521D01*
X144029521Y-135404085D01*
X143976794Y-135495410D01*
X143976793Y-135495413D01*
X143949500Y-135597273D01*
X136574805Y-135597273D01*
X136661789Y-135510289D01*
X136749394Y-135379179D01*
X136809737Y-135233497D01*
X136840500Y-135078842D01*
X136840500Y-134921158D01*
X136840500Y-134921155D01*
X136840499Y-134921153D01*
X136809738Y-134766510D01*
X136809737Y-134766503D01*
X136775351Y-134683487D01*
X136749397Y-134620827D01*
X136749390Y-134620814D01*
X136661789Y-134489711D01*
X136661786Y-134489707D01*
X136550292Y-134378213D01*
X136550288Y-134378210D01*
X136419185Y-134290609D01*
X136419172Y-134290602D01*
X136273501Y-134230264D01*
X136273489Y-134230261D01*
X136118845Y-134199500D01*
X136118842Y-134199500D01*
X135961158Y-134199500D01*
X135961155Y-134199500D01*
X135806510Y-134230261D01*
X135806498Y-134230264D01*
X135660827Y-134290602D01*
X135660814Y-134290609D01*
X135529711Y-134378210D01*
X135529707Y-134378213D01*
X135418213Y-134489707D01*
X135418210Y-134489711D01*
X135330609Y-134620814D01*
X135330602Y-134620827D01*
X135270264Y-134766498D01*
X135270261Y-134766510D01*
X135239500Y-134921153D01*
X126058585Y-134921153D01*
X126088801Y-134858408D01*
X126181560Y-134593318D01*
X126244055Y-134319509D01*
X126244791Y-134312982D01*
X126268817Y-134099735D01*
X126275500Y-134040425D01*
X126275500Y-133759575D01*
X126257799Y-133602472D01*
X126244057Y-133480505D01*
X126244054Y-133480487D01*
X126227702Y-133408846D01*
X126181560Y-133206682D01*
X126176418Y-133191988D01*
X126142838Y-133096021D01*
X126130637Y-133061153D01*
X135029500Y-133061153D01*
X135029500Y-133218846D01*
X135060261Y-133373489D01*
X135060264Y-133373501D01*
X135120602Y-133519172D01*
X135120609Y-133519185D01*
X135208210Y-133650288D01*
X135208213Y-133650292D01*
X135319707Y-133761786D01*
X135319711Y-133761789D01*
X135450814Y-133849390D01*
X135450827Y-133849397D01*
X135596498Y-133909735D01*
X135596503Y-133909737D01*
X135751153Y-133940499D01*
X135751156Y-133940500D01*
X135751158Y-133940500D01*
X135908844Y-133940500D01*
X135908845Y-133940499D01*
X136063497Y-133909737D01*
X136209179Y-133849394D01*
X136340289Y-133761789D01*
X136451789Y-133650289D01*
X136539394Y-133519179D01*
X136599737Y-133373497D01*
X136630500Y-133218842D01*
X136630500Y-133061158D01*
X136630500Y-133061155D01*
X136630499Y-133061153D01*
X136621720Y-133017017D01*
X136599737Y-132906503D01*
X136570955Y-132837016D01*
X136539397Y-132760827D01*
X136539390Y-132760814D01*
X136451789Y-132629711D01*
X136451786Y-132629707D01*
X136340292Y-132518213D01*
X136340288Y-132518210D01*
X136209185Y-132430609D01*
X136209172Y-132430602D01*
X136063501Y-132370264D01*
X136063491Y-132370261D01*
X136045501Y-132366683D01*
X136045500Y-132366682D01*
X135908845Y-132339500D01*
X135908842Y-132339500D01*
X135751158Y-132339500D01*
X135751155Y-132339500D01*
X135596510Y-132370261D01*
X135596498Y-132370264D01*
X135450827Y-132430602D01*
X135450814Y-132430609D01*
X135319711Y-132518210D01*
X135319707Y-132518213D01*
X135208213Y-132629707D01*
X135208210Y-132629711D01*
X135120609Y-132760814D01*
X135120602Y-132760827D01*
X135060264Y-132906498D01*
X135060261Y-132906510D01*
X135029500Y-133061153D01*
X126130637Y-133061153D01*
X126118965Y-133027796D01*
X126088801Y-132941592D01*
X125966945Y-132688555D01*
X125817523Y-132450752D01*
X125658348Y-132251153D01*
X141219500Y-132251153D01*
X141219500Y-133408846D01*
X141250261Y-133563489D01*
X141250264Y-133563501D01*
X141310602Y-133709172D01*
X141310609Y-133709185D01*
X141398210Y-133840288D01*
X141398213Y-133840292D01*
X141509707Y-133951786D01*
X141509711Y-133951789D01*
X141640814Y-134039390D01*
X141640827Y-134039397D01*
X141740060Y-134080500D01*
X141786503Y-134099737D01*
X141941153Y-134130499D01*
X141941156Y-134130500D01*
X141941158Y-134130500D01*
X142098844Y-134130500D01*
X142098845Y-134130499D01*
X142253497Y-134099737D01*
X142390517Y-134042982D01*
X142399172Y-134039397D01*
X142399172Y-134039396D01*
X142399179Y-134039394D01*
X142530289Y-133951789D01*
X142641789Y-133840289D01*
X142729394Y-133709179D01*
X142759458Y-133636595D01*
X142803296Y-133582195D01*
X142869590Y-133560129D01*
X142937290Y-133577407D01*
X142981404Y-133622049D01*
X143014379Y-133679161D01*
X143019491Y-133688015D01*
X143121985Y-133790509D01*
X143121986Y-133790510D01*
X143121988Y-133790511D01*
X143247511Y-133862982D01*
X143247512Y-133862982D01*
X143247515Y-133862984D01*
X143387525Y-133900500D01*
X143387528Y-133900500D01*
X143532472Y-133900500D01*
X143532475Y-133900500D01*
X143672485Y-133862984D01*
X143672487Y-133862982D01*
X143672489Y-133862982D01*
X143672490Y-133862981D01*
X143696030Y-133849390D01*
X143770235Y-133806547D01*
X143838134Y-133790074D01*
X143904161Y-133812926D01*
X143947352Y-133867847D01*
X143952006Y-133881830D01*
X143975769Y-133970511D01*
X143987017Y-134012488D01*
X144059488Y-134138011D01*
X144059490Y-134138013D01*
X144059491Y-134138015D01*
X144161985Y-134240509D01*
X144161986Y-134240510D01*
X144161988Y-134240511D01*
X144287511Y-134312982D01*
X144287512Y-134312982D01*
X144287515Y-134312984D01*
X144427525Y-134350500D01*
X144427528Y-134350500D01*
X144572472Y-134350500D01*
X144572475Y-134350500D01*
X144712485Y-134312984D01*
X144838015Y-134240509D01*
X144940509Y-134138015D01*
X145012984Y-134012485D01*
X145050500Y-133872475D01*
X145050500Y-133727525D01*
X145012984Y-133587515D01*
X145009912Y-133582195D01*
X144969039Y-133511400D01*
X144969038Y-133511399D01*
X144940509Y-133461985D01*
X144936049Y-133457525D01*
X147469500Y-133457525D01*
X147469500Y-133602475D01*
X147503008Y-133727527D01*
X147507017Y-133742488D01*
X147579488Y-133868011D01*
X147579490Y-133868013D01*
X147579491Y-133868015D01*
X147681985Y-133970509D01*
X147681986Y-133970510D01*
X147681988Y-133970511D01*
X147807511Y-134042982D01*
X147807512Y-134042982D01*
X147807515Y-134042984D01*
X147947525Y-134080500D01*
X147947528Y-134080500D01*
X148092472Y-134080500D01*
X148092475Y-134080500D01*
X148232485Y-134042984D01*
X148358015Y-133970509D01*
X148460509Y-133868015D01*
X148532984Y-133742485D01*
X148549952Y-133679158D01*
X148586316Y-133619501D01*
X148649163Y-133588972D01*
X148718539Y-133597267D01*
X148772416Y-133641752D01*
X148777110Y-133649251D01*
X148799491Y-133688015D01*
X148901985Y-133790509D01*
X148901986Y-133790510D01*
X148901988Y-133790511D01*
X149027511Y-133862982D01*
X149027512Y-133862982D01*
X149027515Y-133862984D01*
X149167525Y-133900500D01*
X149167528Y-133900500D01*
X149312472Y-133900500D01*
X149312475Y-133900500D01*
X149452485Y-133862984D01*
X149578015Y-133790509D01*
X149680509Y-133688015D01*
X149718594Y-133622049D01*
X149769161Y-133573834D01*
X149837768Y-133560611D01*
X149902633Y-133586580D01*
X149940542Y-133636598D01*
X149970602Y-133709172D01*
X149970609Y-133709185D01*
X150058210Y-133840288D01*
X150058213Y-133840292D01*
X150169707Y-133951786D01*
X150169711Y-133951789D01*
X150300814Y-134039390D01*
X150300827Y-134039397D01*
X150400060Y-134080500D01*
X150446503Y-134099737D01*
X150601153Y-134130499D01*
X150601156Y-134130500D01*
X150601158Y-134130500D01*
X150758844Y-134130500D01*
X150758845Y-134130499D01*
X150913497Y-134099737D01*
X151050517Y-134042982D01*
X151059172Y-134039397D01*
X151059172Y-134039396D01*
X151059179Y-134039394D01*
X151190289Y-133951789D01*
X151301789Y-133840289D01*
X151355725Y-133759568D01*
X165774500Y-133759568D01*
X165774500Y-134040431D01*
X165805942Y-134319494D01*
X165805945Y-134319512D01*
X165868439Y-134593317D01*
X165868443Y-134593329D01*
X165961200Y-134858411D01*
X166083053Y-135111442D01*
X166083055Y-135111445D01*
X166232477Y-135349248D01*
X166407584Y-135568825D01*
X166606175Y-135767416D01*
X166825752Y-135942523D01*
X167063555Y-136091945D01*
X167316592Y-136213801D01*
X167515680Y-136283465D01*
X167581670Y-136306556D01*
X167581682Y-136306560D01*
X167855491Y-136369055D01*
X167855497Y-136369055D01*
X167855505Y-136369057D01*
X168041547Y-136390018D01*
X168134569Y-136400499D01*
X168134572Y-136400500D01*
X168134575Y-136400500D01*
X168415428Y-136400500D01*
X168415429Y-136400499D01*
X168558055Y-136384429D01*
X168694494Y-136369057D01*
X168694499Y-136369056D01*
X168694509Y-136369055D01*
X168968318Y-136306560D01*
X169233408Y-136213801D01*
X169486445Y-136091945D01*
X169724248Y-135942523D01*
X169943825Y-135767416D01*
X170142416Y-135568825D01*
X170317523Y-135349248D01*
X170466945Y-135111445D01*
X170588801Y-134858408D01*
X170681560Y-134593318D01*
X170744055Y-134319509D01*
X170744791Y-134312982D01*
X170768817Y-134099735D01*
X170775500Y-134040425D01*
X170775500Y-133759575D01*
X170757799Y-133602472D01*
X170744057Y-133480505D01*
X170744054Y-133480487D01*
X170727702Y-133408846D01*
X170681560Y-133206682D01*
X170676418Y-133191988D01*
X170657356Y-133137511D01*
X170588801Y-132941592D01*
X170466945Y-132688555D01*
X170317523Y-132450752D01*
X170142416Y-132231175D01*
X169943825Y-132032584D01*
X169724248Y-131857477D01*
X169560004Y-131754275D01*
X169486442Y-131708053D01*
X169233411Y-131586200D01*
X168968329Y-131493443D01*
X168968317Y-131493439D01*
X168694512Y-131430945D01*
X168694494Y-131430942D01*
X168415431Y-131399500D01*
X168415425Y-131399500D01*
X168134575Y-131399500D01*
X168134568Y-131399500D01*
X167855505Y-131430942D01*
X167855487Y-131430945D01*
X167581682Y-131493439D01*
X167581670Y-131493443D01*
X167316588Y-131586200D01*
X167063557Y-131708053D01*
X166825753Y-131857476D01*
X166606175Y-132032583D01*
X166407583Y-132231175D01*
X166232476Y-132450753D01*
X166083053Y-132688557D01*
X165961200Y-132941588D01*
X165868443Y-133206670D01*
X165868439Y-133206682D01*
X165805945Y-133480487D01*
X165805942Y-133480505D01*
X165774500Y-133759568D01*
X151355725Y-133759568D01*
X151389394Y-133709179D01*
X151389397Y-133709172D01*
X151389615Y-133708647D01*
X151389615Y-133708646D01*
X151389616Y-133708644D01*
X151449735Y-133563501D01*
X151449737Y-133563497D01*
X151480500Y-133408842D01*
X151480500Y-132251158D01*
X151480500Y-132251155D01*
X151480499Y-132251153D01*
X151449738Y-132096510D01*
X151449737Y-132096503D01*
X151423261Y-132032583D01*
X151389397Y-131950827D01*
X151389390Y-131950814D01*
X151301789Y-131819711D01*
X151301786Y-131819707D01*
X151190292Y-131708213D01*
X151190288Y-131708210D01*
X151059185Y-131620609D01*
X151059172Y-131620602D01*
X150913501Y-131560264D01*
X150913489Y-131560261D01*
X150758845Y-131529500D01*
X150758842Y-131529500D01*
X150601158Y-131529500D01*
X150601155Y-131529500D01*
X150446510Y-131560261D01*
X150446498Y-131560264D01*
X150300827Y-131620602D01*
X150300814Y-131620609D01*
X150169711Y-131708210D01*
X150169707Y-131708213D01*
X150058213Y-131819707D01*
X150058210Y-131819711D01*
X149970609Y-131950814D01*
X149970602Y-131950827D01*
X149910264Y-132096498D01*
X149910261Y-132096510D01*
X149879500Y-132251153D01*
X149879500Y-132911614D01*
X149859815Y-132978653D01*
X149807011Y-133024408D01*
X149737853Y-133034352D01*
X149674297Y-133005327D01*
X149667819Y-132999295D01*
X149578017Y-132909493D01*
X149578011Y-132909488D01*
X149452488Y-132837017D01*
X149452489Y-132837017D01*
X149441006Y-132833940D01*
X149312475Y-132799500D01*
X149167525Y-132799500D01*
X149038993Y-132833940D01*
X149027511Y-132837017D01*
X148901988Y-132909488D01*
X148901982Y-132909493D01*
X148799493Y-133011982D01*
X148799488Y-133011988D01*
X148727017Y-133137511D01*
X148727016Y-133137514D01*
X148710047Y-133200840D01*
X148673681Y-133260499D01*
X148610834Y-133291027D01*
X148541459Y-133282731D01*
X148487581Y-133238245D01*
X148482898Y-133230763D01*
X148460509Y-133191985D01*
X148358015Y-133089491D01*
X148358013Y-133089490D01*
X148358011Y-133089488D01*
X148232488Y-133017017D01*
X148232489Y-133017017D01*
X148213698Y-133011982D01*
X148092475Y-132979500D01*
X147947525Y-132979500D01*
X147826302Y-133011982D01*
X147807511Y-133017017D01*
X147681988Y-133089488D01*
X147681982Y-133089493D01*
X147579493Y-133191982D01*
X147579488Y-133191988D01*
X147507017Y-133317511D01*
X147507016Y-133317515D01*
X147469500Y-133457525D01*
X144936049Y-133457525D01*
X144838015Y-133359491D01*
X144838013Y-133359490D01*
X144838011Y-133359488D01*
X144712488Y-133287017D01*
X144712489Y-133287017D01*
X144694329Y-133282151D01*
X144572475Y-133249500D01*
X144427525Y-133249500D01*
X144305671Y-133282151D01*
X144287511Y-133287017D01*
X144189764Y-133343452D01*
X144121864Y-133359925D01*
X144055837Y-133337072D01*
X144012646Y-133282151D01*
X144007994Y-133268174D01*
X143972984Y-133137515D01*
X143960858Y-133116513D01*
X143900511Y-133011988D01*
X143900506Y-133011982D01*
X143798017Y-132909493D01*
X143798011Y-132909488D01*
X143672488Y-132837017D01*
X143672489Y-132837017D01*
X143661006Y-132833940D01*
X143532475Y-132799500D01*
X143387525Y-132799500D01*
X143258993Y-132833940D01*
X143247511Y-132837017D01*
X143121988Y-132909488D01*
X143121982Y-132909493D01*
X143032181Y-132999295D01*
X142970858Y-133032780D01*
X142901166Y-133027796D01*
X142845233Y-132985924D01*
X142820816Y-132920460D01*
X142820500Y-132911614D01*
X142820500Y-132251155D01*
X142820499Y-132251153D01*
X142789738Y-132096510D01*
X142789737Y-132096503D01*
X142763261Y-132032583D01*
X142729397Y-131950827D01*
X142729390Y-131950814D01*
X142641789Y-131819711D01*
X142641786Y-131819707D01*
X142530292Y-131708213D01*
X142530288Y-131708210D01*
X142399185Y-131620609D01*
X142399172Y-131620602D01*
X142253501Y-131560264D01*
X142253489Y-131560261D01*
X142098845Y-131529500D01*
X142098842Y-131529500D01*
X141941158Y-131529500D01*
X141941155Y-131529500D01*
X141786510Y-131560261D01*
X141786498Y-131560264D01*
X141640827Y-131620602D01*
X141640814Y-131620609D01*
X141509711Y-131708210D01*
X141509707Y-131708213D01*
X141398213Y-131819707D01*
X141398210Y-131819711D01*
X141310609Y-131950814D01*
X141310602Y-131950827D01*
X141250264Y-132096498D01*
X141250261Y-132096510D01*
X141219500Y-132251153D01*
X125658348Y-132251153D01*
X125642416Y-132231175D01*
X125443825Y-132032584D01*
X125224248Y-131857477D01*
X125060004Y-131754275D01*
X124986442Y-131708053D01*
X124733411Y-131586200D01*
X124468329Y-131493443D01*
X124468317Y-131493439D01*
X124194512Y-131430945D01*
X124194494Y-131430942D01*
X123915431Y-131399500D01*
X123915425Y-131399500D01*
X123634575Y-131399500D01*
X123634568Y-131399500D01*
X123355505Y-131430942D01*
X123355487Y-131430945D01*
X123081682Y-131493439D01*
X123081670Y-131493443D01*
X122816588Y-131586200D01*
X122563557Y-131708053D01*
X122325753Y-131857476D01*
X122106175Y-132032583D01*
X121907583Y-132231175D01*
X121732476Y-132450753D01*
X121583053Y-132688557D01*
X121461200Y-132941588D01*
X121368443Y-133206670D01*
X121368439Y-133206682D01*
X121305945Y-133480487D01*
X121305942Y-133480505D01*
X121274500Y-133759568D01*
X119275500Y-133759568D01*
X119275500Y-130521153D01*
X138999500Y-130521153D01*
X138999500Y-130678846D01*
X139030261Y-130833489D01*
X139030264Y-130833501D01*
X139090602Y-130979172D01*
X139090609Y-130979185D01*
X139178210Y-131110288D01*
X139178213Y-131110292D01*
X139289707Y-131221786D01*
X139289711Y-131221789D01*
X139420814Y-131309390D01*
X139420827Y-131309397D01*
X139566498Y-131369735D01*
X139566503Y-131369737D01*
X139716131Y-131399500D01*
X139721153Y-131400499D01*
X139721156Y-131400500D01*
X139721158Y-131400500D01*
X139878844Y-131400500D01*
X139878845Y-131400499D01*
X140033497Y-131369737D01*
X140179179Y-131309394D01*
X140281111Y-131241284D01*
X140347786Y-131220408D01*
X140415166Y-131238892D01*
X140418847Y-131241257D01*
X140520821Y-131309394D01*
X140520823Y-131309395D01*
X140520827Y-131309397D01*
X140666498Y-131369735D01*
X140666503Y-131369737D01*
X140816131Y-131399500D01*
X140821153Y-131400499D01*
X140821156Y-131400500D01*
X140821158Y-131400500D01*
X140978844Y-131400500D01*
X140978845Y-131400499D01*
X141133497Y-131369737D01*
X141279179Y-131309394D01*
X141410289Y-131221789D01*
X141521789Y-131110289D01*
X141609394Y-130979179D01*
X141669737Y-130833497D01*
X141690094Y-130731158D01*
X141690095Y-130731153D01*
X143159500Y-130731153D01*
X143159500Y-130888846D01*
X143190261Y-131043489D01*
X143190264Y-131043501D01*
X143250602Y-131189172D01*
X143250609Y-131189185D01*
X143338210Y-131320288D01*
X143338213Y-131320292D01*
X143449707Y-131431786D01*
X143449711Y-131431789D01*
X143580814Y-131519390D01*
X143580827Y-131519397D01*
X143726498Y-131579735D01*
X143726503Y-131579737D01*
X143881153Y-131610499D01*
X143881156Y-131610500D01*
X143881158Y-131610500D01*
X144038844Y-131610500D01*
X144038845Y-131610499D01*
X144193497Y-131579737D01*
X144339179Y-131519394D01*
X144470289Y-131431789D01*
X144581789Y-131320289D01*
X144669394Y-131189179D01*
X144729737Y-131043497D01*
X144760500Y-130888842D01*
X144760500Y-130731158D01*
X144760500Y-130731155D01*
X144760499Y-130731153D01*
X144750094Y-130678844D01*
X144729737Y-130576503D01*
X144706813Y-130521158D01*
X144669397Y-130430827D01*
X144669390Y-130430814D01*
X144581789Y-130299711D01*
X144581786Y-130299707D01*
X144470292Y-130188213D01*
X144470288Y-130188210D01*
X144339185Y-130100609D01*
X144339172Y-130100602D01*
X144193501Y-130040264D01*
X144193489Y-130040261D01*
X144038845Y-130009500D01*
X144038842Y-130009500D01*
X143881158Y-130009500D01*
X143881155Y-130009500D01*
X143726510Y-130040261D01*
X143726498Y-130040264D01*
X143580827Y-130100602D01*
X143580814Y-130100609D01*
X143449711Y-130188210D01*
X143449707Y-130188213D01*
X143338213Y-130299707D01*
X143338210Y-130299711D01*
X143250609Y-130430814D01*
X143250602Y-130430827D01*
X143190264Y-130576498D01*
X143190261Y-130576510D01*
X143159500Y-130731153D01*
X141690095Y-130731153D01*
X141696118Y-130700875D01*
X141700499Y-130678846D01*
X141700500Y-130678844D01*
X141700500Y-130521155D01*
X141700499Y-130521153D01*
X141669738Y-130366510D01*
X141669737Y-130366503D01*
X141642071Y-130299711D01*
X141609397Y-130220827D01*
X141609390Y-130220814D01*
X141521789Y-130089711D01*
X141521786Y-130089707D01*
X141410292Y-129978213D01*
X141410288Y-129978210D01*
X141279185Y-129890609D01*
X141279172Y-129890602D01*
X141133501Y-129830264D01*
X141133489Y-129830261D01*
X140978845Y-129799500D01*
X140978842Y-129799500D01*
X140821158Y-129799500D01*
X140821155Y-129799500D01*
X140666510Y-129830261D01*
X140666498Y-129830264D01*
X140520827Y-129890602D01*
X140520814Y-129890609D01*
X140418891Y-129958713D01*
X140352213Y-129979591D01*
X140284833Y-129961107D01*
X140281109Y-129958713D01*
X140179185Y-129890609D01*
X140179172Y-129890602D01*
X140033501Y-129830264D01*
X140033489Y-129830261D01*
X139878845Y-129799500D01*
X139878842Y-129799500D01*
X139721158Y-129799500D01*
X139721155Y-129799500D01*
X139566510Y-129830261D01*
X139566498Y-129830264D01*
X139420827Y-129890602D01*
X139420814Y-129890609D01*
X139289711Y-129978210D01*
X139289707Y-129978213D01*
X139178213Y-130089707D01*
X139178210Y-130089711D01*
X139090609Y-130220814D01*
X139090602Y-130220827D01*
X139030264Y-130366498D01*
X139030261Y-130366510D01*
X138999500Y-130521153D01*
X119275500Y-130521153D01*
X119275500Y-124879071D01*
X129049499Y-124879071D01*
X129074497Y-125004738D01*
X129074499Y-125004744D01*
X129123533Y-125123124D01*
X129123538Y-125123133D01*
X129194723Y-125229668D01*
X129194726Y-125229672D01*
X129285327Y-125320273D01*
X129285331Y-125320276D01*
X129391866Y-125391461D01*
X129391872Y-125391464D01*
X129391873Y-125391465D01*
X129510256Y-125440501D01*
X129510260Y-125440501D01*
X129510261Y-125440502D01*
X129635928Y-125465500D01*
X129635931Y-125465500D01*
X129764071Y-125465500D01*
X129848615Y-125448682D01*
X129889744Y-125440501D01*
X130008127Y-125391465D01*
X130114669Y-125320276D01*
X130114673Y-125320271D01*
X130119379Y-125316411D01*
X130120720Y-125318045D01*
X130173611Y-125289148D01*
X130243304Y-125294114D01*
X130279715Y-125317514D01*
X130280621Y-125316411D01*
X130285331Y-125320276D01*
X130391866Y-125391461D01*
X130391872Y-125391464D01*
X130391873Y-125391465D01*
X130510256Y-125440501D01*
X130510260Y-125440501D01*
X130510261Y-125440502D01*
X130635928Y-125465500D01*
X130635931Y-125465500D01*
X130764071Y-125465500D01*
X130848615Y-125448682D01*
X130889744Y-125440501D01*
X131008127Y-125391465D01*
X131114669Y-125320276D01*
X131114673Y-125320271D01*
X131119379Y-125316411D01*
X131120720Y-125318045D01*
X131173611Y-125289148D01*
X131243304Y-125294114D01*
X131279715Y-125317514D01*
X131280621Y-125316411D01*
X131285331Y-125320276D01*
X131391866Y-125391461D01*
X131391872Y-125391464D01*
X131391873Y-125391465D01*
X131510256Y-125440501D01*
X131510260Y-125440501D01*
X131510261Y-125440502D01*
X131635928Y-125465500D01*
X131635931Y-125465500D01*
X131764071Y-125465500D01*
X131848615Y-125448682D01*
X131889744Y-125440501D01*
X132008127Y-125391465D01*
X132114669Y-125320276D01*
X132205276Y-125229669D01*
X132276465Y-125123127D01*
X132325501Y-125004744D01*
X132342603Y-124918770D01*
X132350500Y-124879071D01*
X132350500Y-124750928D01*
X132325502Y-124625261D01*
X132325501Y-124625260D01*
X132325501Y-124625256D01*
X132311375Y-124591153D01*
X140849500Y-124591153D01*
X140849500Y-124748846D01*
X140880261Y-124903489D01*
X140880264Y-124903501D01*
X140940602Y-125049172D01*
X140940609Y-125049185D01*
X141028210Y-125180288D01*
X141028213Y-125180292D01*
X141139707Y-125291786D01*
X141139711Y-125291789D01*
X141270814Y-125379390D01*
X141270827Y-125379397D01*
X141416498Y-125439735D01*
X141416503Y-125439737D01*
X141571153Y-125470499D01*
X141571156Y-125470500D01*
X141571158Y-125470500D01*
X141728844Y-125470500D01*
X141728845Y-125470499D01*
X141883497Y-125439737D01*
X142029179Y-125379394D01*
X142160289Y-125291789D01*
X142267768Y-125184310D01*
X145330589Y-125184310D01*
X145330589Y-125329260D01*
X145360397Y-125440502D01*
X145368106Y-125469273D01*
X145440577Y-125594796D01*
X145440579Y-125594798D01*
X145440580Y-125594800D01*
X145543074Y-125697294D01*
X145543076Y-125697295D01*
X145543077Y-125697296D01*
X145668600Y-125769767D01*
X145668601Y-125769767D01*
X145668604Y-125769769D01*
X145808614Y-125807285D01*
X145808617Y-125807285D01*
X145953561Y-125807285D01*
X145953564Y-125807285D01*
X146093574Y-125769769D01*
X146219104Y-125697294D01*
X146263600Y-125652798D01*
X146324923Y-125619313D01*
X146394615Y-125624297D01*
X146438962Y-125652798D01*
X146488401Y-125702237D01*
X146488402Y-125702238D01*
X146488404Y-125702239D01*
X146613927Y-125774710D01*
X146613928Y-125774710D01*
X146613931Y-125774712D01*
X146753941Y-125812228D01*
X146753944Y-125812228D01*
X146898888Y-125812228D01*
X146898891Y-125812228D01*
X147038901Y-125774712D01*
X147164431Y-125702237D01*
X147266925Y-125599743D01*
X147339400Y-125474213D01*
X147376916Y-125334203D01*
X147376916Y-125189253D01*
X147339400Y-125049243D01*
X147339369Y-125049190D01*
X147266927Y-124923716D01*
X147266922Y-124923710D01*
X147164433Y-124821221D01*
X147164427Y-124821216D01*
X147038904Y-124748745D01*
X147038905Y-124748745D01*
X147020454Y-124743801D01*
X146898891Y-124711228D01*
X146753941Y-124711228D01*
X146632378Y-124743801D01*
X146613927Y-124748745D01*
X146488404Y-124821216D01*
X146488397Y-124821222D01*
X146443902Y-124865716D01*
X146382579Y-124899200D01*
X146312887Y-124894214D01*
X146268542Y-124865714D01*
X146219106Y-124816278D01*
X146219100Y-124816273D01*
X146093577Y-124743802D01*
X146093578Y-124743802D01*
X146082095Y-124740725D01*
X145953564Y-124706285D01*
X145808614Y-124706285D01*
X145680082Y-124740725D01*
X145668600Y-124743802D01*
X145543077Y-124816273D01*
X145543071Y-124816278D01*
X145440582Y-124918767D01*
X145440577Y-124918773D01*
X145368106Y-125044296D01*
X145363672Y-125060840D01*
X145330589Y-125184310D01*
X142267768Y-125184310D01*
X142271789Y-125180289D01*
X142292453Y-125149362D01*
X142320565Y-125107292D01*
X142320566Y-125107290D01*
X142359387Y-125049190D01*
X142359390Y-125049185D01*
X142359394Y-125049179D01*
X142419737Y-124903497D01*
X142450500Y-124748842D01*
X142450500Y-124591158D01*
X142450500Y-124591155D01*
X142450499Y-124591153D01*
X142433735Y-124506875D01*
X142419737Y-124436503D01*
X142380120Y-124340858D01*
X142359397Y-124290827D01*
X142359390Y-124290814D01*
X142271789Y-124159711D01*
X142271786Y-124159707D01*
X142160292Y-124048213D01*
X142160288Y-124048210D01*
X142029185Y-123960609D01*
X142029172Y-123960602D01*
X141883501Y-123900264D01*
X141883489Y-123900261D01*
X141728845Y-123869500D01*
X141728842Y-123869500D01*
X141571158Y-123869500D01*
X141571155Y-123869500D01*
X141416510Y-123900261D01*
X141416498Y-123900264D01*
X141270827Y-123960602D01*
X141270814Y-123960609D01*
X141139711Y-124048210D01*
X141139707Y-124048213D01*
X141028213Y-124159707D01*
X141028210Y-124159711D01*
X140940609Y-124290814D01*
X140940602Y-124290827D01*
X140880264Y-124436498D01*
X140880261Y-124436510D01*
X140849500Y-124591153D01*
X132311375Y-124591153D01*
X132276465Y-124506873D01*
X132276464Y-124506872D01*
X132276461Y-124506866D01*
X132205276Y-124400331D01*
X132205273Y-124400327D01*
X132114672Y-124309726D01*
X132114668Y-124309723D01*
X132008133Y-124238538D01*
X132008124Y-124238533D01*
X131889744Y-124189499D01*
X131889738Y-124189497D01*
X131764071Y-124164500D01*
X131764069Y-124164500D01*
X131635931Y-124164500D01*
X131635929Y-124164500D01*
X131510261Y-124189497D01*
X131510255Y-124189499D01*
X131391875Y-124238533D01*
X131391866Y-124238538D01*
X131285331Y-124309723D01*
X131280621Y-124313589D01*
X131279283Y-124311958D01*
X131226358Y-124340858D01*
X131156666Y-124335874D01*
X131120280Y-124312489D01*
X131119379Y-124313589D01*
X131114668Y-124309723D01*
X131008133Y-124238538D01*
X131008124Y-124238533D01*
X130889744Y-124189499D01*
X130889738Y-124189497D01*
X130764071Y-124164500D01*
X130764069Y-124164500D01*
X130635931Y-124164500D01*
X130635929Y-124164500D01*
X130510261Y-124189497D01*
X130510255Y-124189499D01*
X130391875Y-124238533D01*
X130391866Y-124238538D01*
X130285331Y-124309723D01*
X130280621Y-124313589D01*
X130279283Y-124311958D01*
X130226358Y-124340858D01*
X130156666Y-124335874D01*
X130120280Y-124312489D01*
X130119379Y-124313589D01*
X130114668Y-124309723D01*
X130008133Y-124238538D01*
X130008124Y-124238533D01*
X129889744Y-124189499D01*
X129889738Y-124189497D01*
X129764071Y-124164500D01*
X129764069Y-124164500D01*
X129635931Y-124164500D01*
X129635929Y-124164500D01*
X129510261Y-124189497D01*
X129510255Y-124189499D01*
X129391875Y-124238533D01*
X129391866Y-124238538D01*
X129285331Y-124309723D01*
X129285327Y-124309726D01*
X129194726Y-124400327D01*
X129194723Y-124400331D01*
X129123538Y-124506866D01*
X129123533Y-124506875D01*
X129074499Y-124625255D01*
X129074497Y-124625261D01*
X129049500Y-124750928D01*
X129049500Y-124750931D01*
X129049500Y-124879069D01*
X129049500Y-124879071D01*
X129049499Y-124879071D01*
X119275500Y-124879071D01*
X119275500Y-123554114D01*
X145099437Y-123554114D01*
X145252063Y-123617334D01*
X145252071Y-123617336D01*
X145416277Y-123649999D01*
X145416280Y-123650000D01*
X145583720Y-123650000D01*
X145583722Y-123649999D01*
X145747928Y-123617336D01*
X145747936Y-123617334D01*
X145902623Y-123553261D01*
X145902628Y-123553258D01*
X145931107Y-123534229D01*
X145997784Y-123513350D01*
X146065165Y-123531833D01*
X146068893Y-123534229D01*
X146097371Y-123553258D01*
X146097376Y-123553261D01*
X146252063Y-123617334D01*
X146252071Y-123617336D01*
X146416277Y-123649999D01*
X146416280Y-123650000D01*
X146583720Y-123650000D01*
X146583722Y-123649999D01*
X146747928Y-123617336D01*
X146747936Y-123617334D01*
X146902623Y-123553261D01*
X146902628Y-123553258D01*
X146931107Y-123534229D01*
X146997784Y-123513350D01*
X147065165Y-123531833D01*
X147068893Y-123534229D01*
X147097371Y-123553258D01*
X147097376Y-123553261D01*
X147252063Y-123617334D01*
X147252071Y-123617336D01*
X147416277Y-123649999D01*
X147416280Y-123650000D01*
X147583720Y-123650000D01*
X147583722Y-123649999D01*
X147747928Y-123617336D01*
X147747936Y-123617334D01*
X147900561Y-123554114D01*
X147323223Y-122976777D01*
X147116610Y-122770163D01*
X147350000Y-122770163D01*
X147350000Y-122829837D01*
X147372836Y-122884968D01*
X147415032Y-122927164D01*
X147470163Y-122950000D01*
X147529837Y-122950000D01*
X147584968Y-122927164D01*
X147627164Y-122884968D01*
X147650000Y-122829837D01*
X147650000Y-122770163D01*
X147627164Y-122715032D01*
X147584968Y-122672836D01*
X147529837Y-122650000D01*
X147470163Y-122650000D01*
X147415032Y-122672836D01*
X147372836Y-122715032D01*
X147350000Y-122770163D01*
X147116610Y-122770163D01*
X147000001Y-122653553D01*
X146999999Y-122653553D01*
X146764457Y-122889095D01*
X146703134Y-122922580D01*
X146633442Y-122917596D01*
X146609757Y-122902374D01*
X146627164Y-122884968D01*
X146650000Y-122829837D01*
X146650000Y-122770163D01*
X146627164Y-122715032D01*
X146584968Y-122672836D01*
X146529837Y-122650000D01*
X146470163Y-122650000D01*
X146415032Y-122672836D01*
X146372836Y-122715032D01*
X146350000Y-122770163D01*
X146350000Y-122829837D01*
X146372836Y-122884968D01*
X146388950Y-122901082D01*
X146349581Y-122922580D01*
X146279889Y-122917596D01*
X146235542Y-122889095D01*
X146000001Y-122653553D01*
X145999999Y-122653553D01*
X145676777Y-122976777D01*
X145099437Y-123554114D01*
X119275500Y-123554114D01*
X119275500Y-121410754D01*
X140496982Y-121410754D01*
X140496982Y-121555704D01*
X140522137Y-121649581D01*
X140534499Y-121695717D01*
X140606970Y-121821240D01*
X140606972Y-121821242D01*
X140606973Y-121821244D01*
X140709467Y-121923738D01*
X140709468Y-121923739D01*
X140709470Y-121923740D01*
X140834993Y-121996211D01*
X140834994Y-121996211D01*
X140834997Y-121996213D01*
X140975007Y-122033729D01*
X140975010Y-122033729D01*
X141119954Y-122033729D01*
X141119957Y-122033729D01*
X141259967Y-121996213D01*
X141385497Y-121923738D01*
X141487991Y-121821244D01*
X141560466Y-121695714D01*
X141597982Y-121555704D01*
X141597982Y-121410754D01*
X141560466Y-121270744D01*
X141547343Y-121248015D01*
X141487993Y-121145217D01*
X141487988Y-121145211D01*
X141385499Y-121042722D01*
X141385493Y-121042717D01*
X141259970Y-120970246D01*
X141259971Y-120970246D01*
X141251197Y-120967895D01*
X141119957Y-120932729D01*
X140975007Y-120932729D01*
X140874187Y-120959744D01*
X140834993Y-120970246D01*
X140709470Y-121042717D01*
X140709464Y-121042722D01*
X140606975Y-121145211D01*
X140606970Y-121145217D01*
X140534499Y-121270740D01*
X140534498Y-121270744D01*
X140496982Y-121410754D01*
X119275500Y-121410754D01*
X119275500Y-120111153D01*
X133589500Y-120111153D01*
X133589500Y-120268846D01*
X133620261Y-120423489D01*
X133620264Y-120423501D01*
X133680602Y-120569172D01*
X133680609Y-120569185D01*
X133768210Y-120700288D01*
X133768213Y-120700292D01*
X133879707Y-120811786D01*
X133879711Y-120811789D01*
X134010814Y-120899390D01*
X134010827Y-120899397D01*
X134156498Y-120959735D01*
X134156503Y-120959737D01*
X134270799Y-120982472D01*
X134311153Y-120990499D01*
X134311156Y-120990500D01*
X134311158Y-120990500D01*
X134468844Y-120990500D01*
X134468845Y-120990499D01*
X134623497Y-120959737D01*
X134769179Y-120899394D01*
X134900289Y-120811789D01*
X135011789Y-120700289D01*
X135099394Y-120569179D01*
X135159737Y-120423497D01*
X135159737Y-120423496D01*
X135160439Y-120421802D01*
X135204279Y-120367398D01*
X135270573Y-120345333D01*
X135338273Y-120362612D01*
X135385884Y-120413749D01*
X135389561Y-120421802D01*
X135450602Y-120569172D01*
X135450609Y-120569185D01*
X135538210Y-120700288D01*
X135538213Y-120700292D01*
X135649707Y-120811786D01*
X135649711Y-120811789D01*
X135780814Y-120899390D01*
X135780827Y-120899397D01*
X135926498Y-120959735D01*
X135926503Y-120959737D01*
X136040799Y-120982472D01*
X136081153Y-120990499D01*
X136081156Y-120990500D01*
X136081158Y-120990500D01*
X136238844Y-120990500D01*
X136238845Y-120990499D01*
X136393497Y-120959737D01*
X136539179Y-120899394D01*
X136631772Y-120837525D01*
X142509500Y-120837525D01*
X142509500Y-120982475D01*
X142535132Y-121078133D01*
X142547017Y-121122488D01*
X142619488Y-121248011D01*
X142619490Y-121248013D01*
X142619491Y-121248015D01*
X142721985Y-121350509D01*
X142721986Y-121350510D01*
X142721988Y-121350511D01*
X142847511Y-121422982D01*
X142847512Y-121422982D01*
X142847515Y-121422984D01*
X142987525Y-121460500D01*
X142987528Y-121460500D01*
X143132472Y-121460500D01*
X143132475Y-121460500D01*
X143272485Y-121422984D01*
X143398015Y-121350509D01*
X143500509Y-121248015D01*
X143572984Y-121122485D01*
X143610500Y-120982475D01*
X143610500Y-120837525D01*
X143578011Y-120716277D01*
X144650000Y-120716277D01*
X144650000Y-120883722D01*
X144682663Y-121047928D01*
X144682665Y-121047936D01*
X144746740Y-121202627D01*
X144765772Y-121231111D01*
X144786649Y-121297789D01*
X144768163Y-121365168D01*
X144765772Y-121368889D01*
X144746740Y-121397372D01*
X144682665Y-121552063D01*
X144682663Y-121552071D01*
X144650000Y-121716277D01*
X144650000Y-121883722D01*
X144682663Y-122047928D01*
X144682665Y-122047936D01*
X144746740Y-122202627D01*
X144765772Y-122231111D01*
X144786649Y-122297789D01*
X144768163Y-122365168D01*
X144765772Y-122368889D01*
X144746740Y-122397372D01*
X144682665Y-122552063D01*
X144682663Y-122552071D01*
X144650000Y-122716277D01*
X144650000Y-122883722D01*
X144682663Y-123047928D01*
X144682665Y-123047936D01*
X144745884Y-123200560D01*
X145176282Y-122770163D01*
X145350000Y-122770163D01*
X145350000Y-122829837D01*
X145372836Y-122884968D01*
X145415032Y-122927164D01*
X145470163Y-122950000D01*
X145529837Y-122950000D01*
X145584968Y-122927164D01*
X145627164Y-122884968D01*
X145650000Y-122829837D01*
X145650000Y-122770163D01*
X145627164Y-122715032D01*
X145584968Y-122672836D01*
X145529837Y-122650000D01*
X145470163Y-122650000D01*
X145415032Y-122672836D01*
X145372836Y-122715032D01*
X145350000Y-122770163D01*
X145176282Y-122770163D01*
X145323223Y-122623223D01*
X145646446Y-122300000D01*
X145646445Y-122299999D01*
X146353553Y-122299999D01*
X146500000Y-122446446D01*
X146646446Y-122300001D01*
X146646446Y-122300000D01*
X146500000Y-122153553D01*
X146353553Y-122299999D01*
X145646445Y-122299999D01*
X145410904Y-122064458D01*
X145377419Y-122003135D01*
X145382403Y-121933443D01*
X145397625Y-121909757D01*
X145415032Y-121927164D01*
X145470163Y-121950000D01*
X145529837Y-121950000D01*
X145584968Y-121927164D01*
X145627164Y-121884968D01*
X145650000Y-121829837D01*
X145650000Y-121799999D01*
X145853553Y-121799999D01*
X146000000Y-121946446D01*
X146146446Y-121800001D01*
X146146446Y-121800000D01*
X146116609Y-121770163D01*
X146350000Y-121770163D01*
X146350000Y-121829837D01*
X146372836Y-121884968D01*
X146415032Y-121927164D01*
X146470163Y-121950000D01*
X146529837Y-121950000D01*
X146584968Y-121927164D01*
X146627164Y-121884968D01*
X146650000Y-121829837D01*
X146650000Y-121799999D01*
X146853553Y-121799999D01*
X147000000Y-121946446D01*
X147146446Y-121800001D01*
X147146446Y-121800000D01*
X147116609Y-121770163D01*
X147350000Y-121770163D01*
X147350000Y-121829837D01*
X147372836Y-121884968D01*
X147415032Y-121927164D01*
X147470163Y-121950000D01*
X147529837Y-121950000D01*
X147584968Y-121927164D01*
X147601082Y-121911049D01*
X147622580Y-121950418D01*
X147617596Y-122020110D01*
X147589095Y-122064457D01*
X147353553Y-122299999D01*
X147353553Y-122300000D01*
X147676777Y-122623223D01*
X148254114Y-123200561D01*
X148317334Y-123047936D01*
X148317336Y-123047928D01*
X148349999Y-122883722D01*
X148350000Y-122883720D01*
X148350000Y-122716279D01*
X148349999Y-122716277D01*
X148317336Y-122552071D01*
X148317334Y-122552063D01*
X148253261Y-122397376D01*
X148253258Y-122397371D01*
X148234229Y-122368893D01*
X148213350Y-122302216D01*
X148231833Y-122234835D01*
X148234229Y-122231107D01*
X148253258Y-122202628D01*
X148253261Y-122202623D01*
X148317334Y-122047936D01*
X148317336Y-122047928D01*
X148349999Y-121883722D01*
X148350000Y-121883720D01*
X148350000Y-121716279D01*
X148349999Y-121716277D01*
X148317336Y-121552071D01*
X148317334Y-121552063D01*
X148253261Y-121397376D01*
X148253258Y-121397371D01*
X148234229Y-121368893D01*
X148213350Y-121302216D01*
X148231833Y-121234835D01*
X148234229Y-121231107D01*
X148253258Y-121202628D01*
X148253261Y-121202623D01*
X148317334Y-121047936D01*
X148317336Y-121047928D01*
X148349999Y-120883722D01*
X148350000Y-120883720D01*
X148350000Y-120834071D01*
X151639499Y-120834071D01*
X151664497Y-120959738D01*
X151664499Y-120959744D01*
X151713533Y-121078124D01*
X151713538Y-121078133D01*
X151784723Y-121184668D01*
X151784726Y-121184672D01*
X151875327Y-121275273D01*
X151875331Y-121275276D01*
X151981866Y-121346461D01*
X151981872Y-121346464D01*
X151981873Y-121346465D01*
X152100256Y-121395501D01*
X152100260Y-121395501D01*
X152100261Y-121395502D01*
X152225928Y-121420500D01*
X152225931Y-121420500D01*
X152354071Y-121420500D01*
X152438615Y-121403682D01*
X152479744Y-121395501D01*
X152598127Y-121346465D01*
X152704669Y-121275276D01*
X152795276Y-121184669D01*
X152866465Y-121078127D01*
X152915501Y-120959744D01*
X152927506Y-120899394D01*
X152940500Y-120834071D01*
X152940500Y-120705928D01*
X152915502Y-120580261D01*
X152915501Y-120580260D01*
X152915501Y-120580256D01*
X152869621Y-120469493D01*
X152866466Y-120461875D01*
X152866461Y-120461866D01*
X152795276Y-120355331D01*
X152795273Y-120355327D01*
X152704672Y-120264726D01*
X152704668Y-120264723D01*
X152598133Y-120193538D01*
X152598124Y-120193533D01*
X152479744Y-120144499D01*
X152479738Y-120144497D01*
X152354071Y-120119500D01*
X152354069Y-120119500D01*
X152225931Y-120119500D01*
X152225929Y-120119500D01*
X152100261Y-120144497D01*
X152100255Y-120144499D01*
X151981875Y-120193533D01*
X151981866Y-120193538D01*
X151875331Y-120264723D01*
X151875327Y-120264726D01*
X151784726Y-120355327D01*
X151784723Y-120355331D01*
X151713538Y-120461866D01*
X151713533Y-120461875D01*
X151664499Y-120580255D01*
X151664497Y-120580261D01*
X151639500Y-120705928D01*
X151639500Y-120705931D01*
X151639500Y-120834069D01*
X151639500Y-120834071D01*
X151639499Y-120834071D01*
X148350000Y-120834071D01*
X148350000Y-120716278D01*
X148317336Y-120552071D01*
X148317334Y-120552063D01*
X148254114Y-120399437D01*
X147676777Y-120976777D01*
X147353553Y-121299999D01*
X147353553Y-121300000D01*
X147589095Y-121535542D01*
X147622580Y-121596865D01*
X147617596Y-121666556D01*
X147602374Y-121690242D01*
X147584968Y-121672836D01*
X147529837Y-121650000D01*
X147470163Y-121650000D01*
X147415032Y-121672836D01*
X147372836Y-121715032D01*
X147350000Y-121770163D01*
X147116609Y-121770163D01*
X147000000Y-121653553D01*
X146853553Y-121799999D01*
X146650000Y-121799999D01*
X146650000Y-121770163D01*
X146627164Y-121715032D01*
X146584968Y-121672836D01*
X146529837Y-121650000D01*
X146470163Y-121650000D01*
X146415032Y-121672836D01*
X146372836Y-121715032D01*
X146350000Y-121770163D01*
X146116609Y-121770163D01*
X146000000Y-121653553D01*
X145853553Y-121799999D01*
X145650000Y-121799999D01*
X145650000Y-121770163D01*
X145627164Y-121715032D01*
X145584968Y-121672836D01*
X145529837Y-121650000D01*
X145470163Y-121650000D01*
X145415032Y-121672836D01*
X145398916Y-121688951D01*
X145377419Y-121649581D01*
X145382403Y-121579889D01*
X145410904Y-121535542D01*
X145646446Y-121300000D01*
X145646445Y-121299999D01*
X146353553Y-121299999D01*
X146500000Y-121446446D01*
X146646446Y-121300001D01*
X146646446Y-121300000D01*
X146500000Y-121153553D01*
X146353553Y-121299999D01*
X145646445Y-121299999D01*
X145323223Y-120976777D01*
X145116609Y-120770163D01*
X145350000Y-120770163D01*
X145350000Y-120829837D01*
X145372836Y-120884968D01*
X145415032Y-120927164D01*
X145470163Y-120950000D01*
X145529837Y-120950000D01*
X145584968Y-120927164D01*
X145627164Y-120884968D01*
X145650000Y-120829837D01*
X145650000Y-120770163D01*
X145627164Y-120715032D01*
X145584968Y-120672836D01*
X145529837Y-120650000D01*
X145470163Y-120650000D01*
X145415032Y-120672836D01*
X145372836Y-120715032D01*
X145350000Y-120770163D01*
X145116609Y-120770163D01*
X144745884Y-120399437D01*
X144682665Y-120552062D01*
X144682662Y-120552071D01*
X144650000Y-120716277D01*
X143578011Y-120716277D01*
X143572984Y-120697515D01*
X143530091Y-120623223D01*
X143500511Y-120571988D01*
X143500506Y-120571982D01*
X143398017Y-120469493D01*
X143398011Y-120469488D01*
X143272488Y-120397017D01*
X143272489Y-120397017D01*
X143261006Y-120393940D01*
X143132475Y-120359500D01*
X142987525Y-120359500D01*
X142858993Y-120393940D01*
X142847511Y-120397017D01*
X142721988Y-120469488D01*
X142721982Y-120469493D01*
X142619493Y-120571982D01*
X142619488Y-120571988D01*
X142547017Y-120697511D01*
X142547016Y-120697515D01*
X142509500Y-120837525D01*
X136631772Y-120837525D01*
X136670289Y-120811789D01*
X136781789Y-120700289D01*
X136869394Y-120569179D01*
X136929737Y-120423497D01*
X136960500Y-120268842D01*
X136960500Y-120111158D01*
X136960448Y-120110896D01*
X136960448Y-120110893D01*
X136960447Y-120110890D01*
X136947516Y-120045884D01*
X145099437Y-120045884D01*
X145676777Y-120623223D01*
X146000000Y-120946446D01*
X146235542Y-120710904D01*
X146296865Y-120677419D01*
X146366557Y-120682403D01*
X146390242Y-120697625D01*
X146372836Y-120715032D01*
X146350000Y-120770163D01*
X146350000Y-120829837D01*
X146372836Y-120884968D01*
X146415032Y-120927164D01*
X146470163Y-120950000D01*
X146529837Y-120950000D01*
X146584968Y-120927164D01*
X146627164Y-120884968D01*
X146650000Y-120829837D01*
X146650000Y-120770163D01*
X146627164Y-120715032D01*
X146611048Y-120698916D01*
X146650419Y-120677419D01*
X146720111Y-120682403D01*
X146764458Y-120710904D01*
X147000000Y-120946446D01*
X147176283Y-120770163D01*
X147350000Y-120770163D01*
X147350000Y-120829837D01*
X147372836Y-120884968D01*
X147415032Y-120927164D01*
X147470163Y-120950000D01*
X147529837Y-120950000D01*
X147584968Y-120927164D01*
X147627164Y-120884968D01*
X147650000Y-120829837D01*
X147650000Y-120770163D01*
X147627164Y-120715032D01*
X147584968Y-120672836D01*
X147529837Y-120650000D01*
X147470163Y-120650000D01*
X147415032Y-120672836D01*
X147372836Y-120715032D01*
X147350000Y-120770163D01*
X147176283Y-120770163D01*
X147323223Y-120623223D01*
X147900560Y-120045884D01*
X147747936Y-119982665D01*
X147747928Y-119982663D01*
X147583721Y-119950000D01*
X147416279Y-119950000D01*
X147252071Y-119982663D01*
X147252063Y-119982665D01*
X147097372Y-120046740D01*
X147068889Y-120065772D01*
X147002211Y-120086649D01*
X146934832Y-120068163D01*
X146931111Y-120065772D01*
X146902627Y-120046740D01*
X146747936Y-119982665D01*
X146747928Y-119982663D01*
X146583721Y-119950000D01*
X146416279Y-119950000D01*
X146252071Y-119982663D01*
X146252063Y-119982665D01*
X146097372Y-120046740D01*
X146068889Y-120065772D01*
X146002211Y-120086649D01*
X145934832Y-120068163D01*
X145931111Y-120065772D01*
X145902627Y-120046740D01*
X145747936Y-119982665D01*
X145747928Y-119982663D01*
X145583721Y-119950000D01*
X145416279Y-119950000D01*
X145252071Y-119982662D01*
X145252062Y-119982665D01*
X145099437Y-120045884D01*
X136947516Y-120045884D01*
X136934941Y-119982665D01*
X136929737Y-119956503D01*
X136927043Y-119950000D01*
X136869397Y-119810827D01*
X136869390Y-119810814D01*
X136781789Y-119679711D01*
X136781786Y-119679707D01*
X136670292Y-119568213D01*
X136670288Y-119568210D01*
X136539185Y-119480609D01*
X136539172Y-119480602D01*
X136393501Y-119420264D01*
X136393489Y-119420261D01*
X136238845Y-119389500D01*
X136238842Y-119389500D01*
X136081158Y-119389500D01*
X136081155Y-119389500D01*
X135926510Y-119420261D01*
X135926498Y-119420264D01*
X135780827Y-119480602D01*
X135780814Y-119480609D01*
X135649711Y-119568210D01*
X135649707Y-119568213D01*
X135538213Y-119679707D01*
X135538210Y-119679711D01*
X135450609Y-119810814D01*
X135450602Y-119810827D01*
X135389561Y-119958197D01*
X135345720Y-120012601D01*
X135279426Y-120034666D01*
X135211727Y-120017387D01*
X135164116Y-119966250D01*
X135160439Y-119958197D01*
X135099397Y-119810827D01*
X135099390Y-119810814D01*
X135011789Y-119679711D01*
X135011786Y-119679707D01*
X134900292Y-119568213D01*
X134900288Y-119568210D01*
X134769185Y-119480609D01*
X134769172Y-119480602D01*
X134623501Y-119420264D01*
X134623489Y-119420261D01*
X134468845Y-119389500D01*
X134468842Y-119389500D01*
X134311158Y-119389500D01*
X134311155Y-119389500D01*
X134156510Y-119420261D01*
X134156498Y-119420264D01*
X134010827Y-119480602D01*
X134010814Y-119480609D01*
X133879711Y-119568210D01*
X133879707Y-119568213D01*
X133768213Y-119679707D01*
X133768210Y-119679711D01*
X133680609Y-119810814D01*
X133680602Y-119810827D01*
X133620264Y-119956498D01*
X133620261Y-119956510D01*
X133589500Y-120111153D01*
X119275500Y-120111153D01*
X119275500Y-118404071D01*
X150389499Y-118404071D01*
X150414497Y-118529738D01*
X150414499Y-118529744D01*
X150463533Y-118648124D01*
X150463538Y-118648133D01*
X150534723Y-118754668D01*
X150534726Y-118754672D01*
X150625327Y-118845273D01*
X150625331Y-118845276D01*
X150731866Y-118916461D01*
X150731872Y-118916464D01*
X150731873Y-118916465D01*
X150850256Y-118965501D01*
X150850260Y-118965501D01*
X150850261Y-118965502D01*
X150975928Y-118990500D01*
X150975931Y-118990500D01*
X151104071Y-118990500D01*
X151188615Y-118973682D01*
X151229744Y-118965501D01*
X151348127Y-118916465D01*
X151454669Y-118845276D01*
X151545276Y-118754669D01*
X151616465Y-118648127D01*
X151665501Y-118529744D01*
X151690500Y-118404069D01*
X151690500Y-118275931D01*
X151690500Y-118275928D01*
X151665502Y-118150261D01*
X151665501Y-118150260D01*
X151665501Y-118150256D01*
X151616465Y-118031873D01*
X151616464Y-118031872D01*
X151616461Y-118031866D01*
X151545276Y-117925331D01*
X151545273Y-117925327D01*
X151454672Y-117834726D01*
X151454668Y-117834723D01*
X151348133Y-117763538D01*
X151348124Y-117763533D01*
X151229744Y-117714499D01*
X151229738Y-117714497D01*
X151104071Y-117689500D01*
X151104069Y-117689500D01*
X150975931Y-117689500D01*
X150975929Y-117689500D01*
X150850261Y-117714497D01*
X150850255Y-117714499D01*
X150731875Y-117763533D01*
X150731866Y-117763538D01*
X150625331Y-117834723D01*
X150625327Y-117834726D01*
X150534726Y-117925327D01*
X150534723Y-117925331D01*
X150463538Y-118031866D01*
X150463533Y-118031875D01*
X150414499Y-118150255D01*
X150414497Y-118150261D01*
X150389500Y-118275928D01*
X150389500Y-118275931D01*
X150389500Y-118404069D01*
X150389500Y-118404071D01*
X150389499Y-118404071D01*
X119275500Y-118404071D01*
X119275500Y-117183874D01*
X145255829Y-117183874D01*
X145255829Y-117328824D01*
X145293345Y-117468834D01*
X145293346Y-117468837D01*
X145365817Y-117594360D01*
X145365819Y-117594362D01*
X145365820Y-117594364D01*
X145468314Y-117696858D01*
X145468315Y-117696859D01*
X145468317Y-117696860D01*
X145593840Y-117769331D01*
X145593841Y-117769331D01*
X145593844Y-117769333D01*
X145733854Y-117806849D01*
X145733857Y-117806849D01*
X145878801Y-117806849D01*
X145878804Y-117806849D01*
X146018814Y-117769333D01*
X146144344Y-117696858D01*
X146168648Y-117672554D01*
X146229971Y-117639069D01*
X146299663Y-117644053D01*
X146344010Y-117672554D01*
X146368314Y-117696858D01*
X146368315Y-117696859D01*
X146368317Y-117696860D01*
X146493840Y-117769331D01*
X146493841Y-117769331D01*
X146493844Y-117769333D01*
X146633854Y-117806849D01*
X146633857Y-117806849D01*
X146778801Y-117806849D01*
X146778804Y-117806849D01*
X146918814Y-117769333D01*
X147044344Y-117696858D01*
X147107131Y-117634071D01*
X152449499Y-117634071D01*
X152474497Y-117759738D01*
X152474499Y-117759744D01*
X152523533Y-117878124D01*
X152523538Y-117878133D01*
X152594723Y-117984668D01*
X152594726Y-117984672D01*
X152685327Y-118075273D01*
X152685331Y-118075276D01*
X152791866Y-118146461D01*
X152791872Y-118146464D01*
X152791873Y-118146465D01*
X152910256Y-118195501D01*
X152910260Y-118195501D01*
X152910261Y-118195502D01*
X153035928Y-118220500D01*
X153035931Y-118220500D01*
X153164071Y-118220500D01*
X153248615Y-118203682D01*
X153289744Y-118195501D01*
X153408127Y-118146465D01*
X153514669Y-118075276D01*
X153514676Y-118075268D01*
X153518938Y-118071772D01*
X153583246Y-118044455D01*
X153652114Y-118056243D01*
X153700710Y-118098730D01*
X153724723Y-118134668D01*
X153724726Y-118134672D01*
X153815327Y-118225273D01*
X153815331Y-118225276D01*
X153921866Y-118296461D01*
X153921872Y-118296464D01*
X153921873Y-118296465D01*
X154040256Y-118345501D01*
X154040260Y-118345501D01*
X154040261Y-118345502D01*
X154165928Y-118370500D01*
X154165931Y-118370500D01*
X154294071Y-118370500D01*
X154378615Y-118353682D01*
X154419744Y-118345501D01*
X154538127Y-118296465D01*
X154644669Y-118225276D01*
X154735276Y-118134669D01*
X154806465Y-118028127D01*
X154855501Y-117909744D01*
X154863682Y-117868615D01*
X154880500Y-117784071D01*
X154880500Y-117655928D01*
X154855502Y-117530261D01*
X154855501Y-117530260D01*
X154855501Y-117530256D01*
X154806465Y-117411873D01*
X154806464Y-117411872D01*
X154806461Y-117411866D01*
X154735276Y-117305331D01*
X154735273Y-117305327D01*
X154644672Y-117214726D01*
X154644668Y-117214723D01*
X154538133Y-117143538D01*
X154538124Y-117143533D01*
X154419744Y-117094499D01*
X154419738Y-117094497D01*
X154294071Y-117069500D01*
X154294069Y-117069500D01*
X154165931Y-117069500D01*
X154165929Y-117069500D01*
X154040261Y-117094497D01*
X154040255Y-117094499D01*
X153921875Y-117143533D01*
X153921866Y-117143538D01*
X153815327Y-117214725D01*
X153811050Y-117218236D01*
X153746738Y-117245545D01*
X153677871Y-117233749D01*
X153629288Y-117191268D01*
X153605274Y-117155328D01*
X153514672Y-117064726D01*
X153514668Y-117064723D01*
X153408133Y-116993538D01*
X153408124Y-116993533D01*
X153289744Y-116944499D01*
X153289738Y-116944497D01*
X153164071Y-116919500D01*
X153164069Y-116919500D01*
X153035931Y-116919500D01*
X153035929Y-116919500D01*
X152910261Y-116944497D01*
X152910255Y-116944499D01*
X152791875Y-116993533D01*
X152791866Y-116993538D01*
X152685331Y-117064723D01*
X152685327Y-117064726D01*
X152594726Y-117155327D01*
X152594723Y-117155331D01*
X152523538Y-117261866D01*
X152523533Y-117261875D01*
X152474499Y-117380255D01*
X152474497Y-117380261D01*
X152449500Y-117505928D01*
X152449500Y-117505931D01*
X152449500Y-117634069D01*
X152449500Y-117634071D01*
X152449499Y-117634071D01*
X147107131Y-117634071D01*
X147146838Y-117594364D01*
X147219313Y-117468834D01*
X147256829Y-117328824D01*
X147256829Y-117183874D01*
X147219313Y-117043864D01*
X147190255Y-116993535D01*
X147146840Y-116918337D01*
X147146835Y-116918331D01*
X147044346Y-116815842D01*
X147044340Y-116815837D01*
X146918817Y-116743366D01*
X146918818Y-116743366D01*
X146907335Y-116740289D01*
X146778804Y-116705849D01*
X146633854Y-116705849D01*
X146505322Y-116740289D01*
X146493840Y-116743366D01*
X146368317Y-116815837D01*
X146344009Y-116840145D01*
X146282685Y-116873629D01*
X146212994Y-116868643D01*
X146168649Y-116840145D01*
X146144344Y-116815840D01*
X146144341Y-116815838D01*
X146144340Y-116815837D01*
X146018817Y-116743366D01*
X146018818Y-116743366D01*
X146007335Y-116740289D01*
X145878804Y-116705849D01*
X145733854Y-116705849D01*
X145605322Y-116740289D01*
X145593840Y-116743366D01*
X145468317Y-116815837D01*
X145468311Y-116815842D01*
X145365822Y-116918331D01*
X145365817Y-116918337D01*
X145293346Y-117043860D01*
X145293345Y-117043864D01*
X145255829Y-117183874D01*
X119275500Y-117183874D01*
X119275500Y-116414071D01*
X140609499Y-116414071D01*
X140634497Y-116539738D01*
X140634499Y-116539744D01*
X140683533Y-116658124D01*
X140683538Y-116658133D01*
X140754723Y-116764668D01*
X140754726Y-116764672D01*
X140845327Y-116855273D01*
X140845331Y-116855276D01*
X140951866Y-116926461D01*
X140951872Y-116926464D01*
X140951873Y-116926465D01*
X141070256Y-116975501D01*
X141070260Y-116975501D01*
X141070261Y-116975502D01*
X141195928Y-117000500D01*
X141195931Y-117000500D01*
X141324071Y-117000500D01*
X141408615Y-116983682D01*
X141449744Y-116975501D01*
X141568127Y-116926465D01*
X141674669Y-116855276D01*
X141765276Y-116764669D01*
X141836465Y-116658127D01*
X141885501Y-116539744D01*
X141910500Y-116414069D01*
X141910500Y-116285931D01*
X141910500Y-116285928D01*
X141885502Y-116160261D01*
X141885501Y-116160260D01*
X141885501Y-116160256D01*
X141836465Y-116041873D01*
X141836464Y-116041872D01*
X141836461Y-116041866D01*
X141765276Y-115935331D01*
X141765273Y-115935327D01*
X141674672Y-115844726D01*
X141674668Y-115844723D01*
X141568133Y-115773538D01*
X141568124Y-115773533D01*
X141449744Y-115724499D01*
X141449738Y-115724497D01*
X141324071Y-115699500D01*
X141324069Y-115699500D01*
X141195931Y-115699500D01*
X141195929Y-115699500D01*
X141070261Y-115724497D01*
X141070255Y-115724499D01*
X140951875Y-115773533D01*
X140951866Y-115773538D01*
X140845331Y-115844723D01*
X140845327Y-115844726D01*
X140754726Y-115935327D01*
X140754723Y-115935331D01*
X140683538Y-116041866D01*
X140683533Y-116041875D01*
X140634499Y-116160255D01*
X140634497Y-116160261D01*
X140609500Y-116285928D01*
X140609500Y-116285931D01*
X140609500Y-116414069D01*
X140609500Y-116414071D01*
X140609499Y-116414071D01*
X119275500Y-116414071D01*
X119275500Y-112234027D01*
X124846354Y-112234027D01*
X124873273Y-112369354D01*
X124873276Y-112369364D01*
X124926076Y-112496836D01*
X124926083Y-112496849D01*
X125002740Y-112611573D01*
X125002743Y-112611577D01*
X125100309Y-112709143D01*
X125100313Y-112709146D01*
X125215037Y-112785803D01*
X125215050Y-112785810D01*
X125342522Y-112838610D01*
X125342527Y-112838612D01*
X125342531Y-112838612D01*
X125342532Y-112838613D01*
X125477859Y-112865532D01*
X125477862Y-112865532D01*
X125615850Y-112865532D01*
X125706896Y-112847421D01*
X125751183Y-112838612D01*
X125878666Y-112785807D01*
X125993397Y-112709146D01*
X126090969Y-112611574D01*
X126167630Y-112496843D01*
X126220435Y-112369360D01*
X126247355Y-112234025D01*
X126247355Y-112096039D01*
X126247355Y-112096036D01*
X126220436Y-111960709D01*
X126220435Y-111960708D01*
X126220435Y-111960704D01*
X126214888Y-111947313D01*
X126167633Y-111833227D01*
X126167626Y-111833214D01*
X126090969Y-111718490D01*
X126090966Y-111718486D01*
X125993400Y-111620920D01*
X125993396Y-111620917D01*
X125923342Y-111574108D01*
X132809500Y-111574108D01*
X132809500Y-111705891D01*
X132843608Y-111833187D01*
X132876554Y-111890250D01*
X132909500Y-111947314D01*
X133002686Y-112040500D01*
X133116814Y-112106392D01*
X133244108Y-112140500D01*
X133244110Y-112140500D01*
X133375890Y-112140500D01*
X133375892Y-112140500D01*
X133503186Y-112106392D01*
X133617314Y-112040500D01*
X133710500Y-111947314D01*
X133776392Y-111833186D01*
X133810500Y-111705892D01*
X133810500Y-111574108D01*
X133776392Y-111446814D01*
X133710500Y-111332686D01*
X133617314Y-111239500D01*
X133560250Y-111206554D01*
X133503187Y-111173608D01*
X133439539Y-111156554D01*
X133375892Y-111139500D01*
X133244108Y-111139500D01*
X133116812Y-111173608D01*
X133002686Y-111239500D01*
X133002683Y-111239502D01*
X132909502Y-111332683D01*
X132909500Y-111332686D01*
X132843608Y-111446812D01*
X132809500Y-111574108D01*
X125923342Y-111574108D01*
X125878672Y-111544260D01*
X125878659Y-111544253D01*
X125751187Y-111491453D01*
X125751177Y-111491450D01*
X125615850Y-111464532D01*
X125615848Y-111464532D01*
X125477862Y-111464532D01*
X125477860Y-111464532D01*
X125342532Y-111491450D01*
X125342522Y-111491453D01*
X125215050Y-111544253D01*
X125215037Y-111544260D01*
X125100313Y-111620917D01*
X125100309Y-111620920D01*
X125002743Y-111718486D01*
X125002740Y-111718490D01*
X124926083Y-111833214D01*
X124926076Y-111833227D01*
X124873276Y-111960699D01*
X124873273Y-111960709D01*
X124846355Y-112096036D01*
X124846355Y-112096039D01*
X124846355Y-112234025D01*
X124846355Y-112234027D01*
X124846354Y-112234027D01*
X119275500Y-112234027D01*
X119275500Y-110034108D01*
X130499500Y-110034108D01*
X130499500Y-110165892D01*
X130516554Y-110229539D01*
X130533608Y-110293187D01*
X130566554Y-110350250D01*
X130599500Y-110407314D01*
X130692686Y-110500500D01*
X130806814Y-110566392D01*
X130934108Y-110600500D01*
X130934110Y-110600500D01*
X131065890Y-110600500D01*
X131065892Y-110600500D01*
X131193186Y-110566392D01*
X131307314Y-110500500D01*
X131400500Y-110407314D01*
X131466392Y-110293186D01*
X131482222Y-110234108D01*
X133249500Y-110234108D01*
X133249500Y-110365892D01*
X133266554Y-110429539D01*
X133283608Y-110493187D01*
X133316554Y-110550250D01*
X133349500Y-110607314D01*
X133442686Y-110700500D01*
X133556814Y-110766392D01*
X133684108Y-110800500D01*
X133684110Y-110800500D01*
X133815890Y-110800500D01*
X133815892Y-110800500D01*
X133943186Y-110766392D01*
X134057314Y-110700500D01*
X134150500Y-110607314D01*
X134216392Y-110493186D01*
X134250500Y-110365892D01*
X134250500Y-110234108D01*
X134216392Y-110106814D01*
X134150500Y-109992686D01*
X134057314Y-109899500D01*
X134000250Y-109866554D01*
X133943187Y-109833608D01*
X133879539Y-109816554D01*
X133815892Y-109799500D01*
X133684108Y-109799500D01*
X133556812Y-109833608D01*
X133442686Y-109899500D01*
X133442683Y-109899502D01*
X133349502Y-109992683D01*
X133349500Y-109992686D01*
X133283608Y-110106812D01*
X133267778Y-110165892D01*
X133249500Y-110234108D01*
X131482222Y-110234108D01*
X131500500Y-110165892D01*
X131500500Y-110034108D01*
X131466392Y-109906814D01*
X131400500Y-109792686D01*
X131307314Y-109699500D01*
X131250250Y-109666554D01*
X131193187Y-109633608D01*
X131129539Y-109616554D01*
X131065892Y-109599500D01*
X130934108Y-109599500D01*
X130806812Y-109633608D01*
X130692686Y-109699500D01*
X130692683Y-109699502D01*
X130599502Y-109792683D01*
X130599500Y-109792686D01*
X130533608Y-109906812D01*
X130510600Y-109992683D01*
X130499500Y-110034108D01*
X119275500Y-110034108D01*
X119275500Y-105824071D01*
X137519499Y-105824071D01*
X137544497Y-105949738D01*
X137544499Y-105949744D01*
X137593533Y-106068124D01*
X137593538Y-106068133D01*
X137664723Y-106174668D01*
X137664726Y-106174672D01*
X137755327Y-106265273D01*
X137755331Y-106265276D01*
X137861866Y-106336461D01*
X137861872Y-106336464D01*
X137861873Y-106336465D01*
X137980256Y-106385501D01*
X137980260Y-106385501D01*
X137980261Y-106385502D01*
X138105928Y-106410500D01*
X138105931Y-106410500D01*
X138234071Y-106410500D01*
X138318615Y-106393682D01*
X138359744Y-106385501D01*
X138478127Y-106336465D01*
X138584669Y-106265276D01*
X138675276Y-106174669D01*
X138746465Y-106068127D01*
X138795501Y-105949744D01*
X138820500Y-105824069D01*
X138820500Y-105695931D01*
X138820500Y-105695928D01*
X138795502Y-105570261D01*
X138795501Y-105570260D01*
X138795501Y-105570256D01*
X138746465Y-105451873D01*
X138746464Y-105451872D01*
X138746461Y-105451866D01*
X138675276Y-105345331D01*
X138675273Y-105345327D01*
X138584672Y-105254726D01*
X138584668Y-105254723D01*
X138478133Y-105183538D01*
X138478124Y-105183533D01*
X138359744Y-105134499D01*
X138359738Y-105134497D01*
X138234071Y-105109500D01*
X138234069Y-105109500D01*
X138105931Y-105109500D01*
X138105929Y-105109500D01*
X137980261Y-105134497D01*
X137980255Y-105134499D01*
X137861875Y-105183533D01*
X137861866Y-105183538D01*
X137755331Y-105254723D01*
X137755327Y-105254726D01*
X137664726Y-105345327D01*
X137664723Y-105345331D01*
X137593538Y-105451866D01*
X137593533Y-105451875D01*
X137544499Y-105570255D01*
X137544497Y-105570261D01*
X137519500Y-105695928D01*
X137519500Y-105695931D01*
X137519500Y-105824069D01*
X137519500Y-105824071D01*
X137519499Y-105824071D01*
X119275500Y-105824071D01*
X119275500Y-104234027D01*
X124846354Y-104234027D01*
X124873273Y-104369354D01*
X124873276Y-104369364D01*
X124926076Y-104496836D01*
X124926083Y-104496849D01*
X125002740Y-104611573D01*
X125002743Y-104611577D01*
X125100309Y-104709143D01*
X125100313Y-104709146D01*
X125215037Y-104785803D01*
X125215050Y-104785810D01*
X125342522Y-104838610D01*
X125342527Y-104838612D01*
X125342531Y-104838612D01*
X125342532Y-104838613D01*
X125477859Y-104865532D01*
X125477862Y-104865532D01*
X125615850Y-104865532D01*
X125706896Y-104847421D01*
X125751183Y-104838612D01*
X125878666Y-104785807D01*
X125993397Y-104709146D01*
X126090969Y-104611574D01*
X126167630Y-104496843D01*
X126220435Y-104369360D01*
X126247355Y-104234025D01*
X126247355Y-104096039D01*
X126247355Y-104096036D01*
X126220436Y-103960709D01*
X126220435Y-103960708D01*
X126220435Y-103960704D01*
X126220433Y-103960699D01*
X126167633Y-103833227D01*
X126167626Y-103833214D01*
X126090969Y-103718490D01*
X126090966Y-103718486D01*
X125993400Y-103620920D01*
X125993396Y-103620917D01*
X125878672Y-103544260D01*
X125878659Y-103544253D01*
X125751187Y-103491453D01*
X125751177Y-103491450D01*
X125615850Y-103464532D01*
X125615848Y-103464532D01*
X125477862Y-103464532D01*
X125477860Y-103464532D01*
X125342532Y-103491450D01*
X125342522Y-103491453D01*
X125215050Y-103544253D01*
X125215037Y-103544260D01*
X125100313Y-103620917D01*
X125100309Y-103620920D01*
X125002743Y-103718486D01*
X125002740Y-103718490D01*
X124926083Y-103833214D01*
X124926076Y-103833227D01*
X124873276Y-103960699D01*
X124873273Y-103960709D01*
X124846355Y-104096036D01*
X124846355Y-104096039D01*
X124846355Y-104234025D01*
X124846355Y-104234027D01*
X124846354Y-104234027D01*
X119275500Y-104234027D01*
X119275500Y-102909108D01*
X129499500Y-102909108D01*
X129499500Y-103040892D01*
X129513699Y-103093885D01*
X129533608Y-103168187D01*
X129566554Y-103225250D01*
X129599500Y-103282314D01*
X129692686Y-103375500D01*
X129806814Y-103441392D01*
X129934108Y-103475500D01*
X129934110Y-103475500D01*
X130065890Y-103475500D01*
X130065892Y-103475500D01*
X130193186Y-103441392D01*
X130307314Y-103375500D01*
X130400500Y-103282314D01*
X130466392Y-103168186D01*
X130475523Y-103134108D01*
X133649500Y-103134108D01*
X133649500Y-103265891D01*
X133683608Y-103393187D01*
X133711439Y-103441391D01*
X133749500Y-103507314D01*
X133842686Y-103600500D01*
X133956814Y-103666392D01*
X134084108Y-103700500D01*
X134084110Y-103700500D01*
X134215890Y-103700500D01*
X134215892Y-103700500D01*
X134343186Y-103666392D01*
X134457314Y-103600500D01*
X134550500Y-103507314D01*
X134616392Y-103393186D01*
X134650500Y-103265892D01*
X134650500Y-103134108D01*
X134616392Y-103006814D01*
X134550500Y-102892686D01*
X134457314Y-102799500D01*
X134400250Y-102766554D01*
X134343187Y-102733608D01*
X134279539Y-102716554D01*
X134215892Y-102699500D01*
X134084108Y-102699500D01*
X133956812Y-102733608D01*
X133842686Y-102799500D01*
X133842683Y-102799502D01*
X133749502Y-102892683D01*
X133749500Y-102892686D01*
X133683608Y-103006812D01*
X133649500Y-103134108D01*
X130475523Y-103134108D01*
X130500500Y-103040892D01*
X130500500Y-102909108D01*
X130466392Y-102781814D01*
X130400500Y-102667686D01*
X130307314Y-102574500D01*
X130250250Y-102541554D01*
X130193187Y-102508608D01*
X130129539Y-102491554D01*
X130065892Y-102474500D01*
X129934108Y-102474500D01*
X129806812Y-102508608D01*
X129692686Y-102574500D01*
X129692683Y-102574502D01*
X129599502Y-102667683D01*
X129599500Y-102667686D01*
X129533608Y-102781812D01*
X129503901Y-102892683D01*
X129499500Y-102909108D01*
X119275500Y-102909108D01*
X119275500Y-101471153D01*
X139859500Y-101471153D01*
X139859500Y-101628846D01*
X139890261Y-101783489D01*
X139890264Y-101783501D01*
X139950602Y-101929172D01*
X139950609Y-101929185D01*
X140038210Y-102060288D01*
X140038213Y-102060292D01*
X140149707Y-102171786D01*
X140149711Y-102171789D01*
X140280814Y-102259390D01*
X140280827Y-102259397D01*
X140426498Y-102319735D01*
X140426503Y-102319737D01*
X140581153Y-102350499D01*
X140581156Y-102350500D01*
X140581158Y-102350500D01*
X140738844Y-102350500D01*
X140738845Y-102350499D01*
X140893497Y-102319737D01*
X141039179Y-102259394D01*
X141170289Y-102171789D01*
X141281789Y-102060289D01*
X141369394Y-101929179D01*
X141429737Y-101783497D01*
X141460500Y-101628842D01*
X141460500Y-101471158D01*
X141460500Y-101471155D01*
X141460499Y-101471153D01*
X141429738Y-101316510D01*
X141429737Y-101316503D01*
X141429735Y-101316498D01*
X141369397Y-101170827D01*
X141369390Y-101170814D01*
X141281789Y-101039711D01*
X141281786Y-101039707D01*
X141170292Y-100928213D01*
X141170288Y-100928210D01*
X141039185Y-100840609D01*
X141039172Y-100840602D01*
X140893501Y-100780264D01*
X140893489Y-100780261D01*
X140738845Y-100749500D01*
X140738842Y-100749500D01*
X140581158Y-100749500D01*
X140581155Y-100749500D01*
X140426510Y-100780261D01*
X140426498Y-100780264D01*
X140280827Y-100840602D01*
X140280814Y-100840609D01*
X140149711Y-100928210D01*
X140149707Y-100928213D01*
X140038213Y-101039707D01*
X140038210Y-101039711D01*
X139950609Y-101170814D01*
X139950602Y-101170827D01*
X139890264Y-101316498D01*
X139890261Y-101316510D01*
X139859500Y-101471153D01*
X119275500Y-101471153D01*
X119275500Y-98224108D01*
X130229500Y-98224108D01*
X130229500Y-98355891D01*
X130263608Y-98483187D01*
X130277841Y-98507838D01*
X130329500Y-98597314D01*
X130422686Y-98690500D01*
X130536814Y-98756392D01*
X130664108Y-98790500D01*
X130664110Y-98790500D01*
X130795890Y-98790500D01*
X130795892Y-98790500D01*
X130923186Y-98756392D01*
X131013808Y-98704071D01*
X149359499Y-98704071D01*
X149384497Y-98829738D01*
X149384499Y-98829744D01*
X149433533Y-98948124D01*
X149433538Y-98948133D01*
X149504723Y-99054668D01*
X149504726Y-99054672D01*
X149595327Y-99145273D01*
X149595331Y-99145276D01*
X149701866Y-99216461D01*
X149701872Y-99216464D01*
X149701873Y-99216465D01*
X149820256Y-99265501D01*
X149820260Y-99265501D01*
X149820261Y-99265502D01*
X149945928Y-99290500D01*
X149945931Y-99290500D01*
X150074071Y-99290500D01*
X150158615Y-99273682D01*
X150199744Y-99265501D01*
X150318127Y-99216465D01*
X150424669Y-99145276D01*
X150515276Y-99054669D01*
X150586465Y-98948127D01*
X150635501Y-98829744D01*
X150660500Y-98704069D01*
X150660500Y-98575931D01*
X150660500Y-98575928D01*
X150635502Y-98450261D01*
X150635501Y-98450260D01*
X150635501Y-98450256D01*
X150586465Y-98331873D01*
X150586464Y-98331872D01*
X150586461Y-98331866D01*
X150515276Y-98225331D01*
X150515273Y-98225327D01*
X150424672Y-98134726D01*
X150424668Y-98134723D01*
X150318133Y-98063538D01*
X150318124Y-98063533D01*
X150199744Y-98014499D01*
X150199738Y-98014497D01*
X150074071Y-97989500D01*
X150074069Y-97989500D01*
X149945931Y-97989500D01*
X149945929Y-97989500D01*
X149820261Y-98014497D01*
X149820255Y-98014499D01*
X149701875Y-98063533D01*
X149701866Y-98063538D01*
X149595331Y-98134723D01*
X149595327Y-98134726D01*
X149504726Y-98225327D01*
X149504723Y-98225331D01*
X149433538Y-98331866D01*
X149433533Y-98331875D01*
X149384499Y-98450255D01*
X149384497Y-98450261D01*
X149359500Y-98575928D01*
X149359500Y-98575931D01*
X149359500Y-98704069D01*
X149359500Y-98704071D01*
X149359499Y-98704071D01*
X131013808Y-98704071D01*
X131037314Y-98690500D01*
X131130500Y-98597314D01*
X131196392Y-98483186D01*
X131230500Y-98355892D01*
X131230500Y-98224108D01*
X131196392Y-98096814D01*
X131130500Y-97982686D01*
X131037314Y-97889500D01*
X130980250Y-97856554D01*
X130923187Y-97823608D01*
X130859539Y-97806554D01*
X130795892Y-97789500D01*
X130664108Y-97789500D01*
X130536812Y-97823608D01*
X130422686Y-97889500D01*
X130422683Y-97889502D01*
X130329502Y-97982683D01*
X130329500Y-97982686D01*
X130263608Y-98096812D01*
X130229500Y-98224108D01*
X119275500Y-98224108D01*
X119275500Y-96694108D01*
X133459500Y-96694108D01*
X133459500Y-96825891D01*
X133493608Y-96953187D01*
X133526554Y-97010250D01*
X133559500Y-97067314D01*
X133652686Y-97160500D01*
X133766814Y-97226392D01*
X133894108Y-97260500D01*
X133894110Y-97260500D01*
X134025890Y-97260500D01*
X134025892Y-97260500D01*
X134153186Y-97226392D01*
X134267314Y-97160500D01*
X134360500Y-97067314D01*
X134426392Y-96953186D01*
X134460500Y-96825892D01*
X134460500Y-96694108D01*
X134426392Y-96566814D01*
X134361321Y-96454108D01*
X144689500Y-96454108D01*
X144689500Y-96585891D01*
X144723608Y-96713187D01*
X144756554Y-96770250D01*
X144789500Y-96827314D01*
X144882686Y-96920500D01*
X144996814Y-96986392D01*
X145124108Y-97020500D01*
X145124110Y-97020500D01*
X145255890Y-97020500D01*
X145255892Y-97020500D01*
X145383186Y-96986392D01*
X145497314Y-96920500D01*
X145590500Y-96827314D01*
X145656392Y-96713186D01*
X145690500Y-96585892D01*
X145690500Y-96454108D01*
X145656392Y-96326814D01*
X145590500Y-96212686D01*
X145497314Y-96119500D01*
X145440250Y-96086554D01*
X145383187Y-96053608D01*
X145319539Y-96036554D01*
X145255892Y-96019500D01*
X145124108Y-96019500D01*
X144996812Y-96053608D01*
X144882686Y-96119500D01*
X144882683Y-96119502D01*
X144789502Y-96212683D01*
X144789500Y-96212686D01*
X144723608Y-96326812D01*
X144689500Y-96454108D01*
X134361321Y-96454108D01*
X134360500Y-96452686D01*
X134267314Y-96359500D01*
X134176929Y-96307316D01*
X134153187Y-96293608D01*
X134089539Y-96276554D01*
X134025892Y-96259500D01*
X133894108Y-96259500D01*
X133766812Y-96293608D01*
X133652686Y-96359500D01*
X133652683Y-96359502D01*
X133559502Y-96452683D01*
X133559500Y-96452686D01*
X133493608Y-96566812D01*
X133459500Y-96694108D01*
X119275500Y-96694108D01*
X119275500Y-95934108D01*
X132149500Y-95934108D01*
X132149500Y-96065891D01*
X132183608Y-96193187D01*
X132194866Y-96212686D01*
X132249500Y-96307314D01*
X132342686Y-96400500D01*
X132456814Y-96466392D01*
X132584108Y-96500500D01*
X132584110Y-96500500D01*
X132715890Y-96500500D01*
X132715892Y-96500500D01*
X132843186Y-96466392D01*
X132957314Y-96400500D01*
X133050500Y-96307314D01*
X133116392Y-96193186D01*
X133150500Y-96065892D01*
X133150500Y-95934108D01*
X133116392Y-95806814D01*
X133050500Y-95692686D01*
X132957314Y-95599500D01*
X132882649Y-95556392D01*
X132843187Y-95533608D01*
X132779539Y-95516554D01*
X132715892Y-95499500D01*
X132584108Y-95499500D01*
X132456812Y-95533608D01*
X132342686Y-95599500D01*
X132342683Y-95599502D01*
X132249502Y-95692683D01*
X132249500Y-95692686D01*
X132183608Y-95806812D01*
X132149500Y-95934108D01*
X119275500Y-95934108D01*
X119275500Y-95024108D01*
X131119500Y-95024108D01*
X131119500Y-95155891D01*
X131153608Y-95283187D01*
X131186554Y-95340250D01*
X131219500Y-95397314D01*
X131312686Y-95490500D01*
X131426814Y-95556392D01*
X131554108Y-95590500D01*
X131554110Y-95590500D01*
X131685890Y-95590500D01*
X131685892Y-95590500D01*
X131813186Y-95556392D01*
X131927314Y-95490500D01*
X132020500Y-95397314D01*
X132086392Y-95283186D01*
X132120229Y-95156902D01*
X148081668Y-95156902D01*
X148106666Y-95282569D01*
X148106668Y-95282575D01*
X148155702Y-95400955D01*
X148155707Y-95400964D01*
X148226892Y-95507499D01*
X148226895Y-95507503D01*
X148317496Y-95598104D01*
X148317500Y-95598107D01*
X148424035Y-95669292D01*
X148424041Y-95669295D01*
X148424042Y-95669296D01*
X148542425Y-95718332D01*
X148542429Y-95718332D01*
X148542430Y-95718333D01*
X148668097Y-95743331D01*
X148668100Y-95743331D01*
X148796240Y-95743331D01*
X148880784Y-95726513D01*
X148921913Y-95718332D01*
X149040296Y-95669296D01*
X149146838Y-95598107D01*
X149237445Y-95507500D01*
X149308634Y-95400958D01*
X149357670Y-95282575D01*
X149382669Y-95156900D01*
X149382669Y-95028762D01*
X149382669Y-95028759D01*
X149357671Y-94903092D01*
X149357670Y-94903091D01*
X149357670Y-94903087D01*
X149308634Y-94784704D01*
X149308633Y-94784703D01*
X149308630Y-94784697D01*
X149237445Y-94678162D01*
X149237442Y-94678158D01*
X149146841Y-94587557D01*
X149146837Y-94587554D01*
X149040302Y-94516369D01*
X149040293Y-94516364D01*
X148921913Y-94467330D01*
X148921907Y-94467328D01*
X148796240Y-94442331D01*
X148796238Y-94442331D01*
X148668100Y-94442331D01*
X148668098Y-94442331D01*
X148542430Y-94467328D01*
X148542424Y-94467330D01*
X148424044Y-94516364D01*
X148424035Y-94516369D01*
X148317500Y-94587554D01*
X148317496Y-94587557D01*
X148226895Y-94678158D01*
X148226892Y-94678162D01*
X148155707Y-94784697D01*
X148155702Y-94784706D01*
X148106668Y-94903086D01*
X148106666Y-94903092D01*
X148081669Y-95028759D01*
X148081669Y-95028762D01*
X148081669Y-95156900D01*
X148081669Y-95156902D01*
X148081668Y-95156902D01*
X132120229Y-95156902D01*
X132120500Y-95155892D01*
X132120500Y-95024108D01*
X132086392Y-94896814D01*
X132020500Y-94782686D01*
X131927314Y-94689500D01*
X131870250Y-94656554D01*
X131813187Y-94623608D01*
X131749539Y-94606554D01*
X131685892Y-94589500D01*
X131554108Y-94589500D01*
X131426812Y-94623608D01*
X131312686Y-94689500D01*
X131312683Y-94689502D01*
X131219502Y-94782683D01*
X131219500Y-94782686D01*
X131153608Y-94896812D01*
X131119500Y-95024108D01*
X119275500Y-95024108D01*
X119275500Y-91334108D01*
X152609500Y-91334108D01*
X152609500Y-91465891D01*
X152643608Y-91593187D01*
X152676554Y-91650250D01*
X152709500Y-91707314D01*
X152802686Y-91800500D01*
X152916814Y-91866392D01*
X153044108Y-91900500D01*
X153044110Y-91900500D01*
X153175890Y-91900500D01*
X153175892Y-91900500D01*
X153303186Y-91866392D01*
X153417314Y-91800500D01*
X153510500Y-91707314D01*
X153575499Y-91594731D01*
X153626066Y-91546516D01*
X153694673Y-91533293D01*
X153759538Y-91559261D01*
X153790273Y-91594731D01*
X153790274Y-91594732D01*
X153849500Y-91697314D01*
X153942686Y-91790500D01*
X154056814Y-91856392D01*
X154184108Y-91890500D01*
X154184110Y-91890500D01*
X154315890Y-91890500D01*
X154315892Y-91890500D01*
X154443186Y-91856392D01*
X154557314Y-91790500D01*
X154650500Y-91697314D01*
X154716392Y-91583186D01*
X154750500Y-91455892D01*
X154750500Y-91324108D01*
X154716392Y-91196814D01*
X154715499Y-91195268D01*
X154707563Y-91181521D01*
X154650500Y-91082686D01*
X154557314Y-90989500D01*
X154498031Y-90955273D01*
X154443187Y-90923608D01*
X154379539Y-90906554D01*
X154315892Y-90889500D01*
X154184108Y-90889500D01*
X154056812Y-90923608D01*
X153942686Y-90989500D01*
X153942683Y-90989502D01*
X153849502Y-91082683D01*
X153849500Y-91082686D01*
X153784500Y-91195268D01*
X153733932Y-91243483D01*
X153665325Y-91256705D01*
X153600460Y-91230737D01*
X153569726Y-91195268D01*
X153515011Y-91100500D01*
X153510500Y-91092686D01*
X153417314Y-90999500D01*
X153340711Y-90955273D01*
X153303187Y-90933608D01*
X153212802Y-90909390D01*
X153175892Y-90899500D01*
X153044108Y-90899500D01*
X152916812Y-90933608D01*
X152802686Y-90999500D01*
X152802683Y-90999502D01*
X152709502Y-91092683D01*
X152709500Y-91092686D01*
X152643608Y-91206812D01*
X152609500Y-91334108D01*
X119275500Y-91334108D01*
X119275500Y-90514071D01*
X125579499Y-90514071D01*
X125604497Y-90639738D01*
X125604499Y-90639744D01*
X125653533Y-90758124D01*
X125653538Y-90758133D01*
X125724723Y-90864668D01*
X125724726Y-90864672D01*
X125815327Y-90955273D01*
X125815331Y-90955276D01*
X125921866Y-91026461D01*
X125921872Y-91026464D01*
X125921873Y-91026465D01*
X126040256Y-91075501D01*
X126040260Y-91075501D01*
X126040261Y-91075502D01*
X126165928Y-91100500D01*
X126165931Y-91100500D01*
X126294071Y-91100500D01*
X126378615Y-91083682D01*
X126419744Y-91075501D01*
X126538127Y-91026465D01*
X126644669Y-90955276D01*
X126735276Y-90864669D01*
X126806465Y-90758127D01*
X126855501Y-90639744D01*
X126867547Y-90579185D01*
X126880500Y-90514071D01*
X126880500Y-90385928D01*
X126855502Y-90260261D01*
X126855501Y-90260260D01*
X126855501Y-90260256D01*
X126806465Y-90141873D01*
X126806464Y-90141872D01*
X126806461Y-90141866D01*
X126792621Y-90121153D01*
X162899500Y-90121153D01*
X162899500Y-90278846D01*
X162930261Y-90433489D01*
X162930264Y-90433501D01*
X162990602Y-90579172D01*
X162990609Y-90579185D01*
X163078210Y-90710288D01*
X163078213Y-90710292D01*
X163189707Y-90821786D01*
X163189711Y-90821789D01*
X163320814Y-90909390D01*
X163320827Y-90909397D01*
X163466498Y-90969735D01*
X163466503Y-90969737D01*
X163565858Y-90989500D01*
X163621153Y-91000499D01*
X163621156Y-91000500D01*
X163621158Y-91000500D01*
X163778844Y-91000500D01*
X163778845Y-91000499D01*
X163933497Y-90969737D01*
X164079179Y-90909394D01*
X164210289Y-90821789D01*
X164321789Y-90710289D01*
X164409394Y-90579179D01*
X164469737Y-90433497D01*
X164500500Y-90278842D01*
X164500500Y-90121158D01*
X164500500Y-90121155D01*
X164500499Y-90121153D01*
X164469738Y-89966510D01*
X164469737Y-89966503D01*
X164460716Y-89944724D01*
X164409397Y-89820827D01*
X164409390Y-89820814D01*
X164321789Y-89689711D01*
X164321786Y-89689707D01*
X164210292Y-89578213D01*
X164210288Y-89578210D01*
X164079185Y-89490609D01*
X164079172Y-89490602D01*
X163933501Y-89430264D01*
X163933489Y-89430261D01*
X163778845Y-89399500D01*
X163778842Y-89399500D01*
X163621158Y-89399500D01*
X163621155Y-89399500D01*
X163466510Y-89430261D01*
X163466498Y-89430264D01*
X163320827Y-89490602D01*
X163320814Y-89490609D01*
X163189711Y-89578210D01*
X163189707Y-89578213D01*
X163078213Y-89689707D01*
X163078210Y-89689711D01*
X162990609Y-89820814D01*
X162990602Y-89820827D01*
X162930264Y-89966498D01*
X162930261Y-89966510D01*
X162899500Y-90121153D01*
X126792621Y-90121153D01*
X126735276Y-90035331D01*
X126735273Y-90035327D01*
X126644672Y-89944726D01*
X126644668Y-89944723D01*
X126538133Y-89873538D01*
X126538124Y-89873533D01*
X126419744Y-89824499D01*
X126419738Y-89824497D01*
X126294071Y-89799500D01*
X126294069Y-89799500D01*
X126165931Y-89799500D01*
X126165929Y-89799500D01*
X126040261Y-89824497D01*
X126040255Y-89824499D01*
X125921875Y-89873533D01*
X125921866Y-89873538D01*
X125815331Y-89944723D01*
X125815327Y-89944726D01*
X125724726Y-90035327D01*
X125724723Y-90035331D01*
X125653538Y-90141866D01*
X125653533Y-90141875D01*
X125604499Y-90260255D01*
X125604497Y-90260261D01*
X125579500Y-90385928D01*
X125579500Y-90385931D01*
X125579500Y-90514069D01*
X125579500Y-90514071D01*
X125579499Y-90514071D01*
X119275500Y-90514071D01*
X119275500Y-87814071D01*
X121799499Y-87814071D01*
X121824497Y-87939738D01*
X121824499Y-87939744D01*
X121873533Y-88058124D01*
X121873538Y-88058133D01*
X121944723Y-88164668D01*
X121944726Y-88164672D01*
X122035327Y-88255273D01*
X122035331Y-88255276D01*
X122141866Y-88326461D01*
X122141872Y-88326464D01*
X122141873Y-88326465D01*
X122260256Y-88375501D01*
X122260260Y-88375501D01*
X122260261Y-88375502D01*
X122385928Y-88400500D01*
X122385931Y-88400500D01*
X122514071Y-88400500D01*
X122598615Y-88383682D01*
X122639744Y-88375501D01*
X122758127Y-88326465D01*
X122864669Y-88255276D01*
X122955276Y-88164669D01*
X123026465Y-88058127D01*
X123075501Y-87939744D01*
X123100500Y-87814069D01*
X123100500Y-87685931D01*
X123100500Y-87685928D01*
X123075502Y-87560261D01*
X123075501Y-87560260D01*
X123075501Y-87560256D01*
X123026465Y-87441873D01*
X123026464Y-87441872D01*
X123026461Y-87441866D01*
X122955276Y-87335331D01*
X122955273Y-87335327D01*
X122864672Y-87244726D01*
X122864668Y-87244723D01*
X122818850Y-87214108D01*
X142769500Y-87214108D01*
X142769500Y-87345891D01*
X142803608Y-87473187D01*
X142836554Y-87530250D01*
X142869500Y-87587314D01*
X142962686Y-87680500D01*
X143076814Y-87746392D01*
X143204108Y-87780500D01*
X143204110Y-87780500D01*
X143335890Y-87780500D01*
X143335892Y-87780500D01*
X143463186Y-87746392D01*
X143577314Y-87680500D01*
X143670500Y-87587314D01*
X143736392Y-87473186D01*
X143770500Y-87345892D01*
X143770500Y-87214108D01*
X143736392Y-87086814D01*
X143670500Y-86972686D01*
X143577314Y-86879500D01*
X143520250Y-86846554D01*
X143463187Y-86813608D01*
X143399539Y-86796554D01*
X143335892Y-86779500D01*
X143204108Y-86779500D01*
X143076812Y-86813608D01*
X142962686Y-86879500D01*
X142962683Y-86879502D01*
X142869502Y-86972683D01*
X142869500Y-86972686D01*
X142803608Y-87086812D01*
X142769500Y-87214108D01*
X122818850Y-87214108D01*
X122758133Y-87173538D01*
X122758124Y-87173533D01*
X122639744Y-87124499D01*
X122639738Y-87124497D01*
X122514071Y-87099500D01*
X122514069Y-87099500D01*
X122385931Y-87099500D01*
X122385929Y-87099500D01*
X122260261Y-87124497D01*
X122260255Y-87124499D01*
X122141875Y-87173533D01*
X122141866Y-87173538D01*
X122035331Y-87244723D01*
X122035327Y-87244726D01*
X121944726Y-87335327D01*
X121944723Y-87335331D01*
X121873538Y-87441866D01*
X121873533Y-87441875D01*
X121824499Y-87560255D01*
X121824497Y-87560261D01*
X121799500Y-87685928D01*
X121799500Y-87685931D01*
X121799500Y-87814069D01*
X121799500Y-87814071D01*
X121799499Y-87814071D01*
X119275500Y-87814071D01*
X119275500Y-85824071D01*
X123629499Y-85824071D01*
X123654497Y-85949738D01*
X123654499Y-85949744D01*
X123703533Y-86068124D01*
X123703538Y-86068133D01*
X123774723Y-86174668D01*
X123774726Y-86174672D01*
X123865327Y-86265273D01*
X123865331Y-86265276D01*
X123971866Y-86336461D01*
X123971872Y-86336464D01*
X123971873Y-86336465D01*
X124090256Y-86385501D01*
X124090260Y-86385501D01*
X124090261Y-86385502D01*
X124215928Y-86410500D01*
X124215931Y-86410500D01*
X124344071Y-86410500D01*
X124428615Y-86393682D01*
X124469744Y-86385501D01*
X124588127Y-86336465D01*
X124694669Y-86265276D01*
X124785276Y-86174669D01*
X124856465Y-86068127D01*
X124905501Y-85949744D01*
X124930500Y-85824071D01*
X125959499Y-85824071D01*
X125984497Y-85949738D01*
X125984499Y-85949744D01*
X126033533Y-86068124D01*
X126033538Y-86068133D01*
X126104723Y-86174668D01*
X126104726Y-86174672D01*
X126195327Y-86265273D01*
X126195331Y-86265276D01*
X126301866Y-86336461D01*
X126301872Y-86336464D01*
X126301873Y-86336465D01*
X126420256Y-86385501D01*
X126420260Y-86385501D01*
X126420261Y-86385502D01*
X126545928Y-86410500D01*
X126545931Y-86410500D01*
X126674071Y-86410500D01*
X126758615Y-86393682D01*
X126799744Y-86385501D01*
X126918127Y-86336465D01*
X127024669Y-86265276D01*
X127115276Y-86174669D01*
X127186465Y-86068127D01*
X127235501Y-85949744D01*
X127260500Y-85824069D01*
X127260500Y-85695931D01*
X127260499Y-85695928D01*
X127258148Y-85684108D01*
X132599500Y-85684108D01*
X132599500Y-85815891D01*
X132633608Y-85943187D01*
X132637394Y-85949744D01*
X132699500Y-86057314D01*
X132792686Y-86150500D01*
X132906814Y-86216392D01*
X133034108Y-86250500D01*
X133034110Y-86250500D01*
X133165890Y-86250500D01*
X133165892Y-86250500D01*
X133293186Y-86216392D01*
X133407314Y-86150500D01*
X133500500Y-86057314D01*
X133566392Y-85943186D01*
X133600500Y-85815892D01*
X133600500Y-85684108D01*
X133566392Y-85556814D01*
X133500500Y-85442686D01*
X133407314Y-85349500D01*
X133350250Y-85316554D01*
X133293187Y-85283608D01*
X133229539Y-85266554D01*
X133165892Y-85249500D01*
X133034108Y-85249500D01*
X132906812Y-85283608D01*
X132792686Y-85349500D01*
X132792683Y-85349502D01*
X132699502Y-85442683D01*
X132699500Y-85442686D01*
X132633608Y-85556812D01*
X132599500Y-85684108D01*
X127258148Y-85684108D01*
X127235502Y-85570261D01*
X127235501Y-85570260D01*
X127235501Y-85570256D01*
X127186465Y-85451873D01*
X127186464Y-85451872D01*
X127186461Y-85451866D01*
X127115276Y-85345331D01*
X127115273Y-85345327D01*
X127024672Y-85254726D01*
X127024668Y-85254723D01*
X126918133Y-85183538D01*
X126918124Y-85183533D01*
X126799744Y-85134499D01*
X126799738Y-85134497D01*
X126674071Y-85109500D01*
X126674069Y-85109500D01*
X126545931Y-85109500D01*
X126545929Y-85109500D01*
X126420261Y-85134497D01*
X126420255Y-85134499D01*
X126301875Y-85183533D01*
X126301866Y-85183538D01*
X126195331Y-85254723D01*
X126195327Y-85254726D01*
X126104726Y-85345327D01*
X126104723Y-85345331D01*
X126033538Y-85451866D01*
X126033533Y-85451875D01*
X125984499Y-85570255D01*
X125984497Y-85570261D01*
X125959500Y-85695928D01*
X125959500Y-85695930D01*
X125959500Y-85695931D01*
X125959500Y-85824069D01*
X125959500Y-85824071D01*
X125959499Y-85824071D01*
X124930500Y-85824071D01*
X124930500Y-85824069D01*
X124930500Y-85695931D01*
X124930500Y-85695930D01*
X124930500Y-85695928D01*
X124905502Y-85570261D01*
X124905501Y-85570260D01*
X124905501Y-85570256D01*
X124856465Y-85451873D01*
X124856464Y-85451872D01*
X124856461Y-85451866D01*
X124785276Y-85345331D01*
X124785273Y-85345327D01*
X124694672Y-85254726D01*
X124694668Y-85254723D01*
X124588133Y-85183538D01*
X124588124Y-85183533D01*
X124469744Y-85134499D01*
X124469738Y-85134497D01*
X124344071Y-85109500D01*
X124344069Y-85109500D01*
X124215931Y-85109500D01*
X124215929Y-85109500D01*
X124090261Y-85134497D01*
X124090255Y-85134499D01*
X123971875Y-85183533D01*
X123971866Y-85183538D01*
X123865331Y-85254723D01*
X123865327Y-85254726D01*
X123774726Y-85345327D01*
X123774723Y-85345331D01*
X123703538Y-85451866D01*
X123703533Y-85451875D01*
X123654499Y-85570255D01*
X123654497Y-85570261D01*
X123629500Y-85695928D01*
X123629500Y-85695930D01*
X123629500Y-85695931D01*
X123629500Y-85824069D01*
X123629500Y-85824071D01*
X123629499Y-85824071D01*
X119275500Y-85824071D01*
X119275500Y-83799108D01*
X130509500Y-83799108D01*
X130509500Y-83930891D01*
X130543608Y-84058187D01*
X130576554Y-84115250D01*
X130609500Y-84172314D01*
X130702686Y-84265500D01*
X130816814Y-84331392D01*
X130944108Y-84365500D01*
X130944110Y-84365500D01*
X131075890Y-84365500D01*
X131075892Y-84365500D01*
X131203186Y-84331392D01*
X131317314Y-84265500D01*
X131410500Y-84172314D01*
X131476392Y-84058186D01*
X131510500Y-83930892D01*
X131510500Y-83799108D01*
X131476392Y-83671814D01*
X131410500Y-83557686D01*
X131317314Y-83464500D01*
X131260250Y-83431554D01*
X131203187Y-83398608D01*
X131139539Y-83381554D01*
X131075892Y-83364500D01*
X130944108Y-83364500D01*
X130816812Y-83398608D01*
X130702686Y-83464500D01*
X130702683Y-83464502D01*
X130609502Y-83557683D01*
X130609500Y-83557686D01*
X130543608Y-83671812D01*
X130509500Y-83799108D01*
X119275500Y-83799108D01*
X119275500Y-81411153D01*
X122739500Y-81411153D01*
X122739500Y-81568846D01*
X122770261Y-81723489D01*
X122770264Y-81723501D01*
X122830602Y-81869172D01*
X122830609Y-81869185D01*
X122918210Y-82000288D01*
X122918213Y-82000292D01*
X123029707Y-82111786D01*
X123029711Y-82111789D01*
X123160814Y-82199390D01*
X123160827Y-82199397D01*
X123306498Y-82259735D01*
X123306503Y-82259737D01*
X123461153Y-82290499D01*
X123461156Y-82290500D01*
X123461158Y-82290500D01*
X123618844Y-82290500D01*
X123618845Y-82290499D01*
X123773497Y-82259737D01*
X123919179Y-82199394D01*
X124050289Y-82111789D01*
X124161789Y-82000289D01*
X124249394Y-81869179D01*
X124309737Y-81723497D01*
X124340500Y-81568842D01*
X124340500Y-81411158D01*
X124340500Y-81411155D01*
X124340499Y-81411153D01*
X124309738Y-81256510D01*
X124309737Y-81256503D01*
X124309735Y-81256498D01*
X124249397Y-81110827D01*
X124249390Y-81110814D01*
X124161789Y-80979711D01*
X124161786Y-80979707D01*
X124050292Y-80868213D01*
X124050288Y-80868210D01*
X123919185Y-80780609D01*
X123919172Y-80780602D01*
X123773501Y-80720264D01*
X123773489Y-80720261D01*
X123618845Y-80689500D01*
X123618842Y-80689500D01*
X123461158Y-80689500D01*
X123461155Y-80689500D01*
X123306510Y-80720261D01*
X123306498Y-80720264D01*
X123160827Y-80780602D01*
X123160814Y-80780609D01*
X123029711Y-80868210D01*
X123029707Y-80868213D01*
X122918213Y-80979707D01*
X122918210Y-80979711D01*
X122830609Y-81110814D01*
X122830602Y-81110827D01*
X122770264Y-81256498D01*
X122770261Y-81256510D01*
X122739500Y-81411153D01*
X119275500Y-81411153D01*
X119275500Y-78979763D01*
X119295185Y-78912724D01*
X119347989Y-78866969D01*
X119398444Y-78855767D01*
X122735715Y-78827430D01*
X122802916Y-78846544D01*
X122814072Y-78854473D01*
X122930752Y-78947523D01*
X123168555Y-79096945D01*
X123421592Y-79218801D01*
X123602596Y-79282137D01*
X123686670Y-79311556D01*
X123686682Y-79311560D01*
X123960491Y-79374055D01*
X123960497Y-79374055D01*
X123960505Y-79374057D01*
X124146547Y-79395018D01*
X124239569Y-79405499D01*
X124239572Y-79405500D01*
X124239575Y-79405500D01*
X124520428Y-79405500D01*
X124520429Y-79405499D01*
X124663055Y-79389429D01*
X124799494Y-79374057D01*
X124799499Y-79374056D01*
X124799509Y-79374055D01*
X125073318Y-79311560D01*
X125338408Y-79218801D01*
X125591445Y-79096945D01*
X125829248Y-78947523D01*
X125981293Y-78826270D01*
X126045976Y-78799864D01*
X126057532Y-78799223D01*
X127236446Y-78789213D01*
X127303648Y-78808328D01*
X127349850Y-78860742D01*
X127361493Y-78914154D01*
X127359999Y-79109999D01*
X127360000Y-79109999D01*
X127360000Y-79110000D01*
X148330000Y-79180000D01*
X148328506Y-79025700D01*
X148347540Y-78958474D01*
X148399899Y-78912210D01*
X148452500Y-78900500D01*
X154840890Y-78900500D01*
X154840892Y-78900500D01*
X154968186Y-78866392D01*
X155039351Y-78825305D01*
X155485000Y-78825305D01*
X155485000Y-79054694D01*
X155485001Y-79054710D01*
X155514942Y-79282137D01*
X155574318Y-79503730D01*
X155662102Y-79715659D01*
X155662106Y-79715669D01*
X155776799Y-79914324D01*
X155776805Y-79914331D01*
X155833381Y-79988064D01*
X156480884Y-79340560D01*
X156481740Y-79342626D01*
X156574762Y-79481844D01*
X156693156Y-79600238D01*
X156832374Y-79693260D01*
X156834437Y-79694114D01*
X156186934Y-80341617D01*
X156186934Y-80341618D01*
X156260666Y-80398194D01*
X156459330Y-80512893D01*
X156459340Y-80512897D01*
X156671269Y-80600681D01*
X156892862Y-80660057D01*
X157120289Y-80689998D01*
X157120306Y-80690000D01*
X157349694Y-80690000D01*
X157349710Y-80689998D01*
X157577137Y-80660057D01*
X157798730Y-80600681D01*
X158010659Y-80512897D01*
X158010668Y-80512893D01*
X158209327Y-80398197D01*
X158209334Y-80398192D01*
X158283064Y-80341617D01*
X157635561Y-79694114D01*
X157637626Y-79693260D01*
X157776844Y-79600238D01*
X157895238Y-79481844D01*
X157988260Y-79342626D01*
X157989114Y-79340561D01*
X158636617Y-79988064D01*
X158693192Y-79914334D01*
X158693197Y-79914327D01*
X158807893Y-79715668D01*
X158807897Y-79715659D01*
X158895681Y-79503730D01*
X158955057Y-79282137D01*
X158984998Y-79054710D01*
X158985000Y-79054694D01*
X158985000Y-78825305D01*
X160565000Y-78825305D01*
X160565000Y-79054694D01*
X160565001Y-79054710D01*
X160594942Y-79282137D01*
X160654318Y-79503730D01*
X160742102Y-79715659D01*
X160742106Y-79715669D01*
X160856799Y-79914324D01*
X160856805Y-79914331D01*
X160913381Y-79988064D01*
X161560884Y-79340560D01*
X161561740Y-79342626D01*
X161654762Y-79481844D01*
X161773156Y-79600238D01*
X161912374Y-79693260D01*
X161914437Y-79694114D01*
X161266934Y-80341617D01*
X161266934Y-80341618D01*
X161340666Y-80398194D01*
X161539330Y-80512893D01*
X161539340Y-80512897D01*
X161751269Y-80600681D01*
X161972862Y-80660057D01*
X162200289Y-80689998D01*
X162200306Y-80690000D01*
X162429694Y-80690000D01*
X162429710Y-80689998D01*
X162657137Y-80660057D01*
X162878730Y-80600681D01*
X163090659Y-80512897D01*
X163090668Y-80512893D01*
X163289327Y-80398197D01*
X163289334Y-80398192D01*
X163363064Y-80341617D01*
X162715561Y-79694114D01*
X162717626Y-79693260D01*
X162856844Y-79600238D01*
X162975238Y-79481844D01*
X163068260Y-79342626D01*
X163069114Y-79340561D01*
X163716617Y-79988064D01*
X163773192Y-79914334D01*
X163773197Y-79914327D01*
X163887893Y-79715668D01*
X163887897Y-79715659D01*
X163975681Y-79503730D01*
X164035057Y-79282137D01*
X164064998Y-79054710D01*
X164065000Y-79054694D01*
X164065000Y-78825305D01*
X164064998Y-78825289D01*
X164035057Y-78597862D01*
X163975681Y-78376269D01*
X163887897Y-78164340D01*
X163887893Y-78164330D01*
X163773194Y-77965666D01*
X163716618Y-77891934D01*
X163716617Y-77891934D01*
X163069114Y-78539437D01*
X163068260Y-78537374D01*
X162975238Y-78398156D01*
X162856844Y-78279762D01*
X162717626Y-78186740D01*
X162715560Y-78185884D01*
X163363064Y-77538381D01*
X163363064Y-77538380D01*
X163289331Y-77481805D01*
X163289324Y-77481799D01*
X163090669Y-77367106D01*
X163090659Y-77367102D01*
X162878730Y-77279318D01*
X162657137Y-77219942D01*
X162429710Y-77190001D01*
X162429694Y-77190000D01*
X162200306Y-77190000D01*
X162200289Y-77190001D01*
X161972862Y-77219942D01*
X161751269Y-77279318D01*
X161539340Y-77367102D01*
X161539330Y-77367106D01*
X161340673Y-77481801D01*
X161340659Y-77481810D01*
X161266934Y-77538380D01*
X161914438Y-78185884D01*
X161912374Y-78186740D01*
X161773156Y-78279762D01*
X161654762Y-78398156D01*
X161561740Y-78537374D01*
X161560884Y-78539438D01*
X160913380Y-77891934D01*
X160856810Y-77965659D01*
X160856801Y-77965673D01*
X160742106Y-78164330D01*
X160742102Y-78164340D01*
X160654318Y-78376269D01*
X160594942Y-78597862D01*
X160565001Y-78825289D01*
X160565000Y-78825305D01*
X158985000Y-78825305D01*
X158984998Y-78825289D01*
X158955057Y-78597862D01*
X158895681Y-78376269D01*
X158807897Y-78164340D01*
X158807893Y-78164330D01*
X158693194Y-77965666D01*
X158636618Y-77891934D01*
X158636617Y-77891934D01*
X157989114Y-78539437D01*
X157988260Y-78537374D01*
X157895238Y-78398156D01*
X157776844Y-78279762D01*
X157637626Y-78186740D01*
X157635560Y-78185884D01*
X158283064Y-77538381D01*
X158283064Y-77538380D01*
X158209331Y-77481805D01*
X158209324Y-77481799D01*
X158010669Y-77367106D01*
X158010659Y-77367102D01*
X157798730Y-77279318D01*
X157577137Y-77219942D01*
X157349710Y-77190001D01*
X157349694Y-77190000D01*
X157120306Y-77190000D01*
X157120289Y-77190001D01*
X156892862Y-77219942D01*
X156671269Y-77279318D01*
X156459340Y-77367102D01*
X156459330Y-77367106D01*
X156260673Y-77481801D01*
X156260659Y-77481810D01*
X156186934Y-77538380D01*
X156834438Y-78185884D01*
X156832374Y-78186740D01*
X156693156Y-78279762D01*
X156574762Y-78398156D01*
X156481740Y-78537374D01*
X156480884Y-78539438D01*
X155833380Y-77891934D01*
X155776810Y-77965659D01*
X155776801Y-77965673D01*
X155662106Y-78164330D01*
X155662102Y-78164340D01*
X155574318Y-78376269D01*
X155514942Y-78597862D01*
X155485001Y-78825289D01*
X155485000Y-78825305D01*
X155039351Y-78825305D01*
X155082314Y-78800500D01*
X155175500Y-78707314D01*
X155241392Y-78593186D01*
X155275500Y-78465892D01*
X155275500Y-76498543D01*
X158774499Y-76498543D01*
X158812947Y-76691829D01*
X158812950Y-76691839D01*
X158888364Y-76873907D01*
X158888371Y-76873920D01*
X158997860Y-77037781D01*
X158997863Y-77037785D01*
X159137214Y-77177136D01*
X159137218Y-77177139D01*
X159301079Y-77286628D01*
X159301092Y-77286635D01*
X159483160Y-77362049D01*
X159483165Y-77362051D01*
X159483169Y-77362051D01*
X159483170Y-77362052D01*
X159676456Y-77400500D01*
X159676459Y-77400500D01*
X159873543Y-77400500D01*
X160041442Y-77367102D01*
X160066835Y-77362051D01*
X160248914Y-77286632D01*
X160412782Y-77177139D01*
X160552139Y-77037782D01*
X160661632Y-76873914D01*
X160708995Y-76759568D01*
X165774500Y-76759568D01*
X165774500Y-77040431D01*
X165805942Y-77319494D01*
X165805945Y-77319512D01*
X165868439Y-77593317D01*
X165868443Y-77593329D01*
X165961200Y-77858411D01*
X166083053Y-78111442D01*
X166083055Y-78111445D01*
X166232477Y-78349248D01*
X166407584Y-78568825D01*
X166606175Y-78767416D01*
X166825752Y-78942523D01*
X167063555Y-79091945D01*
X167316592Y-79213801D01*
X167511885Y-79282137D01*
X167581670Y-79306556D01*
X167581682Y-79306560D01*
X167855491Y-79369055D01*
X167855497Y-79369055D01*
X167855505Y-79369057D01*
X168041547Y-79390018D01*
X168134569Y-79400499D01*
X168134572Y-79400500D01*
X168134575Y-79400500D01*
X168415428Y-79400500D01*
X168415429Y-79400499D01*
X168558055Y-79384429D01*
X168694494Y-79369057D01*
X168694499Y-79369056D01*
X168694509Y-79369055D01*
X168968318Y-79306560D01*
X169233408Y-79213801D01*
X169486445Y-79091945D01*
X169724248Y-78942523D01*
X169943825Y-78767416D01*
X170142416Y-78568825D01*
X170317523Y-78349248D01*
X170466945Y-78111445D01*
X170588801Y-77858408D01*
X170681560Y-77593318D01*
X170744055Y-77319509D01*
X170747760Y-77286632D01*
X170760096Y-77177136D01*
X170775500Y-77040425D01*
X170775500Y-76759575D01*
X170765018Y-76666547D01*
X170744057Y-76480505D01*
X170744054Y-76480487D01*
X170703191Y-76301456D01*
X170681560Y-76206682D01*
X170588801Y-75941592D01*
X170466945Y-75688555D01*
X170317523Y-75450752D01*
X170142416Y-75231175D01*
X169943825Y-75032584D01*
X169724248Y-74857477D01*
X169560004Y-74754275D01*
X169486442Y-74708053D01*
X169233411Y-74586200D01*
X168968329Y-74493443D01*
X168968317Y-74493439D01*
X168694512Y-74430945D01*
X168694494Y-74430942D01*
X168415431Y-74399500D01*
X168415425Y-74399500D01*
X168134575Y-74399500D01*
X168134568Y-74399500D01*
X167855505Y-74430942D01*
X167855487Y-74430945D01*
X167581682Y-74493439D01*
X167581670Y-74493443D01*
X167316588Y-74586200D01*
X167063557Y-74708053D01*
X166825753Y-74857476D01*
X166606175Y-75032583D01*
X166407583Y-75231175D01*
X166232476Y-75450753D01*
X166083053Y-75688557D01*
X165961200Y-75941588D01*
X165868443Y-76206670D01*
X165868439Y-76206682D01*
X165805945Y-76480487D01*
X165805942Y-76480505D01*
X165774500Y-76759568D01*
X160708995Y-76759568D01*
X160737051Y-76691835D01*
X160775500Y-76498541D01*
X160775500Y-76301459D01*
X160775500Y-76301456D01*
X160737052Y-76108170D01*
X160737051Y-76108169D01*
X160737051Y-76108165D01*
X160668055Y-75941592D01*
X160661635Y-75926092D01*
X160661628Y-75926079D01*
X160552139Y-75762218D01*
X160552136Y-75762214D01*
X160412785Y-75622863D01*
X160412781Y-75622860D01*
X160248920Y-75513371D01*
X160248907Y-75513364D01*
X160066839Y-75437950D01*
X160066829Y-75437947D01*
X159873543Y-75399500D01*
X159873541Y-75399500D01*
X159676459Y-75399500D01*
X159676457Y-75399500D01*
X159483170Y-75437947D01*
X159483160Y-75437950D01*
X159301092Y-75513364D01*
X159301079Y-75513371D01*
X159137218Y-75622860D01*
X159137214Y-75622863D01*
X158997863Y-75762214D01*
X158997860Y-75762218D01*
X158888371Y-75926079D01*
X158888364Y-75926092D01*
X158812950Y-76108160D01*
X158812947Y-76108170D01*
X158774500Y-76301456D01*
X158774500Y-76301459D01*
X158774500Y-76498541D01*
X158774500Y-76498543D01*
X158774499Y-76498543D01*
X155275500Y-76498543D01*
X155275500Y-74250399D01*
X155295185Y-74183360D01*
X155347989Y-74137605D01*
X155417147Y-74127661D01*
X155480703Y-74156686D01*
X155518477Y-74215464D01*
X155519275Y-74218305D01*
X155574318Y-74423730D01*
X155662102Y-74635659D01*
X155662106Y-74635669D01*
X155776799Y-74834324D01*
X155776805Y-74834331D01*
X155833381Y-74908064D01*
X156480884Y-74260560D01*
X156481740Y-74262626D01*
X156574762Y-74401844D01*
X156693156Y-74520238D01*
X156832374Y-74613260D01*
X156834437Y-74614114D01*
X156186934Y-75261617D01*
X156186934Y-75261618D01*
X156260666Y-75318194D01*
X156459330Y-75432893D01*
X156459340Y-75432897D01*
X156671269Y-75520681D01*
X156892862Y-75580057D01*
X157120289Y-75609998D01*
X157120306Y-75610000D01*
X157349694Y-75610000D01*
X157349710Y-75609998D01*
X157577137Y-75580057D01*
X157798730Y-75520681D01*
X158010659Y-75432897D01*
X158010668Y-75432893D01*
X158209327Y-75318197D01*
X158209334Y-75318192D01*
X158283064Y-75261617D01*
X157635561Y-74614114D01*
X157637626Y-74613260D01*
X157776844Y-74520238D01*
X157895238Y-74401844D01*
X157988260Y-74262626D01*
X157989114Y-74260561D01*
X158636617Y-74908064D01*
X158693192Y-74834334D01*
X158693197Y-74834327D01*
X158807893Y-74635668D01*
X158807897Y-74635659D01*
X158895681Y-74423730D01*
X158955057Y-74202137D01*
X158984998Y-73974710D01*
X158985000Y-73974694D01*
X158985000Y-73745305D01*
X158984998Y-73745289D01*
X158955057Y-73517862D01*
X158895681Y-73296269D01*
X158807897Y-73084340D01*
X158807893Y-73084330D01*
X158693194Y-72885666D01*
X158636618Y-72811934D01*
X158636617Y-72811934D01*
X157989114Y-73459437D01*
X157988260Y-73457374D01*
X157895238Y-73318156D01*
X157776844Y-73199762D01*
X157637626Y-73106740D01*
X157635560Y-73105884D01*
X158304627Y-72436819D01*
X158365950Y-72403334D01*
X158392308Y-72400500D01*
X161157691Y-72400500D01*
X161224730Y-72420185D01*
G37*
%TD.AperFunction*%
%TA.AperFunction,Conductor*%
G36*
X156144730Y-72420185D02*
G01*
X156165372Y-72436819D01*
X156834438Y-73105885D01*
X156832374Y-73106740D01*
X156693156Y-73199762D01*
X156574762Y-73318156D01*
X156481740Y-73457374D01*
X156480884Y-73459438D01*
X155833380Y-72811934D01*
X155776810Y-72885659D01*
X155776801Y-72885673D01*
X155662106Y-73084330D01*
X155662102Y-73084340D01*
X155574318Y-73296269D01*
X155519275Y-73501694D01*
X155482910Y-73561354D01*
X155420063Y-73591883D01*
X155350687Y-73583588D01*
X155296809Y-73539103D01*
X155275535Y-73472551D01*
X155275500Y-73469600D01*
X155275500Y-72524500D01*
X155295185Y-72457461D01*
X155347989Y-72411706D01*
X155399500Y-72400500D01*
X155409108Y-72400500D01*
X156077691Y-72400500D01*
X156144730Y-72420185D01*
G37*
%TD.AperFunction*%
%TD*%
M02*
