%TF.GenerationSoftware,KiCad,Pcbnew,9.0.5*%
%TF.CreationDate,2025-12-06T02:43:12+13:00*%
%TF.ProjectId,Logger_Dev_001,4c6f6767-6572-45f4-9465-765f3030312e,rev?*%
%TF.SameCoordinates,Original*%
%TF.FileFunction,Soldermask,Top*%
%TF.FilePolarity,Negative*%
%FSLAX46Y46*%
G04 Gerber Fmt 4.6, Leading zero omitted, Abs format (unit mm)*
G04 Created by KiCad (PCBNEW 9.0.5) date 2025-12-06 02:43:12*
%MOMM*%
%LPD*%
G01*
G04 APERTURE LIST*
G04 Aperture macros list*
%AMRoundRect*
0 Rectangle with rounded corners*
0 $1 Rounding radius*
0 $2 $3 $4 $5 $6 $7 $8 $9 X,Y pos of 4 corners*
0 Add a 4 corners polygon primitive as box body*
4,1,4,$2,$3,$4,$5,$6,$7,$8,$9,$2,$3,0*
0 Add four circle primitives for the rounded corners*
1,1,$1+$1,$2,$3*
1,1,$1+$1,$4,$5*
1,1,$1+$1,$6,$7*
1,1,$1+$1,$8,$9*
0 Add four rect primitives between the rounded corners*
20,1,$1+$1,$2,$3,$4,$5,0*
20,1,$1+$1,$4,$5,$6,$7,0*
20,1,$1+$1,$6,$7,$8,$9,0*
20,1,$1+$1,$8,$9,$2,$3,0*%
G04 Aperture macros list end*
%ADD10C,0.100000*%
%ADD11C,0.150000*%
%ADD12C,0.300000*%
%ADD13C,0.400000*%
%ADD14RoundRect,0.159000X0.189000X-0.159000X0.189000X0.159000X-0.189000X0.159000X-0.189000X-0.159000X0*%
%ADD15RoundRect,0.250000X-1.350000X1.350000X-1.350000X-1.350000X1.350000X-1.350000X1.350000X1.350000X0*%
%ADD16O,0.900000X0.280000*%
%ADD17O,0.280000X0.900000*%
%ADD18RoundRect,0.220000X-0.220000X-0.255000X0.220000X-0.255000X0.220000X0.255000X-0.220000X0.255000X0*%
%ADD19RoundRect,0.244000X0.269000X-0.244000X0.269000X0.244000X-0.269000X0.244000X-0.269000X-0.244000X0*%
%ADD20C,0.600000*%
%ADD21R,0.300000X1.400000*%
%ADD22R,0.500000X1.400000*%
%ADD23O,1.300000X2.300000*%
%ADD24O,1.300000X2.100000*%
%ADD25C,0.500000*%
%ADD26RoundRect,0.500000X-2.000000X-1.000000X2.000000X-1.000000X2.000000X1.000000X-2.000000X1.000000X0*%
%ADD27RoundRect,0.159000X0.159000X0.189000X-0.159000X0.189000X-0.159000X-0.189000X0.159000X-0.189000X0*%
%ADD28RoundRect,0.265778X0.647222X-0.332222X0.647222X0.332222X-0.647222X0.332222X-0.647222X-0.332222X0*%
%ADD29RoundRect,0.200100X-0.949900X-0.949900X0.949900X-0.949900X0.949900X0.949900X-0.949900X0.949900X0*%
%ADD30C,2.500000*%
%ADD31RoundRect,0.159000X-0.159000X-0.189000X0.159000X-0.189000X0.159000X0.189000X-0.159000X0.189000X0*%
%ADD32RoundRect,0.159000X-0.189000X0.159000X-0.189000X-0.159000X0.189000X-0.159000X0.189000X0.159000X0*%
%ADD33RoundRect,0.220000X0.380000X-0.220000X0.380000X0.220000X-0.380000X0.220000X-0.380000X-0.220000X0*%
%ADD34RoundRect,0.261500X0.476500X-0.261500X0.476500X0.261500X-0.476500X0.261500X-0.476500X-0.261500X0*%
%ADD35RoundRect,0.260556X-1.027444X-0.677444X1.027444X-0.677444X1.027444X0.677444X-1.027444X0.677444X0*%
%ADD36RoundRect,0.287778X0.489222X0.714222X-0.489222X0.714222X-0.489222X-0.714222X0.489222X-0.714222X0*%
%ADD37RoundRect,0.169000X0.169000X0.219000X-0.169000X0.219000X-0.169000X-0.219000X0.169000X-0.219000X0*%
%ADD38R,0.812800X1.803400*%
%ADD39RoundRect,0.102000X-2.100000X1.500000X-2.100000X-1.500000X2.100000X-1.500000X2.100000X1.500000X0*%
%ADD40RoundRect,0.150000X0.590000X0.150000X-0.590000X0.150000X-0.590000X-0.150000X0.590000X-0.150000X0*%
%ADD41RoundRect,0.169000X-0.169000X-0.219000X0.169000X-0.219000X0.169000X0.219000X-0.169000X0.219000X0*%
%ADD42RoundRect,0.100000X-0.100000X0.225000X-0.100000X-0.225000X0.100000X-0.225000X0.100000X0.225000X0*%
%ADD43RoundRect,0.102000X0.150000X-0.350000X0.150000X0.350000X-0.150000X0.350000X-0.150000X-0.350000X0*%
%ADD44C,0.900000*%
%ADD45R,1.600000X0.700000*%
%ADD46R,2.200000X1.200000*%
%ADD47R,1.400000X1.600000*%
%ADD48R,1.400000X1.200000*%
%ADD49RoundRect,0.261500X0.261500X0.476500X-0.261500X0.476500X-0.261500X-0.476500X0.261500X-0.476500X0*%
%ADD50RoundRect,0.250000X-0.300000X1.000000X-0.300000X-1.000000X0.300000X-1.000000X0.300000X1.000000X0*%
%ADD51RoundRect,0.250000X-1.550000X0.920000X-1.550000X-0.920000X1.550000X-0.920000X1.550000X0.920000X0*%
%ADD52RoundRect,0.258261X1.029739X0.929739X-1.029739X0.929739X-1.029739X-0.929739X1.029739X-0.929739X0*%
%ADD53R,1.500000X0.900000*%
%ADD54R,0.800000X0.800000*%
G04 APERTURE END LIST*
D10*
D11*
X177002200Y-166007200D02*
X285002200Y-166007200D01*
X285002200Y-198007200D01*
X177002200Y-198007200D01*
X177002200Y-166007200D01*
D10*
D11*
X10000000Y-10000000D02*
X287002200Y-10000000D01*
X287002200Y-200007200D01*
X10000000Y-200007200D01*
X10000000Y-10000000D01*
D10*
D11*
X12000000Y-12000000D02*
X285002200Y-12000000D01*
X285002200Y-198007200D01*
X12000000Y-198007200D01*
X12000000Y-12000000D01*
D10*
D11*
X60000000Y-12000000D02*
X60000000Y-10000000D01*
D10*
D11*
X110000000Y-12000000D02*
X110000000Y-10000000D01*
D10*
D11*
X160000000Y-12000000D02*
X160000000Y-10000000D01*
D10*
D11*
X210000000Y-12000000D02*
X210000000Y-10000000D01*
D10*
D11*
X260000000Y-12000000D02*
X260000000Y-10000000D01*
D10*
D11*
X36089160Y-11593604D02*
X35346303Y-11593604D01*
X35717731Y-11593604D02*
X35717731Y-10293604D01*
X35717731Y-10293604D02*
X35593922Y-10479319D01*
X35593922Y-10479319D02*
X35470112Y-10603128D01*
X35470112Y-10603128D02*
X35346303Y-10665033D01*
D10*
D11*
X85346303Y-10417414D02*
X85408207Y-10355509D01*
X85408207Y-10355509D02*
X85532017Y-10293604D01*
X85532017Y-10293604D02*
X85841541Y-10293604D01*
X85841541Y-10293604D02*
X85965350Y-10355509D01*
X85965350Y-10355509D02*
X86027255Y-10417414D01*
X86027255Y-10417414D02*
X86089160Y-10541223D01*
X86089160Y-10541223D02*
X86089160Y-10665033D01*
X86089160Y-10665033D02*
X86027255Y-10850747D01*
X86027255Y-10850747D02*
X85284398Y-11593604D01*
X85284398Y-11593604D02*
X86089160Y-11593604D01*
D10*
D11*
X135284398Y-10293604D02*
X136089160Y-10293604D01*
X136089160Y-10293604D02*
X135655826Y-10788842D01*
X135655826Y-10788842D02*
X135841541Y-10788842D01*
X135841541Y-10788842D02*
X135965350Y-10850747D01*
X135965350Y-10850747D02*
X136027255Y-10912652D01*
X136027255Y-10912652D02*
X136089160Y-11036461D01*
X136089160Y-11036461D02*
X136089160Y-11345985D01*
X136089160Y-11345985D02*
X136027255Y-11469795D01*
X136027255Y-11469795D02*
X135965350Y-11531700D01*
X135965350Y-11531700D02*
X135841541Y-11593604D01*
X135841541Y-11593604D02*
X135470112Y-11593604D01*
X135470112Y-11593604D02*
X135346303Y-11531700D01*
X135346303Y-11531700D02*
X135284398Y-11469795D01*
D10*
D11*
X185965350Y-10726938D02*
X185965350Y-11593604D01*
X185655826Y-10231700D02*
X185346303Y-11160271D01*
X185346303Y-11160271D02*
X186151064Y-11160271D01*
D10*
D11*
X236027255Y-10293604D02*
X235408207Y-10293604D01*
X235408207Y-10293604D02*
X235346303Y-10912652D01*
X235346303Y-10912652D02*
X235408207Y-10850747D01*
X235408207Y-10850747D02*
X235532017Y-10788842D01*
X235532017Y-10788842D02*
X235841541Y-10788842D01*
X235841541Y-10788842D02*
X235965350Y-10850747D01*
X235965350Y-10850747D02*
X236027255Y-10912652D01*
X236027255Y-10912652D02*
X236089160Y-11036461D01*
X236089160Y-11036461D02*
X236089160Y-11345985D01*
X236089160Y-11345985D02*
X236027255Y-11469795D01*
X236027255Y-11469795D02*
X235965350Y-11531700D01*
X235965350Y-11531700D02*
X235841541Y-11593604D01*
X235841541Y-11593604D02*
X235532017Y-11593604D01*
X235532017Y-11593604D02*
X235408207Y-11531700D01*
X235408207Y-11531700D02*
X235346303Y-11469795D01*
D10*
D11*
X285965350Y-10293604D02*
X285717731Y-10293604D01*
X285717731Y-10293604D02*
X285593922Y-10355509D01*
X285593922Y-10355509D02*
X285532017Y-10417414D01*
X285532017Y-10417414D02*
X285408207Y-10603128D01*
X285408207Y-10603128D02*
X285346303Y-10850747D01*
X285346303Y-10850747D02*
X285346303Y-11345985D01*
X285346303Y-11345985D02*
X285408207Y-11469795D01*
X285408207Y-11469795D02*
X285470112Y-11531700D01*
X285470112Y-11531700D02*
X285593922Y-11593604D01*
X285593922Y-11593604D02*
X285841541Y-11593604D01*
X285841541Y-11593604D02*
X285965350Y-11531700D01*
X285965350Y-11531700D02*
X286027255Y-11469795D01*
X286027255Y-11469795D02*
X286089160Y-11345985D01*
X286089160Y-11345985D02*
X286089160Y-11036461D01*
X286089160Y-11036461D02*
X286027255Y-10912652D01*
X286027255Y-10912652D02*
X285965350Y-10850747D01*
X285965350Y-10850747D02*
X285841541Y-10788842D01*
X285841541Y-10788842D02*
X285593922Y-10788842D01*
X285593922Y-10788842D02*
X285470112Y-10850747D01*
X285470112Y-10850747D02*
X285408207Y-10912652D01*
X285408207Y-10912652D02*
X285346303Y-11036461D01*
D10*
D11*
X60000000Y-198007200D02*
X60000000Y-200007200D01*
D10*
D11*
X110000000Y-198007200D02*
X110000000Y-200007200D01*
D10*
D11*
X160000000Y-198007200D02*
X160000000Y-200007200D01*
D10*
D11*
X210000000Y-198007200D02*
X210000000Y-200007200D01*
D10*
D11*
X260000000Y-198007200D02*
X260000000Y-200007200D01*
D10*
D11*
X36089160Y-199600804D02*
X35346303Y-199600804D01*
X35717731Y-199600804D02*
X35717731Y-198300804D01*
X35717731Y-198300804D02*
X35593922Y-198486519D01*
X35593922Y-198486519D02*
X35470112Y-198610328D01*
X35470112Y-198610328D02*
X35346303Y-198672233D01*
D10*
D11*
X85346303Y-198424614D02*
X85408207Y-198362709D01*
X85408207Y-198362709D02*
X85532017Y-198300804D01*
X85532017Y-198300804D02*
X85841541Y-198300804D01*
X85841541Y-198300804D02*
X85965350Y-198362709D01*
X85965350Y-198362709D02*
X86027255Y-198424614D01*
X86027255Y-198424614D02*
X86089160Y-198548423D01*
X86089160Y-198548423D02*
X86089160Y-198672233D01*
X86089160Y-198672233D02*
X86027255Y-198857947D01*
X86027255Y-198857947D02*
X85284398Y-199600804D01*
X85284398Y-199600804D02*
X86089160Y-199600804D01*
D10*
D11*
X135284398Y-198300804D02*
X136089160Y-198300804D01*
X136089160Y-198300804D02*
X135655826Y-198796042D01*
X135655826Y-198796042D02*
X135841541Y-198796042D01*
X135841541Y-198796042D02*
X135965350Y-198857947D01*
X135965350Y-198857947D02*
X136027255Y-198919852D01*
X136027255Y-198919852D02*
X136089160Y-199043661D01*
X136089160Y-199043661D02*
X136089160Y-199353185D01*
X136089160Y-199353185D02*
X136027255Y-199476995D01*
X136027255Y-199476995D02*
X135965350Y-199538900D01*
X135965350Y-199538900D02*
X135841541Y-199600804D01*
X135841541Y-199600804D02*
X135470112Y-199600804D01*
X135470112Y-199600804D02*
X135346303Y-199538900D01*
X135346303Y-199538900D02*
X135284398Y-199476995D01*
D10*
D11*
X185965350Y-198734138D02*
X185965350Y-199600804D01*
X185655826Y-198238900D02*
X185346303Y-199167471D01*
X185346303Y-199167471D02*
X186151064Y-199167471D01*
D10*
D11*
X236027255Y-198300804D02*
X235408207Y-198300804D01*
X235408207Y-198300804D02*
X235346303Y-198919852D01*
X235346303Y-198919852D02*
X235408207Y-198857947D01*
X235408207Y-198857947D02*
X235532017Y-198796042D01*
X235532017Y-198796042D02*
X235841541Y-198796042D01*
X235841541Y-198796042D02*
X235965350Y-198857947D01*
X235965350Y-198857947D02*
X236027255Y-198919852D01*
X236027255Y-198919852D02*
X236089160Y-199043661D01*
X236089160Y-199043661D02*
X236089160Y-199353185D01*
X236089160Y-199353185D02*
X236027255Y-199476995D01*
X236027255Y-199476995D02*
X235965350Y-199538900D01*
X235965350Y-199538900D02*
X235841541Y-199600804D01*
X235841541Y-199600804D02*
X235532017Y-199600804D01*
X235532017Y-199600804D02*
X235408207Y-199538900D01*
X235408207Y-199538900D02*
X235346303Y-199476995D01*
D10*
D11*
X285965350Y-198300804D02*
X285717731Y-198300804D01*
X285717731Y-198300804D02*
X285593922Y-198362709D01*
X285593922Y-198362709D02*
X285532017Y-198424614D01*
X285532017Y-198424614D02*
X285408207Y-198610328D01*
X285408207Y-198610328D02*
X285346303Y-198857947D01*
X285346303Y-198857947D02*
X285346303Y-199353185D01*
X285346303Y-199353185D02*
X285408207Y-199476995D01*
X285408207Y-199476995D02*
X285470112Y-199538900D01*
X285470112Y-199538900D02*
X285593922Y-199600804D01*
X285593922Y-199600804D02*
X285841541Y-199600804D01*
X285841541Y-199600804D02*
X285965350Y-199538900D01*
X285965350Y-199538900D02*
X286027255Y-199476995D01*
X286027255Y-199476995D02*
X286089160Y-199353185D01*
X286089160Y-199353185D02*
X286089160Y-199043661D01*
X286089160Y-199043661D02*
X286027255Y-198919852D01*
X286027255Y-198919852D02*
X285965350Y-198857947D01*
X285965350Y-198857947D02*
X285841541Y-198796042D01*
X285841541Y-198796042D02*
X285593922Y-198796042D01*
X285593922Y-198796042D02*
X285470112Y-198857947D01*
X285470112Y-198857947D02*
X285408207Y-198919852D01*
X285408207Y-198919852D02*
X285346303Y-199043661D01*
D10*
D11*
X10000000Y-60000000D02*
X12000000Y-60000000D01*
D10*
D11*
X10000000Y-110000000D02*
X12000000Y-110000000D01*
D10*
D11*
X10000000Y-160000000D02*
X12000000Y-160000000D01*
D10*
D11*
X10690476Y-35222176D02*
X11309523Y-35222176D01*
X10566666Y-35593604D02*
X10999999Y-34293604D01*
X10999999Y-34293604D02*
X11433333Y-35593604D01*
D10*
D11*
X11092857Y-84912652D02*
X11278571Y-84974557D01*
X11278571Y-84974557D02*
X11340476Y-85036461D01*
X11340476Y-85036461D02*
X11402380Y-85160271D01*
X11402380Y-85160271D02*
X11402380Y-85345985D01*
X11402380Y-85345985D02*
X11340476Y-85469795D01*
X11340476Y-85469795D02*
X11278571Y-85531700D01*
X11278571Y-85531700D02*
X11154761Y-85593604D01*
X11154761Y-85593604D02*
X10659523Y-85593604D01*
X10659523Y-85593604D02*
X10659523Y-84293604D01*
X10659523Y-84293604D02*
X11092857Y-84293604D01*
X11092857Y-84293604D02*
X11216666Y-84355509D01*
X11216666Y-84355509D02*
X11278571Y-84417414D01*
X11278571Y-84417414D02*
X11340476Y-84541223D01*
X11340476Y-84541223D02*
X11340476Y-84665033D01*
X11340476Y-84665033D02*
X11278571Y-84788842D01*
X11278571Y-84788842D02*
X11216666Y-84850747D01*
X11216666Y-84850747D02*
X11092857Y-84912652D01*
X11092857Y-84912652D02*
X10659523Y-84912652D01*
D10*
D11*
X11402380Y-135469795D02*
X11340476Y-135531700D01*
X11340476Y-135531700D02*
X11154761Y-135593604D01*
X11154761Y-135593604D02*
X11030952Y-135593604D01*
X11030952Y-135593604D02*
X10845238Y-135531700D01*
X10845238Y-135531700D02*
X10721428Y-135407890D01*
X10721428Y-135407890D02*
X10659523Y-135284080D01*
X10659523Y-135284080D02*
X10597619Y-135036461D01*
X10597619Y-135036461D02*
X10597619Y-134850747D01*
X10597619Y-134850747D02*
X10659523Y-134603128D01*
X10659523Y-134603128D02*
X10721428Y-134479319D01*
X10721428Y-134479319D02*
X10845238Y-134355509D01*
X10845238Y-134355509D02*
X11030952Y-134293604D01*
X11030952Y-134293604D02*
X11154761Y-134293604D01*
X11154761Y-134293604D02*
X11340476Y-134355509D01*
X11340476Y-134355509D02*
X11402380Y-134417414D01*
D10*
D11*
X10659523Y-185593604D02*
X10659523Y-184293604D01*
X10659523Y-184293604D02*
X10969047Y-184293604D01*
X10969047Y-184293604D02*
X11154761Y-184355509D01*
X11154761Y-184355509D02*
X11278571Y-184479319D01*
X11278571Y-184479319D02*
X11340476Y-184603128D01*
X11340476Y-184603128D02*
X11402380Y-184850747D01*
X11402380Y-184850747D02*
X11402380Y-185036461D01*
X11402380Y-185036461D02*
X11340476Y-185284080D01*
X11340476Y-185284080D02*
X11278571Y-185407890D01*
X11278571Y-185407890D02*
X11154761Y-185531700D01*
X11154761Y-185531700D02*
X10969047Y-185593604D01*
X10969047Y-185593604D02*
X10659523Y-185593604D01*
D10*
D11*
X287002200Y-60000000D02*
X285002200Y-60000000D01*
D10*
D11*
X287002200Y-110000000D02*
X285002200Y-110000000D01*
D10*
D11*
X287002200Y-160000000D02*
X285002200Y-160000000D01*
D10*
D11*
X285692676Y-35222176D02*
X286311723Y-35222176D01*
X285568866Y-35593604D02*
X286002199Y-34293604D01*
X286002199Y-34293604D02*
X286435533Y-35593604D01*
D10*
D11*
X286095057Y-84912652D02*
X286280771Y-84974557D01*
X286280771Y-84974557D02*
X286342676Y-85036461D01*
X286342676Y-85036461D02*
X286404580Y-85160271D01*
X286404580Y-85160271D02*
X286404580Y-85345985D01*
X286404580Y-85345985D02*
X286342676Y-85469795D01*
X286342676Y-85469795D02*
X286280771Y-85531700D01*
X286280771Y-85531700D02*
X286156961Y-85593604D01*
X286156961Y-85593604D02*
X285661723Y-85593604D01*
X285661723Y-85593604D02*
X285661723Y-84293604D01*
X285661723Y-84293604D02*
X286095057Y-84293604D01*
X286095057Y-84293604D02*
X286218866Y-84355509D01*
X286218866Y-84355509D02*
X286280771Y-84417414D01*
X286280771Y-84417414D02*
X286342676Y-84541223D01*
X286342676Y-84541223D02*
X286342676Y-84665033D01*
X286342676Y-84665033D02*
X286280771Y-84788842D01*
X286280771Y-84788842D02*
X286218866Y-84850747D01*
X286218866Y-84850747D02*
X286095057Y-84912652D01*
X286095057Y-84912652D02*
X285661723Y-84912652D01*
D10*
D11*
X286404580Y-135469795D02*
X286342676Y-135531700D01*
X286342676Y-135531700D02*
X286156961Y-135593604D01*
X286156961Y-135593604D02*
X286033152Y-135593604D01*
X286033152Y-135593604D02*
X285847438Y-135531700D01*
X285847438Y-135531700D02*
X285723628Y-135407890D01*
X285723628Y-135407890D02*
X285661723Y-135284080D01*
X285661723Y-135284080D02*
X285599819Y-135036461D01*
X285599819Y-135036461D02*
X285599819Y-134850747D01*
X285599819Y-134850747D02*
X285661723Y-134603128D01*
X285661723Y-134603128D02*
X285723628Y-134479319D01*
X285723628Y-134479319D02*
X285847438Y-134355509D01*
X285847438Y-134355509D02*
X286033152Y-134293604D01*
X286033152Y-134293604D02*
X286156961Y-134293604D01*
X286156961Y-134293604D02*
X286342676Y-134355509D01*
X286342676Y-134355509D02*
X286404580Y-134417414D01*
D10*
D11*
X285661723Y-185593604D02*
X285661723Y-184293604D01*
X285661723Y-184293604D02*
X285971247Y-184293604D01*
X285971247Y-184293604D02*
X286156961Y-184355509D01*
X286156961Y-184355509D02*
X286280771Y-184479319D01*
X286280771Y-184479319D02*
X286342676Y-184603128D01*
X286342676Y-184603128D02*
X286404580Y-184850747D01*
X286404580Y-184850747D02*
X286404580Y-185036461D01*
X286404580Y-185036461D02*
X286342676Y-185284080D01*
X286342676Y-185284080D02*
X286280771Y-185407890D01*
X286280771Y-185407890D02*
X286156961Y-185531700D01*
X286156961Y-185531700D02*
X285971247Y-185593604D01*
X285971247Y-185593604D02*
X285661723Y-185593604D01*
D10*
D11*
X200458026Y-193793328D02*
X200458026Y-192293328D01*
X200458026Y-192293328D02*
X200815169Y-192293328D01*
X200815169Y-192293328D02*
X201029455Y-192364757D01*
X201029455Y-192364757D02*
X201172312Y-192507614D01*
X201172312Y-192507614D02*
X201243741Y-192650471D01*
X201243741Y-192650471D02*
X201315169Y-192936185D01*
X201315169Y-192936185D02*
X201315169Y-193150471D01*
X201315169Y-193150471D02*
X201243741Y-193436185D01*
X201243741Y-193436185D02*
X201172312Y-193579042D01*
X201172312Y-193579042D02*
X201029455Y-193721900D01*
X201029455Y-193721900D02*
X200815169Y-193793328D01*
X200815169Y-193793328D02*
X200458026Y-193793328D01*
X202600884Y-193793328D02*
X202600884Y-193007614D01*
X202600884Y-193007614D02*
X202529455Y-192864757D01*
X202529455Y-192864757D02*
X202386598Y-192793328D01*
X202386598Y-192793328D02*
X202100884Y-192793328D01*
X202100884Y-192793328D02*
X201958026Y-192864757D01*
X202600884Y-193721900D02*
X202458026Y-193793328D01*
X202458026Y-193793328D02*
X202100884Y-193793328D01*
X202100884Y-193793328D02*
X201958026Y-193721900D01*
X201958026Y-193721900D02*
X201886598Y-193579042D01*
X201886598Y-193579042D02*
X201886598Y-193436185D01*
X201886598Y-193436185D02*
X201958026Y-193293328D01*
X201958026Y-193293328D02*
X202100884Y-193221900D01*
X202100884Y-193221900D02*
X202458026Y-193221900D01*
X202458026Y-193221900D02*
X202600884Y-193150471D01*
X203100884Y-192793328D02*
X203672312Y-192793328D01*
X203315169Y-192293328D02*
X203315169Y-193579042D01*
X203315169Y-193579042D02*
X203386598Y-193721900D01*
X203386598Y-193721900D02*
X203529455Y-193793328D01*
X203529455Y-193793328D02*
X203672312Y-193793328D01*
X204743741Y-193721900D02*
X204600884Y-193793328D01*
X204600884Y-193793328D02*
X204315170Y-193793328D01*
X204315170Y-193793328D02*
X204172312Y-193721900D01*
X204172312Y-193721900D02*
X204100884Y-193579042D01*
X204100884Y-193579042D02*
X204100884Y-193007614D01*
X204100884Y-193007614D02*
X204172312Y-192864757D01*
X204172312Y-192864757D02*
X204315170Y-192793328D01*
X204315170Y-192793328D02*
X204600884Y-192793328D01*
X204600884Y-192793328D02*
X204743741Y-192864757D01*
X204743741Y-192864757D02*
X204815170Y-193007614D01*
X204815170Y-193007614D02*
X204815170Y-193150471D01*
X204815170Y-193150471D02*
X204100884Y-193293328D01*
X205458026Y-193650471D02*
X205529455Y-193721900D01*
X205529455Y-193721900D02*
X205458026Y-193793328D01*
X205458026Y-193793328D02*
X205386598Y-193721900D01*
X205386598Y-193721900D02*
X205458026Y-193650471D01*
X205458026Y-193650471D02*
X205458026Y-193793328D01*
X205458026Y-192864757D02*
X205529455Y-192936185D01*
X205529455Y-192936185D02*
X205458026Y-193007614D01*
X205458026Y-193007614D02*
X205386598Y-192936185D01*
X205386598Y-192936185D02*
X205458026Y-192864757D01*
X205458026Y-192864757D02*
X205458026Y-193007614D01*
D10*
D11*
X177002200Y-194507200D02*
X285002200Y-194507200D01*
D10*
D11*
X178458026Y-196593328D02*
X178458026Y-195093328D01*
X179315169Y-196593328D02*
X178672312Y-195736185D01*
X179315169Y-195093328D02*
X178458026Y-195950471D01*
X179958026Y-196593328D02*
X179958026Y-195593328D01*
X179958026Y-195093328D02*
X179886598Y-195164757D01*
X179886598Y-195164757D02*
X179958026Y-195236185D01*
X179958026Y-195236185D02*
X180029455Y-195164757D01*
X180029455Y-195164757D02*
X179958026Y-195093328D01*
X179958026Y-195093328D02*
X179958026Y-195236185D01*
X181529455Y-196450471D02*
X181458027Y-196521900D01*
X181458027Y-196521900D02*
X181243741Y-196593328D01*
X181243741Y-196593328D02*
X181100884Y-196593328D01*
X181100884Y-196593328D02*
X180886598Y-196521900D01*
X180886598Y-196521900D02*
X180743741Y-196379042D01*
X180743741Y-196379042D02*
X180672312Y-196236185D01*
X180672312Y-196236185D02*
X180600884Y-195950471D01*
X180600884Y-195950471D02*
X180600884Y-195736185D01*
X180600884Y-195736185D02*
X180672312Y-195450471D01*
X180672312Y-195450471D02*
X180743741Y-195307614D01*
X180743741Y-195307614D02*
X180886598Y-195164757D01*
X180886598Y-195164757D02*
X181100884Y-195093328D01*
X181100884Y-195093328D02*
X181243741Y-195093328D01*
X181243741Y-195093328D02*
X181458027Y-195164757D01*
X181458027Y-195164757D02*
X181529455Y-195236185D01*
X182815170Y-196593328D02*
X182815170Y-195807614D01*
X182815170Y-195807614D02*
X182743741Y-195664757D01*
X182743741Y-195664757D02*
X182600884Y-195593328D01*
X182600884Y-195593328D02*
X182315170Y-195593328D01*
X182315170Y-195593328D02*
X182172312Y-195664757D01*
X182815170Y-196521900D02*
X182672312Y-196593328D01*
X182672312Y-196593328D02*
X182315170Y-196593328D01*
X182315170Y-196593328D02*
X182172312Y-196521900D01*
X182172312Y-196521900D02*
X182100884Y-196379042D01*
X182100884Y-196379042D02*
X182100884Y-196236185D01*
X182100884Y-196236185D02*
X182172312Y-196093328D01*
X182172312Y-196093328D02*
X182315170Y-196021900D01*
X182315170Y-196021900D02*
X182672312Y-196021900D01*
X182672312Y-196021900D02*
X182815170Y-195950471D01*
X184172313Y-196593328D02*
X184172313Y-195093328D01*
X184172313Y-196521900D02*
X184029455Y-196593328D01*
X184029455Y-196593328D02*
X183743741Y-196593328D01*
X183743741Y-196593328D02*
X183600884Y-196521900D01*
X183600884Y-196521900D02*
X183529455Y-196450471D01*
X183529455Y-196450471D02*
X183458027Y-196307614D01*
X183458027Y-196307614D02*
X183458027Y-195879042D01*
X183458027Y-195879042D02*
X183529455Y-195736185D01*
X183529455Y-195736185D02*
X183600884Y-195664757D01*
X183600884Y-195664757D02*
X183743741Y-195593328D01*
X183743741Y-195593328D02*
X184029455Y-195593328D01*
X184029455Y-195593328D02*
X184172313Y-195664757D01*
X186029455Y-195807614D02*
X186529455Y-195807614D01*
X186743741Y-196593328D02*
X186029455Y-196593328D01*
X186029455Y-196593328D02*
X186029455Y-195093328D01*
X186029455Y-195093328D02*
X186743741Y-195093328D01*
X187386598Y-196450471D02*
X187458027Y-196521900D01*
X187458027Y-196521900D02*
X187386598Y-196593328D01*
X187386598Y-196593328D02*
X187315170Y-196521900D01*
X187315170Y-196521900D02*
X187386598Y-196450471D01*
X187386598Y-196450471D02*
X187386598Y-196593328D01*
X188100884Y-196593328D02*
X188100884Y-195093328D01*
X188100884Y-195093328D02*
X188458027Y-195093328D01*
X188458027Y-195093328D02*
X188672313Y-195164757D01*
X188672313Y-195164757D02*
X188815170Y-195307614D01*
X188815170Y-195307614D02*
X188886599Y-195450471D01*
X188886599Y-195450471D02*
X188958027Y-195736185D01*
X188958027Y-195736185D02*
X188958027Y-195950471D01*
X188958027Y-195950471D02*
X188886599Y-196236185D01*
X188886599Y-196236185D02*
X188815170Y-196379042D01*
X188815170Y-196379042D02*
X188672313Y-196521900D01*
X188672313Y-196521900D02*
X188458027Y-196593328D01*
X188458027Y-196593328D02*
X188100884Y-196593328D01*
X189600884Y-196450471D02*
X189672313Y-196521900D01*
X189672313Y-196521900D02*
X189600884Y-196593328D01*
X189600884Y-196593328D02*
X189529456Y-196521900D01*
X189529456Y-196521900D02*
X189600884Y-196450471D01*
X189600884Y-196450471D02*
X189600884Y-196593328D01*
X190243742Y-196164757D02*
X190958028Y-196164757D01*
X190100885Y-196593328D02*
X190600885Y-195093328D01*
X190600885Y-195093328D02*
X191100885Y-196593328D01*
X191600884Y-196450471D02*
X191672313Y-196521900D01*
X191672313Y-196521900D02*
X191600884Y-196593328D01*
X191600884Y-196593328D02*
X191529456Y-196521900D01*
X191529456Y-196521900D02*
X191600884Y-196450471D01*
X191600884Y-196450471D02*
X191600884Y-196593328D01*
X193529456Y-196593328D02*
X193815170Y-196593328D01*
X193815170Y-196593328D02*
X193958027Y-196521900D01*
X193958027Y-196521900D02*
X194029456Y-196450471D01*
X194029456Y-196450471D02*
X194172313Y-196236185D01*
X194172313Y-196236185D02*
X194243742Y-195950471D01*
X194243742Y-195950471D02*
X194243742Y-195379042D01*
X194243742Y-195379042D02*
X194172313Y-195236185D01*
X194172313Y-195236185D02*
X194100885Y-195164757D01*
X194100885Y-195164757D02*
X193958027Y-195093328D01*
X193958027Y-195093328D02*
X193672313Y-195093328D01*
X193672313Y-195093328D02*
X193529456Y-195164757D01*
X193529456Y-195164757D02*
X193458027Y-195236185D01*
X193458027Y-195236185D02*
X193386599Y-195379042D01*
X193386599Y-195379042D02*
X193386599Y-195736185D01*
X193386599Y-195736185D02*
X193458027Y-195879042D01*
X193458027Y-195879042D02*
X193529456Y-195950471D01*
X193529456Y-195950471D02*
X193672313Y-196021900D01*
X193672313Y-196021900D02*
X193958027Y-196021900D01*
X193958027Y-196021900D02*
X194100885Y-195950471D01*
X194100885Y-195950471D02*
X194172313Y-195879042D01*
X194172313Y-195879042D02*
X194243742Y-195736185D01*
X194886598Y-196450471D02*
X194958027Y-196521900D01*
X194958027Y-196521900D02*
X194886598Y-196593328D01*
X194886598Y-196593328D02*
X194815170Y-196521900D01*
X194815170Y-196521900D02*
X194886598Y-196450471D01*
X194886598Y-196450471D02*
X194886598Y-196593328D01*
X195886599Y-195093328D02*
X196029456Y-195093328D01*
X196029456Y-195093328D02*
X196172313Y-195164757D01*
X196172313Y-195164757D02*
X196243742Y-195236185D01*
X196243742Y-195236185D02*
X196315170Y-195379042D01*
X196315170Y-195379042D02*
X196386599Y-195664757D01*
X196386599Y-195664757D02*
X196386599Y-196021900D01*
X196386599Y-196021900D02*
X196315170Y-196307614D01*
X196315170Y-196307614D02*
X196243742Y-196450471D01*
X196243742Y-196450471D02*
X196172313Y-196521900D01*
X196172313Y-196521900D02*
X196029456Y-196593328D01*
X196029456Y-196593328D02*
X195886599Y-196593328D01*
X195886599Y-196593328D02*
X195743742Y-196521900D01*
X195743742Y-196521900D02*
X195672313Y-196450471D01*
X195672313Y-196450471D02*
X195600884Y-196307614D01*
X195600884Y-196307614D02*
X195529456Y-196021900D01*
X195529456Y-196021900D02*
X195529456Y-195664757D01*
X195529456Y-195664757D02*
X195600884Y-195379042D01*
X195600884Y-195379042D02*
X195672313Y-195236185D01*
X195672313Y-195236185D02*
X195743742Y-195164757D01*
X195743742Y-195164757D02*
X195886599Y-195093328D01*
X197029455Y-196450471D02*
X197100884Y-196521900D01*
X197100884Y-196521900D02*
X197029455Y-196593328D01*
X197029455Y-196593328D02*
X196958027Y-196521900D01*
X196958027Y-196521900D02*
X197029455Y-196450471D01*
X197029455Y-196450471D02*
X197029455Y-196593328D01*
X198458027Y-195093328D02*
X197743741Y-195093328D01*
X197743741Y-195093328D02*
X197672313Y-195807614D01*
X197672313Y-195807614D02*
X197743741Y-195736185D01*
X197743741Y-195736185D02*
X197886599Y-195664757D01*
X197886599Y-195664757D02*
X198243741Y-195664757D01*
X198243741Y-195664757D02*
X198386599Y-195736185D01*
X198386599Y-195736185D02*
X198458027Y-195807614D01*
X198458027Y-195807614D02*
X198529456Y-195950471D01*
X198529456Y-195950471D02*
X198529456Y-196307614D01*
X198529456Y-196307614D02*
X198458027Y-196450471D01*
X198458027Y-196450471D02*
X198386599Y-196521900D01*
X198386599Y-196521900D02*
X198243741Y-196593328D01*
X198243741Y-196593328D02*
X197886599Y-196593328D01*
X197886599Y-196593328D02*
X197743741Y-196521900D01*
X197743741Y-196521900D02*
X197672313Y-196450471D01*
D10*
D11*
X177002200Y-191507200D02*
X285002200Y-191507200D01*
D10*
D12*
X264413853Y-193785528D02*
X263913853Y-193071242D01*
X263556710Y-193785528D02*
X263556710Y-192285528D01*
X263556710Y-192285528D02*
X264128139Y-192285528D01*
X264128139Y-192285528D02*
X264270996Y-192356957D01*
X264270996Y-192356957D02*
X264342425Y-192428385D01*
X264342425Y-192428385D02*
X264413853Y-192571242D01*
X264413853Y-192571242D02*
X264413853Y-192785528D01*
X264413853Y-192785528D02*
X264342425Y-192928385D01*
X264342425Y-192928385D02*
X264270996Y-192999814D01*
X264270996Y-192999814D02*
X264128139Y-193071242D01*
X264128139Y-193071242D02*
X263556710Y-193071242D01*
X265628139Y-193714100D02*
X265485282Y-193785528D01*
X265485282Y-193785528D02*
X265199568Y-193785528D01*
X265199568Y-193785528D02*
X265056710Y-193714100D01*
X265056710Y-193714100D02*
X264985282Y-193571242D01*
X264985282Y-193571242D02*
X264985282Y-192999814D01*
X264985282Y-192999814D02*
X265056710Y-192856957D01*
X265056710Y-192856957D02*
X265199568Y-192785528D01*
X265199568Y-192785528D02*
X265485282Y-192785528D01*
X265485282Y-192785528D02*
X265628139Y-192856957D01*
X265628139Y-192856957D02*
X265699568Y-192999814D01*
X265699568Y-192999814D02*
X265699568Y-193142671D01*
X265699568Y-193142671D02*
X264985282Y-193285528D01*
X266199567Y-192785528D02*
X266556710Y-193785528D01*
X266556710Y-193785528D02*
X266913853Y-192785528D01*
X267485281Y-193642671D02*
X267556710Y-193714100D01*
X267556710Y-193714100D02*
X267485281Y-193785528D01*
X267485281Y-193785528D02*
X267413853Y-193714100D01*
X267413853Y-193714100D02*
X267485281Y-193642671D01*
X267485281Y-193642671D02*
X267485281Y-193785528D01*
X267485281Y-192856957D02*
X267556710Y-192928385D01*
X267556710Y-192928385D02*
X267485281Y-192999814D01*
X267485281Y-192999814D02*
X267413853Y-192928385D01*
X267413853Y-192928385D02*
X267485281Y-192856957D01*
X267485281Y-192856957D02*
X267485281Y-192999814D01*
D10*
D11*
X178386598Y-193721900D02*
X178600884Y-193793328D01*
X178600884Y-193793328D02*
X178958026Y-193793328D01*
X178958026Y-193793328D02*
X179100884Y-193721900D01*
X179100884Y-193721900D02*
X179172312Y-193650471D01*
X179172312Y-193650471D02*
X179243741Y-193507614D01*
X179243741Y-193507614D02*
X179243741Y-193364757D01*
X179243741Y-193364757D02*
X179172312Y-193221900D01*
X179172312Y-193221900D02*
X179100884Y-193150471D01*
X179100884Y-193150471D02*
X178958026Y-193079042D01*
X178958026Y-193079042D02*
X178672312Y-193007614D01*
X178672312Y-193007614D02*
X178529455Y-192936185D01*
X178529455Y-192936185D02*
X178458026Y-192864757D01*
X178458026Y-192864757D02*
X178386598Y-192721900D01*
X178386598Y-192721900D02*
X178386598Y-192579042D01*
X178386598Y-192579042D02*
X178458026Y-192436185D01*
X178458026Y-192436185D02*
X178529455Y-192364757D01*
X178529455Y-192364757D02*
X178672312Y-192293328D01*
X178672312Y-192293328D02*
X179029455Y-192293328D01*
X179029455Y-192293328D02*
X179243741Y-192364757D01*
X179886597Y-193793328D02*
X179886597Y-192793328D01*
X179886597Y-192293328D02*
X179815169Y-192364757D01*
X179815169Y-192364757D02*
X179886597Y-192436185D01*
X179886597Y-192436185D02*
X179958026Y-192364757D01*
X179958026Y-192364757D02*
X179886597Y-192293328D01*
X179886597Y-192293328D02*
X179886597Y-192436185D01*
X180458026Y-192793328D02*
X181243741Y-192793328D01*
X181243741Y-192793328D02*
X180458026Y-193793328D01*
X180458026Y-193793328D02*
X181243741Y-193793328D01*
X182386598Y-193721900D02*
X182243741Y-193793328D01*
X182243741Y-193793328D02*
X181958027Y-193793328D01*
X181958027Y-193793328D02*
X181815169Y-193721900D01*
X181815169Y-193721900D02*
X181743741Y-193579042D01*
X181743741Y-193579042D02*
X181743741Y-193007614D01*
X181743741Y-193007614D02*
X181815169Y-192864757D01*
X181815169Y-192864757D02*
X181958027Y-192793328D01*
X181958027Y-192793328D02*
X182243741Y-192793328D01*
X182243741Y-192793328D02*
X182386598Y-192864757D01*
X182386598Y-192864757D02*
X182458027Y-193007614D01*
X182458027Y-193007614D02*
X182458027Y-193150471D01*
X182458027Y-193150471D02*
X181743741Y-193293328D01*
X183100883Y-193650471D02*
X183172312Y-193721900D01*
X183172312Y-193721900D02*
X183100883Y-193793328D01*
X183100883Y-193793328D02*
X183029455Y-193721900D01*
X183029455Y-193721900D02*
X183100883Y-193650471D01*
X183100883Y-193650471D02*
X183100883Y-193793328D01*
X183100883Y-192864757D02*
X183172312Y-192936185D01*
X183172312Y-192936185D02*
X183100883Y-193007614D01*
X183100883Y-193007614D02*
X183029455Y-192936185D01*
X183029455Y-192936185D02*
X183100883Y-192864757D01*
X183100883Y-192864757D02*
X183100883Y-193007614D01*
X184886598Y-193364757D02*
X185600884Y-193364757D01*
X184743741Y-193793328D02*
X185243741Y-192293328D01*
X185243741Y-192293328D02*
X185743741Y-193793328D01*
X186886598Y-192793328D02*
X186886598Y-193793328D01*
X186529455Y-192221900D02*
X186172312Y-193293328D01*
X186172312Y-193293328D02*
X187100883Y-193293328D01*
D10*
D11*
X263458026Y-196593328D02*
X263458026Y-195093328D01*
X264815170Y-196593328D02*
X264815170Y-195093328D01*
X264815170Y-196521900D02*
X264672312Y-196593328D01*
X264672312Y-196593328D02*
X264386598Y-196593328D01*
X264386598Y-196593328D02*
X264243741Y-196521900D01*
X264243741Y-196521900D02*
X264172312Y-196450471D01*
X264172312Y-196450471D02*
X264100884Y-196307614D01*
X264100884Y-196307614D02*
X264100884Y-195879042D01*
X264100884Y-195879042D02*
X264172312Y-195736185D01*
X264172312Y-195736185D02*
X264243741Y-195664757D01*
X264243741Y-195664757D02*
X264386598Y-195593328D01*
X264386598Y-195593328D02*
X264672312Y-195593328D01*
X264672312Y-195593328D02*
X264815170Y-195664757D01*
X265529455Y-196450471D02*
X265600884Y-196521900D01*
X265600884Y-196521900D02*
X265529455Y-196593328D01*
X265529455Y-196593328D02*
X265458027Y-196521900D01*
X265458027Y-196521900D02*
X265529455Y-196450471D01*
X265529455Y-196450471D02*
X265529455Y-196593328D01*
X265529455Y-195664757D02*
X265600884Y-195736185D01*
X265600884Y-195736185D02*
X265529455Y-195807614D01*
X265529455Y-195807614D02*
X265458027Y-195736185D01*
X265458027Y-195736185D02*
X265529455Y-195664757D01*
X265529455Y-195664757D02*
X265529455Y-195807614D01*
X267458027Y-196593328D02*
X267743741Y-196593328D01*
X267743741Y-196593328D02*
X267886598Y-196521900D01*
X267886598Y-196521900D02*
X267958027Y-196450471D01*
X267958027Y-196450471D02*
X268100884Y-196236185D01*
X268100884Y-196236185D02*
X268172313Y-195950471D01*
X268172313Y-195950471D02*
X268172313Y-195379042D01*
X268172313Y-195379042D02*
X268100884Y-195236185D01*
X268100884Y-195236185D02*
X268029456Y-195164757D01*
X268029456Y-195164757D02*
X267886598Y-195093328D01*
X267886598Y-195093328D02*
X267600884Y-195093328D01*
X267600884Y-195093328D02*
X267458027Y-195164757D01*
X267458027Y-195164757D02*
X267386598Y-195236185D01*
X267386598Y-195236185D02*
X267315170Y-195379042D01*
X267315170Y-195379042D02*
X267315170Y-195736185D01*
X267315170Y-195736185D02*
X267386598Y-195879042D01*
X267386598Y-195879042D02*
X267458027Y-195950471D01*
X267458027Y-195950471D02*
X267600884Y-196021900D01*
X267600884Y-196021900D02*
X267886598Y-196021900D01*
X267886598Y-196021900D02*
X268029456Y-195950471D01*
X268029456Y-195950471D02*
X268100884Y-195879042D01*
X268100884Y-195879042D02*
X268172313Y-195736185D01*
X269886598Y-195021900D02*
X268600884Y-196950471D01*
X271172313Y-196593328D02*
X270315170Y-196593328D01*
X270743741Y-196593328D02*
X270743741Y-195093328D01*
X270743741Y-195093328D02*
X270600884Y-195307614D01*
X270600884Y-195307614D02*
X270458027Y-195450471D01*
X270458027Y-195450471D02*
X270315170Y-195521900D01*
X272600884Y-196593328D02*
X271743741Y-196593328D01*
X272172312Y-196593328D02*
X272172312Y-195093328D01*
X272172312Y-195093328D02*
X272029455Y-195307614D01*
X272029455Y-195307614D02*
X271886598Y-195450471D01*
X271886598Y-195450471D02*
X271743741Y-195521900D01*
D10*
D11*
X177002200Y-187507200D02*
X285002200Y-187507200D01*
D10*
D13*
X178693928Y-188211638D02*
X179836785Y-188211638D01*
X179015357Y-190211638D02*
X179265357Y-188211638D01*
X180253452Y-190211638D02*
X180420119Y-188878304D01*
X180503452Y-188211638D02*
X180396309Y-188306876D01*
X180396309Y-188306876D02*
X180479643Y-188402114D01*
X180479643Y-188402114D02*
X180586786Y-188306876D01*
X180586786Y-188306876D02*
X180503452Y-188211638D01*
X180503452Y-188211638D02*
X180479643Y-188402114D01*
X181086786Y-188878304D02*
X181848690Y-188878304D01*
X181455833Y-188211638D02*
X181241548Y-189925923D01*
X181241548Y-189925923D02*
X181312976Y-190116400D01*
X181312976Y-190116400D02*
X181491548Y-190211638D01*
X181491548Y-190211638D02*
X181682024Y-190211638D01*
X182634405Y-190211638D02*
X182455833Y-190116400D01*
X182455833Y-190116400D02*
X182384405Y-189925923D01*
X182384405Y-189925923D02*
X182598690Y-188211638D01*
X184170119Y-190116400D02*
X183967738Y-190211638D01*
X183967738Y-190211638D02*
X183586785Y-190211638D01*
X183586785Y-190211638D02*
X183408214Y-190116400D01*
X183408214Y-190116400D02*
X183336785Y-189925923D01*
X183336785Y-189925923D02*
X183432024Y-189164019D01*
X183432024Y-189164019D02*
X183551071Y-188973542D01*
X183551071Y-188973542D02*
X183753452Y-188878304D01*
X183753452Y-188878304D02*
X184134404Y-188878304D01*
X184134404Y-188878304D02*
X184312976Y-188973542D01*
X184312976Y-188973542D02*
X184384404Y-189164019D01*
X184384404Y-189164019D02*
X184360595Y-189354495D01*
X184360595Y-189354495D02*
X183384404Y-189544971D01*
X185134405Y-190021161D02*
X185217738Y-190116400D01*
X185217738Y-190116400D02*
X185110595Y-190211638D01*
X185110595Y-190211638D02*
X185027262Y-190116400D01*
X185027262Y-190116400D02*
X185134405Y-190021161D01*
X185134405Y-190021161D02*
X185110595Y-190211638D01*
X185265357Y-188973542D02*
X185348690Y-189068780D01*
X185348690Y-189068780D02*
X185241548Y-189164019D01*
X185241548Y-189164019D02*
X185158214Y-189068780D01*
X185158214Y-189068780D02*
X185265357Y-188973542D01*
X185265357Y-188973542D02*
X185241548Y-189164019D01*
D10*
D11*
X178958026Y-185607614D02*
X178458026Y-185607614D01*
X178458026Y-186393328D02*
X178458026Y-184893328D01*
X178458026Y-184893328D02*
X179172312Y-184893328D01*
X179743740Y-186393328D02*
X179743740Y-185393328D01*
X179743740Y-184893328D02*
X179672312Y-184964757D01*
X179672312Y-184964757D02*
X179743740Y-185036185D01*
X179743740Y-185036185D02*
X179815169Y-184964757D01*
X179815169Y-184964757D02*
X179743740Y-184893328D01*
X179743740Y-184893328D02*
X179743740Y-185036185D01*
X180672312Y-186393328D02*
X180529455Y-186321900D01*
X180529455Y-186321900D02*
X180458026Y-186179042D01*
X180458026Y-186179042D02*
X180458026Y-184893328D01*
X181815169Y-186321900D02*
X181672312Y-186393328D01*
X181672312Y-186393328D02*
X181386598Y-186393328D01*
X181386598Y-186393328D02*
X181243740Y-186321900D01*
X181243740Y-186321900D02*
X181172312Y-186179042D01*
X181172312Y-186179042D02*
X181172312Y-185607614D01*
X181172312Y-185607614D02*
X181243740Y-185464757D01*
X181243740Y-185464757D02*
X181386598Y-185393328D01*
X181386598Y-185393328D02*
X181672312Y-185393328D01*
X181672312Y-185393328D02*
X181815169Y-185464757D01*
X181815169Y-185464757D02*
X181886598Y-185607614D01*
X181886598Y-185607614D02*
X181886598Y-185750471D01*
X181886598Y-185750471D02*
X181172312Y-185893328D01*
X182529454Y-186250471D02*
X182600883Y-186321900D01*
X182600883Y-186321900D02*
X182529454Y-186393328D01*
X182529454Y-186393328D02*
X182458026Y-186321900D01*
X182458026Y-186321900D02*
X182529454Y-186250471D01*
X182529454Y-186250471D02*
X182529454Y-186393328D01*
X182529454Y-185464757D02*
X182600883Y-185536185D01*
X182600883Y-185536185D02*
X182529454Y-185607614D01*
X182529454Y-185607614D02*
X182458026Y-185536185D01*
X182458026Y-185536185D02*
X182529454Y-185464757D01*
X182529454Y-185464757D02*
X182529454Y-185607614D01*
X185100883Y-186393328D02*
X184386597Y-186393328D01*
X184386597Y-186393328D02*
X184386597Y-184893328D01*
X185815169Y-186393328D02*
X185672312Y-186321900D01*
X185672312Y-186321900D02*
X185600883Y-186250471D01*
X185600883Y-186250471D02*
X185529455Y-186107614D01*
X185529455Y-186107614D02*
X185529455Y-185679042D01*
X185529455Y-185679042D02*
X185600883Y-185536185D01*
X185600883Y-185536185D02*
X185672312Y-185464757D01*
X185672312Y-185464757D02*
X185815169Y-185393328D01*
X185815169Y-185393328D02*
X186029455Y-185393328D01*
X186029455Y-185393328D02*
X186172312Y-185464757D01*
X186172312Y-185464757D02*
X186243741Y-185536185D01*
X186243741Y-185536185D02*
X186315169Y-185679042D01*
X186315169Y-185679042D02*
X186315169Y-186107614D01*
X186315169Y-186107614D02*
X186243741Y-186250471D01*
X186243741Y-186250471D02*
X186172312Y-186321900D01*
X186172312Y-186321900D02*
X186029455Y-186393328D01*
X186029455Y-186393328D02*
X185815169Y-186393328D01*
X187600884Y-185393328D02*
X187600884Y-186607614D01*
X187600884Y-186607614D02*
X187529455Y-186750471D01*
X187529455Y-186750471D02*
X187458026Y-186821900D01*
X187458026Y-186821900D02*
X187315169Y-186893328D01*
X187315169Y-186893328D02*
X187100884Y-186893328D01*
X187100884Y-186893328D02*
X186958026Y-186821900D01*
X187600884Y-186321900D02*
X187458026Y-186393328D01*
X187458026Y-186393328D02*
X187172312Y-186393328D01*
X187172312Y-186393328D02*
X187029455Y-186321900D01*
X187029455Y-186321900D02*
X186958026Y-186250471D01*
X186958026Y-186250471D02*
X186886598Y-186107614D01*
X186886598Y-186107614D02*
X186886598Y-185679042D01*
X186886598Y-185679042D02*
X186958026Y-185536185D01*
X186958026Y-185536185D02*
X187029455Y-185464757D01*
X187029455Y-185464757D02*
X187172312Y-185393328D01*
X187172312Y-185393328D02*
X187458026Y-185393328D01*
X187458026Y-185393328D02*
X187600884Y-185464757D01*
X188958027Y-185393328D02*
X188958027Y-186607614D01*
X188958027Y-186607614D02*
X188886598Y-186750471D01*
X188886598Y-186750471D02*
X188815169Y-186821900D01*
X188815169Y-186821900D02*
X188672312Y-186893328D01*
X188672312Y-186893328D02*
X188458027Y-186893328D01*
X188458027Y-186893328D02*
X188315169Y-186821900D01*
X188958027Y-186321900D02*
X188815169Y-186393328D01*
X188815169Y-186393328D02*
X188529455Y-186393328D01*
X188529455Y-186393328D02*
X188386598Y-186321900D01*
X188386598Y-186321900D02*
X188315169Y-186250471D01*
X188315169Y-186250471D02*
X188243741Y-186107614D01*
X188243741Y-186107614D02*
X188243741Y-185679042D01*
X188243741Y-185679042D02*
X188315169Y-185536185D01*
X188315169Y-185536185D02*
X188386598Y-185464757D01*
X188386598Y-185464757D02*
X188529455Y-185393328D01*
X188529455Y-185393328D02*
X188815169Y-185393328D01*
X188815169Y-185393328D02*
X188958027Y-185464757D01*
X190243741Y-186321900D02*
X190100884Y-186393328D01*
X190100884Y-186393328D02*
X189815170Y-186393328D01*
X189815170Y-186393328D02*
X189672312Y-186321900D01*
X189672312Y-186321900D02*
X189600884Y-186179042D01*
X189600884Y-186179042D02*
X189600884Y-185607614D01*
X189600884Y-185607614D02*
X189672312Y-185464757D01*
X189672312Y-185464757D02*
X189815170Y-185393328D01*
X189815170Y-185393328D02*
X190100884Y-185393328D01*
X190100884Y-185393328D02*
X190243741Y-185464757D01*
X190243741Y-185464757D02*
X190315170Y-185607614D01*
X190315170Y-185607614D02*
X190315170Y-185750471D01*
X190315170Y-185750471D02*
X189600884Y-185893328D01*
X190958026Y-186393328D02*
X190958026Y-185393328D01*
X190958026Y-185679042D02*
X191029455Y-185536185D01*
X191029455Y-185536185D02*
X191100884Y-185464757D01*
X191100884Y-185464757D02*
X191243741Y-185393328D01*
X191243741Y-185393328D02*
X191386598Y-185393328D01*
X191529455Y-186536185D02*
X192672312Y-186536185D01*
X193029454Y-186393328D02*
X193029454Y-184893328D01*
X193029454Y-184893328D02*
X193386597Y-184893328D01*
X193386597Y-184893328D02*
X193600883Y-184964757D01*
X193600883Y-184964757D02*
X193743740Y-185107614D01*
X193743740Y-185107614D02*
X193815169Y-185250471D01*
X193815169Y-185250471D02*
X193886597Y-185536185D01*
X193886597Y-185536185D02*
X193886597Y-185750471D01*
X193886597Y-185750471D02*
X193815169Y-186036185D01*
X193815169Y-186036185D02*
X193743740Y-186179042D01*
X193743740Y-186179042D02*
X193600883Y-186321900D01*
X193600883Y-186321900D02*
X193386597Y-186393328D01*
X193386597Y-186393328D02*
X193029454Y-186393328D01*
X195100883Y-186321900D02*
X194958026Y-186393328D01*
X194958026Y-186393328D02*
X194672312Y-186393328D01*
X194672312Y-186393328D02*
X194529454Y-186321900D01*
X194529454Y-186321900D02*
X194458026Y-186179042D01*
X194458026Y-186179042D02*
X194458026Y-185607614D01*
X194458026Y-185607614D02*
X194529454Y-185464757D01*
X194529454Y-185464757D02*
X194672312Y-185393328D01*
X194672312Y-185393328D02*
X194958026Y-185393328D01*
X194958026Y-185393328D02*
X195100883Y-185464757D01*
X195100883Y-185464757D02*
X195172312Y-185607614D01*
X195172312Y-185607614D02*
X195172312Y-185750471D01*
X195172312Y-185750471D02*
X194458026Y-185893328D01*
X195672311Y-185393328D02*
X196029454Y-186393328D01*
X196029454Y-186393328D02*
X196386597Y-185393328D01*
X196600883Y-186536185D02*
X197743740Y-186536185D01*
X198386597Y-184893328D02*
X198529454Y-184893328D01*
X198529454Y-184893328D02*
X198672311Y-184964757D01*
X198672311Y-184964757D02*
X198743740Y-185036185D01*
X198743740Y-185036185D02*
X198815168Y-185179042D01*
X198815168Y-185179042D02*
X198886597Y-185464757D01*
X198886597Y-185464757D02*
X198886597Y-185821900D01*
X198886597Y-185821900D02*
X198815168Y-186107614D01*
X198815168Y-186107614D02*
X198743740Y-186250471D01*
X198743740Y-186250471D02*
X198672311Y-186321900D01*
X198672311Y-186321900D02*
X198529454Y-186393328D01*
X198529454Y-186393328D02*
X198386597Y-186393328D01*
X198386597Y-186393328D02*
X198243740Y-186321900D01*
X198243740Y-186321900D02*
X198172311Y-186250471D01*
X198172311Y-186250471D02*
X198100882Y-186107614D01*
X198100882Y-186107614D02*
X198029454Y-185821900D01*
X198029454Y-185821900D02*
X198029454Y-185464757D01*
X198029454Y-185464757D02*
X198100882Y-185179042D01*
X198100882Y-185179042D02*
X198172311Y-185036185D01*
X198172311Y-185036185D02*
X198243740Y-184964757D01*
X198243740Y-184964757D02*
X198386597Y-184893328D01*
X199815168Y-184893328D02*
X199958025Y-184893328D01*
X199958025Y-184893328D02*
X200100882Y-184964757D01*
X200100882Y-184964757D02*
X200172311Y-185036185D01*
X200172311Y-185036185D02*
X200243739Y-185179042D01*
X200243739Y-185179042D02*
X200315168Y-185464757D01*
X200315168Y-185464757D02*
X200315168Y-185821900D01*
X200315168Y-185821900D02*
X200243739Y-186107614D01*
X200243739Y-186107614D02*
X200172311Y-186250471D01*
X200172311Y-186250471D02*
X200100882Y-186321900D01*
X200100882Y-186321900D02*
X199958025Y-186393328D01*
X199958025Y-186393328D02*
X199815168Y-186393328D01*
X199815168Y-186393328D02*
X199672311Y-186321900D01*
X199672311Y-186321900D02*
X199600882Y-186250471D01*
X199600882Y-186250471D02*
X199529453Y-186107614D01*
X199529453Y-186107614D02*
X199458025Y-185821900D01*
X199458025Y-185821900D02*
X199458025Y-185464757D01*
X199458025Y-185464757D02*
X199529453Y-185179042D01*
X199529453Y-185179042D02*
X199600882Y-185036185D01*
X199600882Y-185036185D02*
X199672311Y-184964757D01*
X199672311Y-184964757D02*
X199815168Y-184893328D01*
X201743739Y-186393328D02*
X200886596Y-186393328D01*
X201315167Y-186393328D02*
X201315167Y-184893328D01*
X201315167Y-184893328D02*
X201172310Y-185107614D01*
X201172310Y-185107614D02*
X201029453Y-185250471D01*
X201029453Y-185250471D02*
X200886596Y-185321900D01*
X202386595Y-186250471D02*
X202458024Y-186321900D01*
X202458024Y-186321900D02*
X202386595Y-186393328D01*
X202386595Y-186393328D02*
X202315167Y-186321900D01*
X202315167Y-186321900D02*
X202386595Y-186250471D01*
X202386595Y-186250471D02*
X202386595Y-186393328D01*
X203100881Y-186393328D02*
X203100881Y-184893328D01*
X203243739Y-185821900D02*
X203672310Y-186393328D01*
X203672310Y-185393328D02*
X203100881Y-185964757D01*
X204315167Y-186393328D02*
X204315167Y-185393328D01*
X204315167Y-184893328D02*
X204243739Y-184964757D01*
X204243739Y-184964757D02*
X204315167Y-185036185D01*
X204315167Y-185036185D02*
X204386596Y-184964757D01*
X204386596Y-184964757D02*
X204315167Y-184893328D01*
X204315167Y-184893328D02*
X204315167Y-185036185D01*
X205672311Y-186321900D02*
X205529453Y-186393328D01*
X205529453Y-186393328D02*
X205243739Y-186393328D01*
X205243739Y-186393328D02*
X205100882Y-186321900D01*
X205100882Y-186321900D02*
X205029453Y-186250471D01*
X205029453Y-186250471D02*
X204958025Y-186107614D01*
X204958025Y-186107614D02*
X204958025Y-185679042D01*
X204958025Y-185679042D02*
X205029453Y-185536185D01*
X205029453Y-185536185D02*
X205100882Y-185464757D01*
X205100882Y-185464757D02*
X205243739Y-185393328D01*
X205243739Y-185393328D02*
X205529453Y-185393328D01*
X205529453Y-185393328D02*
X205672311Y-185464757D01*
X206958025Y-186393328D02*
X206958025Y-185607614D01*
X206958025Y-185607614D02*
X206886596Y-185464757D01*
X206886596Y-185464757D02*
X206743739Y-185393328D01*
X206743739Y-185393328D02*
X206458025Y-185393328D01*
X206458025Y-185393328D02*
X206315167Y-185464757D01*
X206958025Y-186321900D02*
X206815167Y-186393328D01*
X206815167Y-186393328D02*
X206458025Y-186393328D01*
X206458025Y-186393328D02*
X206315167Y-186321900D01*
X206315167Y-186321900D02*
X206243739Y-186179042D01*
X206243739Y-186179042D02*
X206243739Y-186036185D01*
X206243739Y-186036185D02*
X206315167Y-185893328D01*
X206315167Y-185893328D02*
X206458025Y-185821900D01*
X206458025Y-185821900D02*
X206815167Y-185821900D01*
X206815167Y-185821900D02*
X206958025Y-185750471D01*
X208315168Y-186393328D02*
X208315168Y-184893328D01*
X208315168Y-186321900D02*
X208172310Y-186393328D01*
X208172310Y-186393328D02*
X207886596Y-186393328D01*
X207886596Y-186393328D02*
X207743739Y-186321900D01*
X207743739Y-186321900D02*
X207672310Y-186250471D01*
X207672310Y-186250471D02*
X207600882Y-186107614D01*
X207600882Y-186107614D02*
X207600882Y-185679042D01*
X207600882Y-185679042D02*
X207672310Y-185536185D01*
X207672310Y-185536185D02*
X207743739Y-185464757D01*
X207743739Y-185464757D02*
X207886596Y-185393328D01*
X207886596Y-185393328D02*
X208172310Y-185393328D01*
X208172310Y-185393328D02*
X208315168Y-185464757D01*
X208672311Y-186536185D02*
X209815168Y-186536185D01*
X210172310Y-185393328D02*
X210172310Y-186893328D01*
X210172310Y-185464757D02*
X210315168Y-185393328D01*
X210315168Y-185393328D02*
X210600882Y-185393328D01*
X210600882Y-185393328D02*
X210743739Y-185464757D01*
X210743739Y-185464757D02*
X210815168Y-185536185D01*
X210815168Y-185536185D02*
X210886596Y-185679042D01*
X210886596Y-185679042D02*
X210886596Y-186107614D01*
X210886596Y-186107614D02*
X210815168Y-186250471D01*
X210815168Y-186250471D02*
X210743739Y-186321900D01*
X210743739Y-186321900D02*
X210600882Y-186393328D01*
X210600882Y-186393328D02*
X210315168Y-186393328D01*
X210315168Y-186393328D02*
X210172310Y-186321900D01*
X212172311Y-186321900D02*
X212029453Y-186393328D01*
X212029453Y-186393328D02*
X211743739Y-186393328D01*
X211743739Y-186393328D02*
X211600882Y-186321900D01*
X211600882Y-186321900D02*
X211529453Y-186250471D01*
X211529453Y-186250471D02*
X211458025Y-186107614D01*
X211458025Y-186107614D02*
X211458025Y-185679042D01*
X211458025Y-185679042D02*
X211529453Y-185536185D01*
X211529453Y-185536185D02*
X211600882Y-185464757D01*
X211600882Y-185464757D02*
X211743739Y-185393328D01*
X211743739Y-185393328D02*
X212029453Y-185393328D01*
X212029453Y-185393328D02*
X212172311Y-185464757D01*
X212815167Y-186393328D02*
X212815167Y-184893328D01*
X212815167Y-185464757D02*
X212958025Y-185393328D01*
X212958025Y-185393328D02*
X213243739Y-185393328D01*
X213243739Y-185393328D02*
X213386596Y-185464757D01*
X213386596Y-185464757D02*
X213458025Y-185536185D01*
X213458025Y-185536185D02*
X213529453Y-185679042D01*
X213529453Y-185679042D02*
X213529453Y-186107614D01*
X213529453Y-186107614D02*
X213458025Y-186250471D01*
X213458025Y-186250471D02*
X213386596Y-186321900D01*
X213386596Y-186321900D02*
X213243739Y-186393328D01*
X213243739Y-186393328D02*
X212958025Y-186393328D01*
X212958025Y-186393328D02*
X212815167Y-186321900D01*
D10*
D11*
X177002200Y-181507200D02*
X285002200Y-181507200D01*
D10*
D11*
X178386598Y-183621900D02*
X178600884Y-183693328D01*
X178600884Y-183693328D02*
X178958026Y-183693328D01*
X178958026Y-183693328D02*
X179100884Y-183621900D01*
X179100884Y-183621900D02*
X179172312Y-183550471D01*
X179172312Y-183550471D02*
X179243741Y-183407614D01*
X179243741Y-183407614D02*
X179243741Y-183264757D01*
X179243741Y-183264757D02*
X179172312Y-183121900D01*
X179172312Y-183121900D02*
X179100884Y-183050471D01*
X179100884Y-183050471D02*
X178958026Y-182979042D01*
X178958026Y-182979042D02*
X178672312Y-182907614D01*
X178672312Y-182907614D02*
X178529455Y-182836185D01*
X178529455Y-182836185D02*
X178458026Y-182764757D01*
X178458026Y-182764757D02*
X178386598Y-182621900D01*
X178386598Y-182621900D02*
X178386598Y-182479042D01*
X178386598Y-182479042D02*
X178458026Y-182336185D01*
X178458026Y-182336185D02*
X178529455Y-182264757D01*
X178529455Y-182264757D02*
X178672312Y-182193328D01*
X178672312Y-182193328D02*
X179029455Y-182193328D01*
X179029455Y-182193328D02*
X179243741Y-182264757D01*
X179886597Y-183693328D02*
X179886597Y-182193328D01*
X180529455Y-183693328D02*
X180529455Y-182907614D01*
X180529455Y-182907614D02*
X180458026Y-182764757D01*
X180458026Y-182764757D02*
X180315169Y-182693328D01*
X180315169Y-182693328D02*
X180100883Y-182693328D01*
X180100883Y-182693328D02*
X179958026Y-182764757D01*
X179958026Y-182764757D02*
X179886597Y-182836185D01*
X181815169Y-183621900D02*
X181672312Y-183693328D01*
X181672312Y-183693328D02*
X181386598Y-183693328D01*
X181386598Y-183693328D02*
X181243740Y-183621900D01*
X181243740Y-183621900D02*
X181172312Y-183479042D01*
X181172312Y-183479042D02*
X181172312Y-182907614D01*
X181172312Y-182907614D02*
X181243740Y-182764757D01*
X181243740Y-182764757D02*
X181386598Y-182693328D01*
X181386598Y-182693328D02*
X181672312Y-182693328D01*
X181672312Y-182693328D02*
X181815169Y-182764757D01*
X181815169Y-182764757D02*
X181886598Y-182907614D01*
X181886598Y-182907614D02*
X181886598Y-183050471D01*
X181886598Y-183050471D02*
X181172312Y-183193328D01*
X183100883Y-183621900D02*
X182958026Y-183693328D01*
X182958026Y-183693328D02*
X182672312Y-183693328D01*
X182672312Y-183693328D02*
X182529454Y-183621900D01*
X182529454Y-183621900D02*
X182458026Y-183479042D01*
X182458026Y-183479042D02*
X182458026Y-182907614D01*
X182458026Y-182907614D02*
X182529454Y-182764757D01*
X182529454Y-182764757D02*
X182672312Y-182693328D01*
X182672312Y-182693328D02*
X182958026Y-182693328D01*
X182958026Y-182693328D02*
X183100883Y-182764757D01*
X183100883Y-182764757D02*
X183172312Y-182907614D01*
X183172312Y-182907614D02*
X183172312Y-183050471D01*
X183172312Y-183050471D02*
X182458026Y-183193328D01*
X183600883Y-182693328D02*
X184172311Y-182693328D01*
X183815168Y-182193328D02*
X183815168Y-183479042D01*
X183815168Y-183479042D02*
X183886597Y-183621900D01*
X183886597Y-183621900D02*
X184029454Y-183693328D01*
X184029454Y-183693328D02*
X184172311Y-183693328D01*
X184672311Y-183550471D02*
X184743740Y-183621900D01*
X184743740Y-183621900D02*
X184672311Y-183693328D01*
X184672311Y-183693328D02*
X184600883Y-183621900D01*
X184600883Y-183621900D02*
X184672311Y-183550471D01*
X184672311Y-183550471D02*
X184672311Y-183693328D01*
X184672311Y-182764757D02*
X184743740Y-182836185D01*
X184743740Y-182836185D02*
X184672311Y-182907614D01*
X184672311Y-182907614D02*
X184600883Y-182836185D01*
X184600883Y-182836185D02*
X184672311Y-182764757D01*
X184672311Y-182764757D02*
X184672311Y-182907614D01*
D10*
D11*
X197002200Y-191507200D02*
X197002200Y-194507200D01*
D10*
D11*
X261002200Y-191507200D02*
X261002200Y-198007200D01*
D14*
%TO.C,R2*%
X154825000Y-133275000D03*
X154825000Y-132275000D03*
%TD*%
%TO.C,C9*%
X157000000Y-132250000D03*
X157000000Y-133250000D03*
%TD*%
D15*
%TO.C,U6*%
X146500000Y-121800000D03*
D16*
X149000000Y-120300000D03*
X149000000Y-120800000D03*
X149000000Y-121300000D03*
X149000000Y-121800000D03*
X149000000Y-122300000D03*
X149000000Y-122800000D03*
X149000000Y-123300000D03*
D17*
X148000000Y-124300000D03*
X147500000Y-124300000D03*
X147000000Y-124300000D03*
X146500000Y-124300000D03*
X146000000Y-124300000D03*
X145500000Y-124300000D03*
X145000000Y-124300000D03*
D16*
X144000000Y-123300000D03*
X144000000Y-122800000D03*
X144000000Y-122300000D03*
X144000000Y-121800000D03*
X144000000Y-121300000D03*
X144000000Y-120800000D03*
X144000000Y-120300000D03*
D17*
X145000000Y-119300000D03*
X145500000Y-119300000D03*
X146000000Y-119300000D03*
X146500000Y-119300000D03*
X147000000Y-119300000D03*
X147500000Y-119300000D03*
X148000000Y-119300000D03*
%TD*%
D18*
%TO.C,L1*%
X157090000Y-81530000D03*
X158670000Y-81530000D03*
%TD*%
D14*
%TO.C,C6*%
X127480000Y-81330000D03*
X127480000Y-80330000D03*
%TD*%
D19*
%TO.C,C2*%
X137850000Y-133980000D03*
X137850000Y-132420000D03*
%TD*%
D20*
%TO.C,J4*%
X143460000Y-133350000D03*
X149240000Y-133350000D03*
D21*
X145100000Y-132150000D03*
X146100000Y-132150000D03*
X146600000Y-132150000D03*
X147600000Y-132150000D03*
D22*
X148750000Y-132150000D03*
X149550000Y-132150000D03*
D21*
X148100000Y-132150000D03*
X147100000Y-132150000D03*
X145600000Y-132150000D03*
X144600000Y-132150000D03*
D22*
X143950000Y-132150000D03*
X143150000Y-132150000D03*
D23*
X142020000Y-132830000D03*
D24*
X142020000Y-137030000D03*
D25*
X144350000Y-135650000D03*
X144350000Y-137650000D03*
D26*
X146350000Y-136650000D03*
D25*
X148350000Y-135650000D03*
X148350000Y-137650000D03*
D23*
X150680000Y-132830000D03*
D24*
X150680000Y-137030000D03*
%TD*%
D27*
%TO.C,R6*%
X138875000Y-109175000D03*
X137875000Y-109175000D03*
%TD*%
D28*
%TO.C,R9*%
X133950000Y-124790000D03*
X133950000Y-121870000D03*
%TD*%
D29*
%TO.C,J1*%
X159775000Y-76400000D03*
D30*
X157235000Y-73860000D03*
X157235000Y-78940000D03*
X162315000Y-73860000D03*
X162315000Y-78940000D03*
%TD*%
D31*
%TO.C,C12*%
X146425000Y-107100000D03*
X147425000Y-107100000D03*
%TD*%
D32*
%TO.C,R12*%
X140160000Y-120370000D03*
X140160000Y-121370000D03*
%TD*%
%TO.C,R11*%
X127567500Y-87355000D03*
X127567500Y-88355000D03*
%TD*%
D33*
%TO.C,FB1*%
X139700000Y-134260000D03*
X139700000Y-132140000D03*
%TD*%
D34*
%TO.C,D1*%
X125875000Y-128805000D03*
X125875000Y-126925000D03*
%TD*%
D27*
%TO.C,R8*%
X139121855Y-103640032D03*
X138121855Y-103640032D03*
%TD*%
D35*
%TO.C,D5*%
X165500000Y-93775000D03*
X169500000Y-93775000D03*
%TD*%
D31*
%TO.C,R16*%
X145150000Y-101550000D03*
X146150000Y-101550000D03*
%TD*%
%TO.C,R20*%
X168070000Y-89840000D03*
X169070000Y-89840000D03*
%TD*%
D36*
%TO.C,S2*%
X148925000Y-115200000D03*
X144775000Y-115200000D03*
%TD*%
D37*
%TO.C,D3*%
X147100000Y-129575000D03*
X148500000Y-129575000D03*
%TD*%
D38*
%TO.C,U1*%
X152050001Y-93725000D03*
X153149999Y-93725000D03*
X154249999Y-93725000D03*
X155350000Y-93725000D03*
X156450000Y-93725000D03*
X157550000Y-93725000D03*
X158650001Y-93725000D03*
X159750001Y-93725000D03*
X160850001Y-93725000D03*
X160849999Y-84025000D03*
X159750001Y-84025000D03*
X158650001Y-84025000D03*
X157550000Y-84025000D03*
X156450000Y-84025000D03*
X155350000Y-84025000D03*
X154249999Y-84025000D03*
X153149999Y-84025000D03*
X152049999Y-84025000D03*
%TD*%
D31*
%TO.C,C13*%
X147800000Y-101550000D03*
X148800000Y-101550000D03*
%TD*%
D39*
%TO.C,BT1*%
X162775000Y-129200000D03*
X162775000Y-100200000D03*
%TD*%
D19*
%TO.C,C1*%
X130300000Y-122670000D03*
X130300000Y-121110000D03*
%TD*%
D27*
%TO.C,C3*%
X144825000Y-118250000D03*
X143825000Y-118250000D03*
%TD*%
D19*
%TO.C,C4*%
X136300000Y-131235000D03*
X136300000Y-129675000D03*
%TD*%
D40*
%TO.C,Q2*%
X169500000Y-85902500D03*
X169500000Y-84002500D03*
X167620000Y-84952500D03*
%TD*%
D41*
%TO.C,D2*%
X145600000Y-129575000D03*
X144200000Y-129575000D03*
%TD*%
D27*
%TO.C,R3*%
X138850000Y-111325000D03*
X137850000Y-111325000D03*
%TD*%
D31*
%TO.C,C5*%
X159750000Y-95550000D03*
X160750000Y-95550000D03*
%TD*%
D14*
%TO.C,R10*%
X123517500Y-88280000D03*
X123517500Y-87280000D03*
%TD*%
D42*
%TO.C,Q1*%
X126217500Y-86880000D03*
X125567500Y-86880000D03*
X124917500Y-86880000D03*
X124917500Y-88780000D03*
X125567500Y-88780000D03*
X126217500Y-88780000D03*
%TD*%
D32*
%TO.C,R14*%
X140500000Y-122425000D03*
X140500000Y-123425000D03*
%TD*%
D43*
%TO.C,FL1*%
X146082505Y-127681913D03*
X146082505Y-126431913D03*
X146632505Y-126431913D03*
X146632505Y-127681913D03*
%TD*%
D27*
%TO.C,C14*%
X155695000Y-82210000D03*
X154695000Y-82210000D03*
%TD*%
D32*
%TO.C,C10*%
X127480000Y-82630000D03*
X127480000Y-83630000D03*
%TD*%
D27*
%TO.C,R7*%
X139146855Y-104790032D03*
X138146855Y-104790032D03*
%TD*%
%TO.C,C15*%
X157525000Y-95550000D03*
X156525000Y-95550000D03*
%TD*%
D32*
%TO.C,R17*%
X162550000Y-91725000D03*
X162550000Y-92725000D03*
%TD*%
D31*
%TO.C,R21*%
X168060000Y-82540000D03*
X169060000Y-82540000D03*
%TD*%
D44*
%TO.C,J3*%
X125546855Y-112165032D03*
X125546855Y-104165032D03*
D45*
X136046855Y-111365032D03*
X136046855Y-110265032D03*
X136046855Y-109165032D03*
X136046855Y-108065032D03*
X136046855Y-106965032D03*
X136046855Y-105865032D03*
X136046855Y-104765032D03*
X136046855Y-103665032D03*
X136046855Y-102565032D03*
D46*
X125946855Y-116865032D03*
D47*
X135546855Y-115965032D03*
D46*
X125946855Y-101365032D03*
D48*
X135546855Y-101365032D03*
%TD*%
D31*
%TO.C,R18*%
X154695000Y-81235000D03*
X155695000Y-81235000D03*
%TD*%
D36*
%TO.C,S1*%
X149000000Y-109450000D03*
X144850000Y-109450000D03*
%TD*%
D49*
%TO.C,D6*%
X169470000Y-88075000D03*
X167590000Y-88075000D03*
%TD*%
D36*
%TO.C,S3*%
X149000000Y-103925000D03*
X144850000Y-103925000D03*
%TD*%
D27*
%TO.C,R5*%
X138850000Y-110275000D03*
X137850000Y-110275000D03*
%TD*%
D14*
%TO.C,R13*%
X141800000Y-123425000D03*
X141800000Y-122425000D03*
%TD*%
%TO.C,C8*%
X131900000Y-122790000D03*
X131900000Y-121790000D03*
%TD*%
%TO.C,C7*%
X134875000Y-131265000D03*
X134875000Y-130265000D03*
%TD*%
D32*
%TO.C,R4*%
X127800000Y-124590000D03*
X127800000Y-125590000D03*
%TD*%
D50*
%TO.C,U5*%
X128400000Y-130785000D03*
X130700000Y-130785000D03*
X133000000Y-130785000D03*
D25*
X131700000Y-124815000D03*
X130700000Y-124815000D03*
D51*
X130700000Y-124815000D03*
D25*
X129700000Y-124815000D03*
%TD*%
D31*
%TO.C,C11*%
X146375000Y-112850000D03*
X147375000Y-112850000D03*
%TD*%
D52*
%TO.C,D4*%
X132650000Y-135500000D03*
X128350000Y-135500000D03*
%TD*%
D27*
%TO.C,R19*%
X165525000Y-96375000D03*
X164525000Y-96375000D03*
%TD*%
D14*
%TO.C,R1*%
X152800000Y-133250000D03*
X152800000Y-132250000D03*
%TD*%
D32*
%TO.C,R15*%
X125580000Y-81555000D03*
X125580000Y-82555000D03*
%TD*%
D53*
%TO.C,U2*%
X129420000Y-80030000D03*
X129420000Y-81300000D03*
X129420000Y-82570000D03*
X129420000Y-83840000D03*
X129420000Y-85110000D03*
X129420000Y-86380000D03*
X129420000Y-87650000D03*
X129420000Y-88920000D03*
X129420000Y-90190000D03*
X129420000Y-91460000D03*
X129420000Y-92730000D03*
X129420000Y-94000000D03*
X129420000Y-95270000D03*
X129420000Y-96540000D03*
X146920000Y-96540000D03*
X146920000Y-95270000D03*
X146920000Y-94000000D03*
X146920000Y-92730000D03*
X146920000Y-91460000D03*
X146920000Y-90190000D03*
X146920000Y-88920000D03*
X146920000Y-87650000D03*
X146920000Y-86380000D03*
X146920000Y-85110000D03*
X146920000Y-83840000D03*
X146920000Y-82570000D03*
X146920000Y-81300000D03*
X146920000Y-80030000D03*
D54*
X135415000Y-84500000D03*
X135415000Y-85750000D03*
X135415000Y-87000000D03*
X136665000Y-84500000D03*
X136665000Y-85750000D03*
X136665000Y-87000000D03*
X137915000Y-84500000D03*
X137915000Y-85750000D03*
X137915000Y-87000000D03*
%TD*%
M02*
